<svg width="20" height="20" viewBox="0 0 20 20" fill="none" xmlns="http://www.w3.org/2000/svg">
<path d="M4.04778 10.4753C3.85834 10.4753 3.67666 10.5505 3.54271 10.6845C3.40875 10.8184 3.3335 11.0001 3.3335 11.1895C3.3335 11.379 3.40875 11.5607 3.54271 11.6946C3.67666 11.8286 3.85834 11.9038 4.04778 11.9038H4.52397C4.71341 11.9038 4.89509 11.8286 5.02905 11.6946C5.163 11.5607 5.23826 11.379 5.23826 11.1895C5.23826 11.0001 5.163 10.8184 5.02905 10.6845C4.89509 10.5505 4.71341 10.4753 4.52397 10.4753H4.04778ZM3.3335 7.85621C3.3335 7.66677 3.40875 7.48509 3.54271 7.35114C3.67666 7.21718 3.85834 7.14193 4.04778 7.14193H4.52397C4.71341 7.14193 4.89509 7.21718 5.02905 7.35114C5.163 7.48509 5.23826 7.66677 5.23826 7.85621C5.23826 8.04565 5.163 8.22733 5.02905 8.36129C4.89509 8.49524 4.71341 8.5705 4.52397 8.5705H4.04778C3.85834 8.5705 3.67666 8.49524 3.54271 8.36129C3.40875 8.22733 3.3335 8.04565 3.3335 7.85621ZM4.04778 3.80859C3.85834 3.80859 3.67666 3.88385 3.54271 4.0178C3.40875 4.15176 3.3335 4.33344 3.3335 4.52288C3.3335 4.71232 3.40875 4.894 3.54271 5.02796C3.67666 5.16191 3.85834 5.23717 4.04778 5.23717H4.52397C4.71341 5.23717 4.89509 5.16191 5.02905 5.02796C5.163 4.894 5.23826 4.71232 5.23826 4.52288C5.23826 4.33344 5.163 4.15176 5.02905 4.0178C4.89509 3.88385 4.71341 3.80859 4.52397 3.80859H4.04778ZM6.66683 11.1895C6.66683 11.0001 6.74208 10.8184 6.87604 10.6845C7.00999 10.5505 7.19167 10.4753 7.38111 10.4753H7.85731C8.04675 10.4753 8.22843 10.5505 8.36238 10.6845C8.49634 10.8184 8.57159 11.0001 8.57159 11.1895C8.57159 11.379 8.49634 11.5607 8.36238 11.6946C8.22843 11.8286 8.04675 11.9038 7.85731 11.9038H7.38111C7.19167 11.9038 7.00999 11.8286 6.87604 11.6946C6.74208 11.5607 6.66683 11.379 6.66683 11.1895ZM7.38111 7.14193C7.19167 7.14193 7.00999 7.21718 6.87604 7.35114C6.74208 7.48509 6.66683 7.66677 6.66683 7.85621C6.66683 8.04565 6.74208 8.22733 6.87604 8.36129C7.00999 8.49524 7.19167 8.5705 7.38111 8.5705H7.85731C8.04675 8.5705 8.22843 8.49524 8.36238 8.36129C8.49634 8.22733 8.57159 8.04565 8.57159 7.85621C8.57159 7.66677 8.49634 7.48509 8.36238 7.35114C8.22843 7.21718 8.04675 7.14193 7.85731 7.14193H7.38111ZM6.66683 4.52288C6.66683 4.33344 6.74208 4.15176 6.87604 4.0178C7.00999 3.88385 7.19167 3.80859 7.38111 3.80859H7.85731C8.04675 3.80859 8.22843 3.88385 8.36238 4.0178C8.49634 4.15176 8.57159 4.33344 8.57159 4.52288C8.57159 4.71232 8.49634 4.894 8.36238 5.02796C8.22843 5.16191 8.04675 5.23717 7.85731 5.23717H7.38111C7.19167 5.23717 7.00999 5.16191 6.87604 5.02796C6.74208 4.894 6.66683 4.71232 6.66683 4.52288ZM10.7144 10.4753C10.525 10.4753 10.3433 10.5505 10.2094 10.6845C10.0754 10.8184 10.0002 11.0001 10.0002 11.1895C10.0002 11.379 10.0754 11.5607 10.2094 11.6946C10.3433 11.8286 10.525 11.9038 10.7144 11.9038H11.1906C11.3801 11.9038 11.5618 11.8286 11.6957 11.6946C11.8297 11.5607 11.9049 11.379 11.9049 11.1895C11.9049 11.0001 11.8297 10.8184 11.6957 10.6845C11.5618 10.5505 11.3801 10.4753 11.1906 10.4753H10.7144ZM10.0002 7.85621C10.0002 7.66677 10.0754 7.48509 10.2094 7.35114C10.3433 7.21718 10.525 7.14193 10.7144 7.14193H11.1906C11.3801 7.14193 11.5618 7.21718 11.6957 7.35114C11.8297 7.48509 11.9049 7.66677 11.9049 7.85621C11.9049 8.04565 11.8297 8.22733 11.6957 8.36129C11.5618 8.49524 11.3801 8.5705 11.1906 8.5705H10.7144C10.525 8.5705 10.3433 8.49524 10.2094 8.36129C10.0754 8.22733 10.0002 8.04565 10.0002 7.85621ZM10.7144 3.80859C10.525 3.80859 10.3433 3.88385 10.2094 4.0178C10.0754 4.15176 10.0002 4.33344 10.0002 4.52288C10.0002 4.71232 10.0754 4.894 10.2094 5.02796C10.3433 5.16191 10.525 5.23717 10.7144 5.23717H11.1906C11.3801 5.23717 11.5618 5.16191 11.6957 5.02796C11.8297 4.894 11.9049 4.71232 11.9049 4.52288C11.9049 4.33344 11.8297 4.15176 11.6957 4.0178C11.5618 3.88385 11.3801 3.80859 11.1906 3.80859H10.7144Z" fill="black"/>
<path d="M0 18.0952V1.90476C0 1.39959 0.20068 0.915104 0.557892 0.557892C0.915104 0.20068 1.39959 0 1.90476 0H13.3333C13.8385 0 14.323 0.20068 14.6802 0.557892C15.0374 0.915104 15.2381 1.39959 15.2381 1.90476V18.0952C15.2381 18.26 15.2171 18.419 15.1781 18.5714H17.1429C17.2692 18.5714 17.3903 18.5213 17.4796 18.432C17.5689 18.3427 17.619 18.2215 17.619 18.0952V10.4762C17.619 10.4023 17.6018 10.3294 17.5688 10.2632C17.5357 10.1971 17.4877 10.1396 17.4286 10.0952L16.9524 9.7381C16.8008 9.62443 16.7006 9.45522 16.6738 9.26768C16.6471 9.08014 16.6959 8.88965 16.8095 8.7381C16.9232 8.58654 17.0924 8.48635 17.2799 8.45956C17.4675 8.43277 17.658 8.48157 17.8095 8.59524L18.2857 8.95238C18.7657 9.31238 19.0476 9.87619 19.0476 10.4762V18.0952C19.0476 18.6004 18.8469 19.0849 18.4897 19.4421C18.1325 19.7993 17.648 20 17.1429 20H13.7505C13.6973 20.0001 13.6443 19.9943 13.5924 19.9829C13.5076 19.9943 13.421 20 13.3333 20H9.7619C9.57246 20 9.39078 19.9247 9.25683 19.7908C9.12287 19.6568 9.04762 19.4752 9.04762 19.2857V17.1429H6.19048V19.2857C6.19048 19.4752 6.11522 19.6568 5.98127 19.7908C5.84731 19.9247 5.66563 20 5.47619 20H1.90476C1.39959 20 0.915104 19.7993 0.557892 19.4421C0.20068 19.0849 0 18.6004 0 18.0952ZM1.90476 18.5714H4.7619V16.4286C4.7619 16.2391 4.83716 16.0574 4.97111 15.9235C5.10507 15.7895 5.28675 15.7143 5.47619 15.7143H9.7619C9.95135 15.7143 10.133 15.7895 10.267 15.9235C10.4009 16.0574 10.4762 16.2391 10.4762 16.4286V18.5714H13.3333C13.4596 18.5714 13.5807 18.5213 13.6701 18.432C13.7594 18.3427 13.8095 18.2215 13.8095 18.0952V1.90476C13.8095 1.77847 13.7594 1.65735 13.6701 1.56804C13.5807 1.47874 13.4596 1.42857 13.3333 1.42857H1.90476C1.77847 1.42857 1.65735 1.47874 1.56804 1.56804C1.47874 1.65735 1.42857 1.77847 1.42857 1.90476V18.0952C1.42857 18.2215 1.47874 18.3427 1.56804 18.432C1.65735 18.5213 1.77847 18.5714 1.90476 18.5714Z" fill="black"/>
</svg>
