<svg width="28" height="38" viewBox="0 0 28 38" fill="none" xmlns="http://www.w3.org/2000/svg">
<path d="M22.5877 31.2989L27.756 26.1101C27.8749 25.9515 27.9327 25.7553 27.9186 25.5576C27.9046 25.3598 27.8196 25.1737 27.6794 25.0336C27.5393 24.8934 27.3532 24.8084 27.1554 24.7944C26.9577 24.7803 26.7615 24.8381 26.6029 24.957L21.4141 30.1253L11.0365 19.7682C13.6577 19.7246 16.1543 18.6414 17.9769 16.757C19.7995 14.8726 20.7989 12.3413 20.7552 9.72008C20.7115 7.09883 19.6283 4.6023 17.7439 2.77969C15.8595 0.957076 13.3283 -0.0423131 10.707 0.00137436H0.823619C0.605182 0.00137436 0.39569 0.0881485 0.241232 0.242607C0.0867733 0.397066 0 0.606556 0 0.824994V32.1225C0 32.341 0.0867733 32.5505 0.241232 32.7049C0.39569 32.8594 0.605182 32.9461 0.823619 32.9461C1.04206 32.9461 1.25155 32.8594 1.40601 32.7049C1.56046 32.5505 1.64724 32.341 1.64724 32.1225V19.7682H8.70977L20.2404 31.2989L15.0722 36.4877C14.995 36.5626 14.9336 36.6522 14.8917 36.7512C14.8498 36.8503 14.8282 36.9567 14.8282 37.0642C14.8282 37.1718 14.8498 37.2782 14.8917 37.3773C14.9336 37.4763 14.995 37.5659 15.0722 37.6408C15.1471 37.718 15.2367 37.7794 15.3357 37.8213C15.4348 37.8632 15.5412 37.8848 15.6488 37.8848C15.7563 37.8848 15.8628 37.8632 15.9618 37.8213C16.0608 37.7794 16.1504 37.718 16.2253 37.6408L21.4141 32.4726L26.6029 37.6408C26.6777 37.718 26.7674 37.7794 26.8664 37.8213C26.9654 37.8632 27.0719 37.8848 27.1794 37.8848C27.287 37.8848 27.3934 37.8632 27.4925 37.8213C27.5915 37.7794 27.6811 37.718 27.756 37.6408C27.8332 37.5659 27.8946 37.4763 27.9365 37.3773C27.9784 37.2782 28 37.1718 28 37.0642C28 36.9567 27.9784 36.8503 27.9365 36.7512C27.8946 36.6522 27.8332 36.5626 27.756 36.4877L22.5877 31.2989ZM1.64724 1.64861H10.707C12.8914 1.64861 14.9863 2.51635 16.5309 4.06094C18.0755 5.60552 18.9432 7.70043 18.9432 9.88481C18.9432 12.0692 18.0755 14.1641 16.5309 15.7087C14.9863 17.2533 12.8914 18.121 10.707 18.121H1.64724V1.64861Z" fill="#01BABE"/>
</svg>
