<svg width="23" height="24" viewBox="0 0 23 24" fill="none" xmlns="http://www.w3.org/2000/svg">
<path d="M9.80285 10.5212C12.7082 10.5212 15.0635 8.16598 15.0635 5.26062C15.0635 2.35526 12.7082 0 9.80285 0C6.89749 0 4.54224 2.35526 4.54224 5.26062C4.54224 8.16598 6.89749 10.5212 9.80285 10.5212Z" fill="#19525A"/>
<path d="M5.17568 17.8431C5.19174 17.4157 5.33415 17.0027 5.58491 16.6562C5.83568 16.3097 6.18354 16.0453 6.58453 15.8965C6.98551 15.7477 7.42162 15.7211 7.83771 15.8201C8.25381 15.9191 8.63122 16.1392 8.92223 16.4527L11.904 19.6585L17.1878 13.7644C15.0052 12.3099 12.4332 11.5504 9.81059 11.586C7.99129 11.54 6.184 11.8931 4.51579 12.6204C2.84757 13.3478 1.35893 14.4317 0.154535 15.7961C0.0526492 15.9319 -0.00164859 16.0975 3.81431e-05 16.2673V20.431C-0.000142727 20.8328 0.156253 21.2189 0.436041 21.5073C0.715829 21.7958 1.09699 21.9639 1.49866 21.9759H8.11885L5.74732 19.4267C5.55138 19.2141 5.39988 18.9645 5.30172 18.6926C5.20355 18.4207 5.1607 18.1319 5.17568 17.8431Z" fill="#19525A"/>
<path d="M18.1224 21.9769C18.5241 21.9648 18.9053 21.7967 19.185 21.5083C19.4648 21.2198 19.6212 20.8337 19.621 20.4319V17.5273L15.6582 21.9769H18.1224Z" fill="#19525A"/>
<path d="M21.9925 11.6407C21.9167 11.5722 21.8281 11.5194 21.7317 11.4854C21.6353 11.4514 21.5332 11.4369 21.4312 11.4426C21.3291 11.4484 21.2293 11.4743 21.1373 11.5189C21.0454 11.5635 20.9632 11.626 20.8956 11.7025L11.9193 21.7448L7.90242 17.4267C7.83648 17.3496 7.75601 17.2862 7.66558 17.2402C7.57516 17.1942 7.47656 17.1665 7.37542 17.1586C7.27427 17.1507 7.17257 17.1628 7.0761 17.1942C6.97964 17.2256 6.89031 17.2757 6.81322 17.3417C6.74081 17.4135 6.68334 17.4989 6.64413 17.5931C6.60491 17.6872 6.58472 17.7882 6.58472 17.8901C6.58472 17.9921 6.60491 18.0931 6.64413 18.1872C6.68334 18.2814 6.74081 18.3668 6.81322 18.4386L11.9734 24.0005L22.0466 12.7068C22.1765 12.5563 22.2434 12.3615 22.2333 12.1629C22.2232 11.9644 22.137 11.7773 21.9925 11.6407Z" fill="#19525A"/>
</svg>
