<svg width="28" height="22" viewBox="0 0 28 22" fill="none" xmlns="http://www.w3.org/2000/svg">
<path d="M4.5 0C3.30653 0 2.16193 0.474106 1.31802 1.31802C0.474106 2.16193 0 3.30653 0 4.5V6H28V4.5C28 3.30653 27.5259 2.16193 26.682 1.31802C25.8381 0.474106 24.6935 0 23.5 0H4.5ZM0 17.5V8H28V17.5C28 18.6935 27.5259 19.8381 26.682 20.682C25.8381 21.5259 24.6935 22 23.5 22H4.5C3.30653 22 2.16193 21.5259 1.31802 20.682C0.474106 19.8381 0 18.6935 0 17.5ZM19 14C18.7348 14 18.4804 14.1054 18.2929 14.2929C18.1054 14.4804 18 14.7348 18 15C18 15.2652 18.1054 15.5196 18.2929 15.7071C18.4804 15.8946 18.7348 16 19 16H22C22.2652 16 22.5196 15.8946 22.7071 15.7071C22.8946 15.5196 23 15.2652 23 15C23 14.7348 22.8946 14.4804 22.7071 14.2929C22.5196 14.1054 22.2652 14 22 14H19Z" fill="#19525A"/>
</svg>
