<svg width="30" height="28" viewBox="0 0 30 28" fill="none" xmlns="http://www.w3.org/2000/svg">
<path d="M11.7895 0H17.6842C18.4659 0 19.2156 0.310525 19.7683 0.863264C20.3211 1.416 20.6316 2.16568 20.6316 2.94737V5.89474H26.5263C27.308 5.89474 28.0577 6.20526 28.6104 6.758C29.1632 7.31074 29.4737 8.06041 29.4737 8.8421V25.0526C29.4737 25.8343 29.1632 26.584 28.6104 27.1367C28.0577 27.6895 27.308 28 26.5263 28H2.94737C2.16568 28 1.416 27.6895 0.863264 27.1367C0.310525 26.584 0 25.8343 0 25.0526V8.8421C0 8.06041 0.310525 7.31074 0.863264 6.758C1.416 6.20526 2.16568 5.89474 2.94737 5.89474H8.8421V2.94737C8.8421 2.16568 9.15263 1.416 9.70537 0.863264C10.2581 0.310525 11.0078 0 11.7895 0ZM17.6842 5.89474V2.94737H11.7895V5.89474H17.6842ZM12.5263 22.8421L22.2379 13.1305L20.16 11.0526L12.5263 18.6716L9.44631 15.6063L7.36842 17.6842L12.5263 22.8421Z" fill="#19525A"/>
</svg>
