<svg width="30" height="28" viewBox="0 0 30 28" fill="none" xmlns="http://www.w3.org/2000/svg">
<path d="M26.5263 5.89474H20.6316V2.94737C20.6316 2.16568 20.3211 1.416 19.7683 0.863264C19.2156 0.310525 18.4659 0 17.6842 0H11.7895C10.1537 0 8.8421 1.31158 8.8421 2.94737V5.89474H2.94737C1.31158 5.89474 0 7.20632 0 8.8421V25.0526C0 25.8343 0.310525 26.584 0.863264 27.1367C1.416 27.6895 2.16568 28 2.94737 28H26.5263C27.308 28 28.0577 27.6895 28.6104 27.1367C29.1632 26.584 29.4737 25.8343 29.4737 25.0526V8.8421C29.4737 8.06041 29.1632 7.31074 28.6104 6.758C28.0577 6.20526 27.308 5.89474 26.5263 5.89474ZM11.7895 2.94737H17.6842V5.89474H11.7895V2.94737ZM14.7368 10.3158C15.714 10.3158 16.651 10.7039 17.342 11.3949C18.0329 12.0858 18.4211 13.0229 18.4211 14C18.4211 14.9771 18.0329 15.9142 17.342 16.6051C16.651 17.2961 15.714 17.6842 14.7368 17.6842C13.7597 17.6842 12.8226 17.2961 12.1317 16.6051C11.4408 15.9142 11.0526 14.9771 11.0526 14C11.0526 13.0229 11.4408 12.0858 12.1317 11.3949C12.8226 10.7039 13.7597 10.3158 14.7368 10.3158ZM22.1053 25.0526H7.36842V23.2105C7.36842 21.1768 10.6695 19.5263 14.7368 19.5263C18.8042 19.5263 22.1053 21.1768 22.1053 23.2105V25.0526Z" fill="#19525A"/>
</svg>
