<svg width="13" height="14" viewBox="0 0 13 14" fill="none" xmlns="http://www.w3.org/2000/svg">
<path fill-rule="evenodd" clip-rule="evenodd" d="M12.25 3.9375V12.25C12.25 12.7141 12.0656 13.1592 11.7374 13.4874C11.4092 13.8156 10.9641 14 10.5 14H9.625V13.125H10.5C10.7321 13.125 10.9546 13.0328 11.1187 12.8687C11.2828 12.7046 11.375 12.4821 11.375 12.25V3.9375H9.625C9.2769 3.9375 8.94306 3.79922 8.69692 3.55308C8.45078 3.30694 8.3125 2.9731 8.3125 2.625V0.875H3.5C3.26794 0.875 3.04538 0.967187 2.88128 1.13128C2.71719 1.29538 2.625 1.51794 2.625 1.75V9.625H1.75V1.75C1.75 1.28587 1.93437 0.840752 2.26256 0.512563C2.59075 0.184374 3.03587 0 3.5 0L8.3125 0L12.25 3.9375ZM1.4 10.3688H0V13.8679H0.692125V12.6936H1.39475C1.64587 12.6936 1.85938 12.6437 2.03525 12.5422C2.21287 12.4399 2.3485 12.3016 2.44038 12.1275C2.53574 11.9448 2.58415 11.7412 2.58125 11.5351C2.58125 11.3164 2.53488 11.1186 2.443 10.9427C2.35162 10.7679 2.2119 10.623 2.0405 10.5254C1.8655 10.4204 1.65288 10.3688 1.4 10.3688ZM1.87687 11.5351C1.88003 11.6504 1.85447 11.7647 1.8025 11.8676C1.75587 11.9573 1.6833 12.0308 1.59425 12.0785C1.49239 12.1289 1.37972 12.1535 1.26612 12.1502H0.6895V10.92H1.267C1.45775 10.92 1.60738 10.9725 1.715 11.0784C1.82263 11.1851 1.87687 11.3374 1.87687 11.5351ZM2.94175 10.3688V13.8679H4.21925C4.57013 13.8679 4.8615 13.7979 5.0925 13.6605C5.32626 13.5206 5.5088 13.3093 5.61312 13.0576C5.72687 12.7951 5.78463 12.4784 5.78463 12.1091C5.78463 11.7416 5.72775 11.4284 5.61312 11.1685C5.51003 10.9198 5.32924 10.711 5.09775 10.5735C4.86675 10.437 4.57363 10.3688 4.21838 10.3688H2.94175ZM3.63387 10.9331H4.1265C4.3435 10.9331 4.52025 10.9769 4.65937 11.0661C4.80378 11.1606 4.91274 11.3003 4.96912 11.4634C5.03825 11.6392 5.07237 11.8589 5.07237 12.1222C5.07509 12.2968 5.05509 12.4709 5.01288 12.6403C4.9817 12.7738 4.92332 12.8995 4.84137 13.0095C4.76524 13.1076 4.66438 13.1837 4.54912 13.23C4.41408 13.2805 4.27065 13.3049 4.1265 13.3018H3.63387V10.9331ZM6.909 12.4757V13.8679H6.21775V10.3688H8.44725V10.9401H6.909V11.9175H8.31425V12.4757H6.909Z" fill="#FF1212"/>
</svg>
