<svg width="13" height="14" viewBox="0 0 13 14" fill="none" xmlns="http://www.w3.org/2000/svg">
<path fill-rule="evenodd" clip-rule="evenodd" d="M12.2446 3.93578V12.2446C12.2446 12.7086 12.0603 13.1535 11.7323 13.4815C11.4043 13.8096 10.9593 13.9939 10.4954 13.9939H9.62079V13.1193H10.4954C10.7274 13.1193 10.9498 13.0271 11.1139 12.8631C11.2779 12.6991 11.37 12.4766 11.37 12.2446V3.93578H9.62079C9.27285 3.93578 8.93915 3.79756 8.69312 3.55152C8.44709 3.30549 8.30887 2.9718 8.30887 2.62385V0.874617H3.49847C3.26651 0.874617 3.04404 0.966764 2.88002 1.13079C2.716 1.29481 2.62385 1.51727 2.62385 1.74923V9.62079H1.74923V1.74923C1.74923 1.28531 1.93353 0.840384 2.26157 0.512339C2.58962 0.184294 3.03454 0 3.49847 0L8.30887 0L12.2446 3.93578ZM5.66052 13.3729C5.60249 13.2497 5.56949 13.1162 5.56344 12.9802H6.23252C6.24457 13.0484 6.2705 13.1134 6.30872 13.1712C6.34693 13.229 6.39661 13.2783 6.45468 13.316C6.5159 13.3589 6.58937 13.3921 6.67333 13.4158C6.75642 13.4402 6.85 13.4516 6.95233 13.4516C7.09577 13.4516 7.21647 13.4315 7.31355 13.3904C7.40275 13.357 7.48026 13.2984 7.53658 13.2216C7.58657 13.1466 7.6125 13.0581 7.61092 12.968C7.6134 12.9131 7.60251 12.8585 7.5792 12.8089C7.55589 12.7592 7.52085 12.7159 7.4771 12.6828C7.38877 12.6129 7.25408 12.5569 7.07303 12.514L6.53164 12.389C6.36504 12.3537 6.20564 12.2904 6.06022 12.2018C5.932 12.123 5.82627 12.0124 5.75323 11.8808C5.67884 11.7397 5.6418 11.5819 5.64566 11.4225C5.64566 11.2091 5.70076 11.0228 5.81183 10.8636C5.92291 10.7053 6.07684 10.582 6.27276 10.4945C6.46954 10.4071 6.69607 10.3642 6.95233 10.3642C7.21909 10.3642 7.44562 10.4079 7.63454 10.4972C7.82345 10.5864 7.96951 10.7062 8.07184 10.8558C8.1768 11.0044 8.23452 11.1697 8.24677 11.3508H7.5908C7.57583 11.2678 7.53968 11.1901 7.48585 11.1251C7.42808 11.0553 7.35384 11.0009 7.26982 10.9668C7.16745 10.9251 7.0576 10.9049 6.94709 10.9074C6.75729 10.9074 6.60773 10.9511 6.49841 11.0403C6.44714 11.0798 6.40587 11.1307 6.37792 11.189C6.34996 11.2474 6.33611 11.3115 6.33748 11.3761C6.33748 11.482 6.37946 11.5686 6.46255 11.6385C6.5673 11.7161 6.68851 11.7685 6.81677 11.7916L7.35903 11.9167C7.54882 11.9604 7.71413 12.0216 7.85406 12.1012C7.98902 12.1749 8.10215 12.2829 8.18204 12.4143C8.26076 12.5438 8.30012 12.7073 8.30012 12.9041C8.30012 13.1201 8.24502 13.3117 8.13569 13.4779C8.01926 13.649 7.85543 13.7824 7.66427 13.8618C7.45961 13.9536 7.20947 14 6.91385 14C6.6917 14 6.49753 13.9738 6.33223 13.9213C6.17992 13.8756 6.03793 13.8007 5.91416 13.7009C5.80738 13.6107 5.72093 13.4989 5.66052 13.3729ZM3.08478 10.4359H2.30374L1.58306 11.6936H1.55157L0.82389 10.4359H0.0104954L1.08365 12.1703L0 13.9335H0.753046L1.49909 12.6959H1.52971L2.27313 13.9335H3.06728L1.97051 12.1922L3.08478 10.4359ZM5.46986 13.344H3.98563V10.4359H3.29468V13.9344H5.46986V13.344Z" fill="#19525A"/>
</svg>
