<svg width="13" height="14" viewBox="0 0 13 14" fill="none" xmlns="http://www.w3.org/2000/svg">
<path fill-rule="evenodd" clip-rule="evenodd" d="M12.2439 3.93553V12.2439C12.2439 12.7078 12.0596 13.1527 11.7316 13.4807C11.4035 13.8087 10.9587 13.993 10.4948 13.993H9.62019V13.1184H10.4948C10.7267 13.1184 10.9492 13.0263 11.1132 12.8623C11.2772 12.6983 11.3693 12.4758 11.3693 12.2439V3.93553H9.62019C9.27227 3.93553 8.93859 3.79732 8.69258 3.5513C8.44656 3.30528 8.30835 2.97161 8.30835 2.62369V0.874563H3.49825C3.2663 0.874563 3.04385 0.966704 2.87984 1.13072C2.71583 1.29473 2.62369 1.51718 2.62369 1.74913V9.62019H1.74913V1.74913C1.74913 1.28523 1.93341 0.840332 2.26143 0.512307C2.58946 0.184282 3.03435 0 3.49825 0L8.30835 0L12.2439 3.93553ZM3.07584 12.9794C3.08084 13.1172 3.11463 13.2524 3.17503 13.3764C3.23543 13.5003 3.3211 13.6103 3.42654 13.6992C3.54023 13.7936 3.67929 13.8671 3.84458 13.9195C4.01075 13.9729 4.20402 13.9991 4.42616 13.9991C4.72176 13.9991 4.97189 13.9528 5.17741 13.8609C5.38381 13.7691 5.54123 13.6406 5.6488 13.4761C5.75812 13.3108 5.81234 13.1193 5.81234 12.9024C5.81234 12.7065 5.77299 12.5439 5.69515 12.4127C5.61511 12.2816 5.502 12.174 5.36719 12.1005C5.21228 12.0149 5.04543 11.953 4.87219 11.9168L4.32909 11.7909C4.20106 11.7673 4.08017 11.7147 3.97576 11.6369C3.93586 11.6062 3.9037 11.5665 3.88183 11.5211C3.85997 11.4757 3.84901 11.4258 3.84983 11.3754C3.84983 11.239 3.90405 11.1271 4.01162 11.0396C4.12094 10.9513 4.27049 10.9067 4.4594 10.9067C4.58446 10.9067 4.69203 10.9268 4.78298 10.9661C4.8667 11.0003 4.94063 11.0547 4.99813 11.1244C5.05195 11.1894 5.0881 11.2671 5.10307 11.3501H5.759C5.74808 11.172 5.68749 11.0005 5.58408 10.8551C5.47355 10.6981 5.32239 10.5741 5.1468 10.4965C4.93204 10.4023 4.69906 10.3569 4.46464 10.3636C4.2084 10.3636 3.98276 10.4073 3.78598 10.4948C3.58921 10.5813 3.43616 10.7046 3.32509 10.8629C3.21402 11.0221 3.15892 11.2084 3.15892 11.4218C3.15892 11.5976 3.1939 11.7506 3.26562 11.8801C3.33733 12.0104 3.44053 12.1162 3.57346 12.201C3.7064 12.2841 3.86382 12.3471 4.04485 12.3873L4.58533 12.5132C4.76637 12.5561 4.90105 12.6121 4.99026 12.682C5.03384 12.7152 5.0687 12.7585 5.09186 12.8082C5.11501 12.8579 5.12576 12.9124 5.12319 12.9671C5.12488 13.0573 5.09894 13.1458 5.04885 13.2208C4.99254 13.2975 4.91503 13.3562 4.82584 13.3896C4.72876 13.4307 4.60807 13.4508 4.46464 13.4508C4.36232 13.4508 4.26962 13.4394 4.18478 13.4158C4.10747 13.3944 4.0342 13.3604 3.96789 13.3152C3.90967 13.2775 3.85982 13.2283 3.82146 13.1705C3.78309 13.1127 3.75702 13.0477 3.74488 12.9794H3.07584ZM0.704898 11.9754C0.704898 11.7585 0.734633 11.5731 0.794103 11.4218C0.845978 11.2821 0.937835 11.1607 1.05822 11.0728C1.18092 10.9908 1.32609 10.9489 1.47364 10.953C1.60482 10.953 1.72114 10.981 1.82171 11.0379C1.92028 11.0905 2.00254 11.1692 2.0596 11.2652C2.12055 11.3664 2.15653 11.4806 2.16454 11.5985H2.83358V11.5355C2.82778 11.3744 2.78856 11.2163 2.7184 11.0711C2.64824 10.926 2.54868 10.797 2.42604 10.6924C2.3004 10.5859 2.1551 10.5051 1.99838 10.4545C1.82772 10.3967 1.64856 10.3681 1.46839 10.3697C1.15705 10.3697 0.89118 10.4344 0.671664 10.5647C0.453024 10.6942 0.286857 10.8787 0.171414 11.1174C0.0577211 11.3571 0 11.6422 0 11.9736V12.4092C0 12.7406 0.055972 13.0249 0.168791 13.2627C0.283358 13.4998 0.4504 13.6825 0.669041 13.8102C0.887681 13.937 1.15355 14 1.46839 14C1.72464 14 1.9529 13.9519 2.15492 13.8566C2.35607 13.7604 2.51699 13.6292 2.63593 13.4595C2.75659 13.2859 2.82516 13.0814 2.83358 12.8701V12.8036H2.16542C2.15717 12.9162 2.12176 13.0251 2.06222 13.1211C2.00394 13.2139 1.92178 13.2894 1.82434 13.3397C1.71513 13.3925 1.59492 13.4186 1.47364 13.4158C1.32588 13.42 1.18026 13.3798 1.0556 13.3004C0.935837 13.2151 0.844679 13.0956 0.794103 12.9575C0.730158 12.782 0.699894 12.5959 0.704898 12.4092V11.9763V11.9754ZM7.91042 13.9327H7.07696L5.9068 10.4353H6.70877L7.49238 13.1797H7.52561L8.30223 10.4353H9.07096L7.91042 13.9335V13.9327Z" fill="#19525A"/>
</svg>
