<svg width="20" height="20" viewBox="0 0 20 20" fill="none" xmlns="http://www.w3.org/2000/svg">
<path d="M14.6784 12.9285C15.8888 11.2768 16.4309 9.2289 16.1963 7.19459C15.9617 5.16028 14.9677 3.28957 13.4132 1.95672C11.8587 0.623876 9.8583 -0.0728161 7.81224 0.0060305C5.76618 0.0848771 3.82533 0.933448 2.37798 2.38197C0.930643 3.8305 0.0835485 5.77216 0.00617416 7.81849C-0.0712002 9.86482 0.626852 11.8649 1.96067 13.4186C3.2945 14.9723 5.16573 15.9651 7.19999 16.1982C9.23426 16.4314 11.2815 15.8878 12.9323 14.6761H12.931C12.9685 14.7261 13.0085 14.7737 13.0535 14.8199L17.8658 19.6327C18.1002 19.8673 18.4181 19.9991 18.7497 19.9992C19.0813 19.9994 19.3993 19.8677 19.6339 19.6333C19.8684 19.3989 20.0002 19.081 20.0004 18.7494C20.0005 18.4177 19.8689 18.0997 19.6345 17.8651L14.8222 13.0523C14.7775 13.007 14.7294 12.9653 14.6784 12.9273V12.9285ZM15.0009 8.12322C15.0009 9.02611 14.8231 9.92017 14.4776 10.7543C14.1321 11.5885 13.6257 12.3464 12.9874 12.9849C12.349 13.6233 11.5911 14.1298 10.757 14.4753C9.92295 14.8208 9.02899 14.9987 8.12618 14.9987C7.22338 14.9987 6.32942 14.8208 5.49533 14.4753C4.66125 14.1298 3.90339 13.6233 3.26501 12.9849C2.62663 12.3464 2.12024 11.5885 1.77475 10.7543C1.42926 9.92017 1.25144 9.02611 1.25144 8.12322C1.25144 6.29973 1.97574 4.55094 3.26501 3.26154C4.55427 1.97214 6.30289 1.24777 8.12618 1.24777C9.94948 1.24777 11.6981 1.97214 12.9874 3.26154C14.2766 4.55094 15.0009 6.29973 15.0009 8.12322Z" fill="#5B5B5B"/>
</svg>
