<svg width="24" height="16" viewBox="0 0 24 16" fill="none" xmlns="http://www.w3.org/2000/svg">
<path d="M16.484 7.90573L22.635 2.60881V13.1422L16.484 7.90573ZM8.558 8.80275L10.718 10.6612C11.057 10.9467 11.499 11.1192 11.982 11.1192H11.999H11.998H12.012C12.496 11.1192 12.938 10.9457 13.281 10.6583L13.278 10.6602L15.438 8.80176L22.004 14.3911H1.995L8.558 8.80275ZM1.986 1.35297H22.016L12.395 9.63535C12.2868 9.72016 12.1529 9.76626 12.015 9.76619H12.001H12.002H11.988C11.8496 9.76636 11.7152 9.71988 11.607 9.63436L11.608 9.63535L1.986 1.35297ZM1.365 2.60782L7.515 7.90474L1.365 13.1382V2.60782ZM22.965 0.188326C22.725 0.0693833 22.443 0 22.144 0H1.859C1.56916 6.8625e-05 1.28331 0.0669158 1.024 0.195264L1.035 0.190308C0.724573 0.342071 0.463148 0.576851 0.280254 0.868129C0.0973606 1.15941 0.000287348 1.49557 0 1.83866L0 13.9034C0.000529404 14.3917 0.196452 14.8598 0.54478 15.2051C0.893108 15.5503 1.36539 15.7445 1.858 15.745H22.141C22.6336 15.7445 23.1059 15.5503 23.4542 15.2051C23.8025 14.8598 23.9985 14.3917 23.999 13.9034V1.83866C23.999 1.11806 23.58 0.493613 22.97 0.193282L22.959 0.188326H22.965Z" fill="#5B5B5B"/>
</svg>
