<svg width="20" height="20" viewBox="0 0 20 20" fill="none" xmlns="http://www.w3.org/2000/svg">
<path d="M19.9 17.7536L19.6733 17.5536C19.0303 16.9807 18.4674 16.3236 18 15.6003C17.4895 14.602 17.1835 13.5117 17.1 12.3936V9.10026C17.1044 7.344 16.4673 5.64658 15.3085 4.32691C14.1496 3.00724 12.5488 2.15617 10.8067 1.93359V1.07359C10.8067 0.837551 10.7129 0.611176 10.546 0.444269C10.3791 0.277361 10.1527 0.183594 9.91666 0.183594C9.68062 0.183594 9.45424 0.277361 9.28733 0.444269C9.12043 0.611176 9.02666 0.837551 9.02666 1.07359V1.94693C7.30016 2.18555 5.71864 3.04176 4.57501 4.357C3.43138 5.67223 2.80315 7.35736 2.80666 9.10026V12.3936C2.72316 13.5117 2.41718 14.602 1.90666 15.6003C1.44725 16.3218 0.893455 16.9788 0.259992 17.5536L0.0333252 17.7536V19.6336H19.9V17.7536Z" fill="#424242"/>
</svg>
