<svg width="22" height="22" viewBox="0 0 22 22" fill="none" xmlns="http://www.w3.org/2000/svg">
<path d="M9.55423 5.20364L6.17123 1.33305C5.78123 0.887011 5.06623 0.888993 4.61323 1.33899L1.83123 4.10144C1.00323 4.92313 0.766232 6.14329 1.24523 7.12159C4.10685 12.9944 8.88528 17.7373 14.8062 20.5819C15.7922 21.0567 17.0222 20.8218 17.8502 20.0001L20.6582 17.2119C21.1132 16.7609 21.1142 16.0482 20.6602 15.6617L16.7402 12.3263C16.3302 11.9774 15.6932 12.023 15.2822 12.4314L13.9182 13.7854C13.8484 13.8579 13.7565 13.9057 13.6566 13.9215C13.5567 13.9372 13.4543 13.9201 13.3652 13.8726C11.1357 12.6 9.28622 10.7644 8.00523 8.55287C7.95726 8.46441 7.93989 8.36279 7.95578 8.2636C7.97168 8.16441 8.01996 8.07313 8.09323 8.00375L9.45323 6.65474C9.86523 6.24439 9.91023 5.61003 9.55423 5.20265V5.20364Z" stroke="#5B5B5B" stroke-width="2" stroke-linecap="round" stroke-linejoin="round"/>
</svg>
