<svg width="21" height="21" viewBox="0 0 21 21" fill="none" xmlns="http://www.w3.org/2000/svg">
<path d="M4.77271 13.3613H15.2727V19.0886H4.77271V13.3613Z" fill="#19525A"/>
<path d="M3.34085 13.3572C4.39521 13.3572 5.24993 12.5025 5.24993 11.4481C5.24993 10.3938 4.39521 9.53906 3.34085 9.53906C2.28649 9.53906 1.43176 10.3938 1.43176 11.4481C1.43176 12.5025 2.28649 13.3572 3.34085 13.3572Z" fill="#FFA726"/>
<path d="M16.7044 13.3572C17.7587 13.3572 18.6135 12.5025 18.6135 11.4481C18.6135 10.3938 17.7587 9.53906 16.7044 9.53906C15.65 9.53906 14.7953 10.3938 14.7953 11.4481C14.7953 12.5025 15.65 13.3572 16.7044 13.3572Z" fill="#FFA726"/>
<path d="M17.1817 8.11531C17.1817 2.05396 2.86353 4.15395 2.86353 8.11531V12.888C2.86353 16.8494 6.06124 20.0471 10.0226 20.0471C13.984 20.0471 17.1817 16.8494 17.1817 12.888V8.11531Z" fill="#FFB74D"/>
<path d="M12.8864 12.4091C13.4136 12.4091 13.841 11.9817 13.841 11.4545C13.841 10.9274 13.4136 10.5 12.8864 10.5C12.3592 10.5 11.9319 10.9274 11.9319 11.4545C11.9319 11.9817 12.3592 12.4091 12.8864 12.4091Z" fill="#784719"/>
<path d="M7.15913 12.4091C7.68631 12.4091 8.11368 11.9817 8.11368 11.4545C8.11368 10.9274 7.68631 10.5 7.15913 10.5C6.63195 10.5 6.20459 10.9274 6.20459 11.4545C6.20459 11.9817 6.63195 12.4091 7.15913 12.4091Z" fill="#784719"/>
<path d="M10.0227 0C5.96589 0 0 2.76817 0 16.0363L4.77272 19.0909V10.5L12.7909 5.82271L15.2727 9.06816V19.0909L20.0454 15.1772C20.0454 12.5045 19.6159 1.33636 12.6954 1.33636L12.0272 0H10.0227Z" fill="#19525A"/>
<path d="M20.0454 10.5C19.759 10.5 19.5681 10.6909 19.5681 10.9772V7.63634C19.5681 3.43635 16.1318 0 11.9318 0H7.63633C7.34997 0 7.15906 0.190909 7.15906 0.477272C7.15906 0.763634 7.34997 0.954543 7.63633 0.954543H11.9318C15.6068 0.954543 18.6136 3.96135 18.6136 7.63634V12.4091C18.6136 12.6954 18.8045 12.8863 19.0908 12.8863C19.3772 12.8863 19.5681 12.6954 19.5681 12.4091V13.3636C19.5681 15.225 18.0886 16.7045 16.2272 16.7045H10.0227C9.73632 16.7045 9.54542 16.8954 9.54542 17.1818C9.54542 17.4681 9.73632 17.659 10.0227 17.659H16.2272C18.6136 17.659 20.5227 15.75 20.5227 13.3636V10.9772C20.5227 10.6909 20.3318 10.5 20.0454 10.5Z" fill="#757575"/>
<path d="M20.0455 9.53906H19.5682C19.0432 9.53906 18.6136 9.96861 18.6136 10.4936V12.4027C18.6136 12.9277 19.0432 13.3572 19.5682 13.3572H20.0455C20.5705 13.3572 21 12.9277 21 12.4027V10.4936C21 9.96861 20.5705 9.53906 20.0455 9.53906Z" fill="#37474F"/>
<path d="M10.0228 18.1298C10.55 18.1298 10.9773 17.7024 10.9773 17.1752C10.9773 16.6481 10.55 16.2207 10.0228 16.2207C9.4956 16.2207 9.06824 16.6481 9.06824 17.1752C9.06824 17.7024 9.4956 18.1298 10.0228 18.1298Z" fill="#37474F"/>
</svg>
