<svg width="16" height="16" viewBox="0 0 16 16" fill="none" xmlns="http://www.w3.org/2000/svg">
<path d="M11.7429 10.3432C12.7112 9.02177 13.1449 7.3834 12.9572 5.75589C12.7695 4.12838 11.9743 2.63176 10.7307 1.56544C9.48701 0.49912 7.88665 -0.0582551 6.24973 0.00482458C4.61282 0.0679042 3.06008 0.746787 1.90217 1.90565C0.744249 3.06452 0.0665484 4.6179 0.00464653 6.25503C-0.0572553 7.89215 0.501207 9.49229 1.56831 10.7353C2.6354 11.9783 4.13244 12.7725 5.75992 12.9591C7.38739 13.1456 9.02528 12.7107 10.3459 11.7414H10.3449C10.3749 11.7814 10.4069 11.8194 10.4429 11.8564L14.2929 15.7068C14.4804 15.8944 14.7348 15.9999 15 16C15.2653 16.0001 15.5198 15.8948 15.7074 15.7073C15.895 15.5197 16.0005 15.2653 16.0006 15C16.0007 14.7348 15.8954 14.4803 15.7079 14.2926L11.8579 10.4422C11.8221 10.406 11.7837 10.3726 11.7429 10.3422V10.3432ZM12.0009 6.49882C12.0009 7.22116 11.8586 7.93643 11.5822 8.60379C11.3058 9.27115 10.9007 9.87753 10.39 10.3883C9.87926 10.8991 9.27295 11.3043 8.60566 11.5807C7.93837 11.8571 7.22317 11.9994 6.5009 11.9994C5.77863 11.9994 5.06343 11.8571 4.39614 11.5807C3.72885 11.3043 3.12253 10.8991 2.61181 10.3883C2.10109 9.87753 1.69596 9.27115 1.41956 8.60379C1.14316 7.93643 1.0009 7.22116 1.0009 6.49882C1.0009 5.03998 1.58036 3.64089 2.61181 2.60933C3.64326 1.57777 5.04221 0.998251 6.5009 0.998251C7.95959 0.998251 9.35853 1.57777 10.39 2.60933C11.4214 3.64089 12.0009 5.03998 12.0009 6.49882Z" fill="white"/>
</svg>
