<svg width="52" height="44" viewBox="0 0 52 44" fill="none" xmlns="http://www.w3.org/2000/svg">
<g filter="url(#filter0_d_5361_6015)">
<path d="M19.8188 18.8234C19.8188 18.8234 26.7375 10.0445 17.6844 6.7399C8.63254 3.43654 13.23 5.75479 6.35317 2.06641C6.35317 2.06641 5.15005 4.08367 8.30504 8.15957L6.4488 7.9263C6.4488 7.9263 5.94317 10.9632 10.7775 11.762L8.72692 12.5904C8.72692 12.5904 10.4013 14.4653 13.2807 13.9361L12.1438 15.2278C12.1438 15.2278 13.4457 16.4776 16.0375 15.135L15.1582 16.1082C15.1582 16.1082 16.8925 17.6815 18.7907 16.7183C18.7907 16.7183 20.3688 16.3747 19.8188 18.8234Z" fill="#B3B3B3"/>
<path d="M19.8439 17.279C19.8439 17.279 25.377 10.2597 18.1382 7.61725C10.9014 4.97731 14.577 6.83029 9.07825 3.88184C9.07825 3.88184 8.117 5.49464 10.6395 8.75474L9.15513 8.5685C9.15513 8.5685 8.75075 10.9952 12.6158 11.6348L10.9764 12.2964C10.9764 12.2964 12.3151 13.7963 14.6176 13.3724L13.7076 14.4046C13.7076 14.4046 14.7495 15.4047 16.8214 14.3312L16.1189 15.1106C16.1189 15.1106 17.5051 16.3648 19.0232 15.596C19.0232 15.596 20.2857 15.3207 19.8439 17.279Z" fill="#E6E6E6"/>
<path fill-rule="evenodd" clip-rule="evenodd" d="M27.702 24.4682C26.897 21.8139 27.6983 24.5171 26.887 21.9662C26.6333 21.1674 26.307 20.3628 25.8877 19.6869C25.6064 19.2335 25.1227 18.8341 24.6945 18.6992C23.567 18.3437 22.4214 18.0966 21.2795 17.8953C19.5264 17.5868 17.7677 17.4 16.0527 16.655C15.967 16.618 15.882 16.5741 15.7227 16.4957C15.867 16.1991 15.9745 15.9 16.1383 15.6774C16.3464 15.3952 16.5827 15.1457 16.8383 14.9394C17.5964 14.3318 18.2708 13.6138 18.8045 12.682C18.9133 12.4957 19.0477 12.3339 19.1745 12.1671C19.5508 11.6818 20.0052 11.515 20.5427 11.8116C21.0933 12.1182 21.5945 12.1377 22.1352 11.8655C22.7827 11.542 23.4983 11.7382 24.1827 11.9514C25.1083 12.2361 26.0195 12.6161 26.9439 12.8801C27.5145 13.0394 28.0983 13.0757 28.6752 13.1472C29.3064 13.2181 29.822 13.6276 30.2927 14.1718C30.9727 14.9632 31.4702 15.9464 31.7633 17.02C32.1195 18.3236 32.0464 16.8212 31.9233 17.5812C32.2252 18.6547 31.7608 19.3163 31.1914 20.0054C30.2152 21.1868 29.3414 22.508 28.4095 23.7552C28.2183 24.0098 27.9752 24.1961 27.702 24.4682ZM21.9327 13.6376C21.7395 12.9215 21.5195 12.7089 21.0339 12.8212C20.7945 12.8751 20.5627 13.0149 20.3645 13.1867C20.1858 13.346 20.0458 13.3999 19.822 13.2651C19.7214 13.2062 19.5702 13.3216 19.442 13.3579C19.5214 13.5097 19.5739 13.7329 19.6802 13.8019C19.9414 13.9712 20.0652 14.1769 20.0977 14.5644C20.1683 15.3463 20.5658 15.863 21.1702 16.0273C21.7908 16.1941 22.3064 15.9634 22.7483 15.4611C22.8227 15.3752 22.9302 15.2529 23.012 15.2723C23.3152 15.3482 23.6139 15.478 23.9783 15.611C23.7058 15.8336 23.4933 15.9859 23.3008 16.1722C22.9077 16.5522 22.932 17.0055 23.3983 17.3536C23.5914 17.4978 23.9052 17.5937 24.0727 17.4909C24.5082 17.2194 24.9021 16.8859 25.242 16.5008C25.4508 16.2681 25.5902 16.0963 25.9002 16.285C26.0464 16.376 26.2408 16.317 26.4133 16.322C26.4277 16.2537 26.4427 16.1797 26.4583 16.1088C26.2764 15.9615 26.1027 15.7752 25.9102 15.6774C25.7027 15.5721 25.602 15.4761 25.5852 15.1551C25.5327 14.2063 25.087 13.6232 24.3552 13.4959C23.702 13.3855 23.0789 13.5178 22.607 14.0571C22.3383 14.3662 22.1158 14.2948 21.8352 14.1355C21.7083 14.0665 21.5745 14.0276 21.4452 13.9712C21.4539 13.9273 21.4608 13.8828 21.4708 13.8414C21.6177 13.7743 21.7658 13.711 21.9327 13.6376ZM29.232 16.4067C28.9527 16.2154 28.6827 16.0267 28.3995 15.8311C28.3214 16.2725 28.5427 16.4192 28.7452 16.5497C28.9389 16.6719 29.137 16.7108 29.232 16.4067ZM29.2639 15.8336C29.122 15.5075 28.9977 15.2353 28.8295 14.8553C28.6495 15.6473 28.6902 15.7282 29.2639 15.8336Z" fill="#E6A42E"/>
<path d="M28.9596 23.0142C28.1533 20.3624 28.9589 23.0631 28.1421 20.5116C27.8883 19.7127 27.5621 18.9082 27.1414 18.2347C26.8621 17.7789 26.3783 17.3794 25.9496 17.2446C25.5986 17.1343 25.2448 17.0337 24.8883 16.943C24.6388 17.1771 24.3666 17.3857 24.0758 17.5657C23.9096 17.6685 23.5958 17.5757 23.4027 17.4308C23.0533 17.1687 22.9508 16.8477 23.0877 16.5417C22.9032 16.5065 22.7184 16.4728 22.5333 16.4407C20.7821 16.1322 19.0252 15.9453 17.3077 15.2004C17.2221 15.1634 17.1389 15.1195 16.9783 15.0436C17.0164 14.9677 17.0514 14.8894 17.0858 14.8135C17.007 14.8826 16.9264 14.9495 16.8439 15.0141C16.5796 15.229 16.3439 15.477 16.1427 15.7522C15.9789 15.9773 15.8714 16.2764 15.7271 16.5736C15.8858 16.6495 15.9714 16.6934 16.0571 16.7304C17.7721 17.4779 19.5308 17.6616 21.2839 17.9707C22.4258 18.172 23.5714 18.4216 24.6989 18.7771C25.1277 18.912 25.6102 19.3114 25.8908 19.7623C26.3096 20.4389 26.6371 21.2453 26.8914 22.0416C27.7014 24.5925 26.9014 21.8893 27.7064 24.5436C27.9802 24.2715 28.2227 24.0859 28.4139 23.8331C28.6546 23.5064 28.8927 23.181 29.1296 22.8505C29.0733 22.9038 29.0171 22.9578 28.9596 23.0142Z" fill="#C4872B"/>
<path fill-rule="evenodd" clip-rule="evenodd" d="M9.44678 25.6429C9.9424 25.081 10.3455 24.5173 10.8293 24.1034C12.3843 22.7753 13.6949 21.0885 15.0374 19.4538C15.5099 18.8756 15.8324 18.0836 16.2624 17.3167C19.1368 18.2579 22.1912 18.1965 25.123 19.5152C24.6099 20.1648 24.0899 20.7693 23.6218 21.4365C22.9968 22.3238 22.4137 23.26 21.803 24.1668C21.0364 25.3113 20.2651 26.4528 19.4893 27.5912C18.7293 28.7061 17.8112 28.9563 16.6274 28.3969C14.6619 27.4688 12.6048 26.75 10.4899 26.2524C10.1818 26.1765 9.88865 25.9075 9.44678 25.6429ZM23.0374 11.0787C23.4774 10.6993 23.8899 10.2698 24.3568 9.95124C25.228 9.36305 25.9568 8.55916 26.663 7.69632C27.1049 7.15203 27.6037 6.67923 28.0918 6.19639C28.3599 5.92926 28.6224 5.91734 28.9787 6.18635C30.2993 7.18401 31.7368 7.522 33.1843 7.73834C33.8387 7.83616 34.4949 7.8951 35.2155 7.9785C35.0524 8.17916 34.9293 8.34847 34.7924 8.49583C33.4699 9.92992 32.1443 11.3565 30.8224 12.79C30.4918 13.1505 30.1343 13.1819 29.683 13.0521C27.6837 12.4714 25.6755 11.944 23.6724 11.3954C23.4743 11.3414 23.278 11.2681 23.0812 11.2041L23.0374 11.0787Z" fill="#4FBA80"/>
<path fill-rule="evenodd" clip-rule="evenodd" d="M9.918 26.1919C11.2692 26.3192 12.5661 26.908 13.8705 27.4247C14.7942 27.7903 15.7199 28.1653 16.6442 28.5258C17.6492 28.9203 18.5024 28.6362 19.1692 27.7169C20.0657 26.4791 20.9416 25.2265 21.7967 23.9596C22.4467 22.9939 23.0467 21.9793 23.6842 21.0061C24.1092 20.3565 24.6242 19.8812 25.328 19.7783C25.5011 20.1953 25.3405 20.4719 25.1536 20.7246C24.5224 21.5629 23.8724 22.3712 23.2599 23.2322C22.2592 24.6318 21.2992 26.0803 20.2955 27.4749C19.8286 28.1195 19.3124 28.7108 18.7855 29.2764C18.3467 29.7499 17.7786 29.7743 17.2167 29.632C16.628 29.4821 16.0492 29.2225 15.463 29.0557C14.4661 28.7691 13.4649 28.5164 12.4642 28.2468C11.8786 28.0838 11.2849 27.9515 10.7049 27.7364C10.143 27.5276 9.88862 26.9808 9.9155 26.1919" fill="#338455"/>
<path fill-rule="evenodd" clip-rule="evenodd" d="M11.5942 29.2186C13.3186 29.6576 15.0399 30.03 16.7436 30.5549C17.5474 30.8001 18.2092 30.7436 18.7442 30.0426C19.6017 28.9226 20.4217 27.7563 21.2567 26.6088C22.5192 24.8781 23.7755 23.1474 25.0442 21.4249C25.2067 21.1991 25.3986 21.0104 25.5755 20.8047C25.9174 21.4173 25.9199 21.6675 25.5961 22.1334C23.763 24.7928 21.9292 27.4541 20.0836 30.1015C19.8199 30.484 19.4999 30.8001 19.1992 31.138C18.7642 31.6259 18.2317 31.7877 17.6617 31.5086C16.373 30.8753 15.033 30.9104 13.7249 30.5135C13.2692 30.3755 12.7942 30.4295 12.3299 30.3342C11.8355 30.2332 11.6099 29.8802 11.5955 29.2186" fill="#338455"/>
<path fill-rule="evenodd" clip-rule="evenodd" d="M10.778 27.8206C10.9636 27.8331 11.1518 27.8206 11.3374 27.862C12.9424 28.2244 14.5574 28.4671 16.1205 29.276C16.8386 29.6491 17.6349 29.8717 18.3399 29.4623C18.7811 29.2052 19.1836 28.7863 19.5255 28.3373C20.7755 26.6831 21.998 24.9919 23.2218 23.3083C23.743 22.5928 24.2268 21.8328 24.7643 21.1393C25.0193 20.8082 25.3593 20.5906 25.6624 20.3203C25.7036 20.3717 25.7455 20.4232 25.7868 20.4727C25.6893 20.7078 25.6218 20.9825 25.4874 21.1737C23.7677 23.6429 22.0354 26.1031 20.2905 28.5543C19.7971 29.2398 19.2606 29.8931 18.6843 30.5101C18.4924 30.7183 18.153 30.8556 17.9018 30.7916C15.7824 30.2473 13.6705 29.6498 11.5574 29.0685C11.0686 28.9362 10.7693 28.5856 10.778 27.8231" fill="#338455"/>
<path fill-rule="evenodd" clip-rule="evenodd" d="M12.8067 29.8711C14.4617 30.3025 16.0898 30.7145 17.7123 31.1628C18.293 31.3246 18.8011 31.2487 19.1942 30.722C20.3355 29.197 21.4786 27.6707 22.5949 26.1137C23.5036 24.842 24.3711 23.5177 25.2699 22.2291C25.463 21.95 25.7036 21.7193 25.9355 21.4521C26.3055 22.31 26.308 22.3125 25.8599 22.8148C24.3586 24.4884 23.1824 26.542 21.918 28.4959C21.1261 29.7193 20.2667 30.8612 19.4411 32.0451C19.2899 32.2658 19.1199 32.2878 18.883 32.2533C17.548 32.0577 16.2117 31.9228 14.8792 31.7147C14.2767 31.6218 13.6786 31.4105 13.0761 31.2563C12.7448 31.1704 12.6117 30.9572 12.7255 30.5339C12.7705 30.3709 12.7705 30.1871 12.8067 29.8711Z" fill="#338455"/>
<path fill-rule="evenodd" clip-rule="evenodd" d="M14.0054 31.8522C14.2666 31.8227 14.526 31.7569 14.7891 31.7713C15.4416 31.8102 16.101 31.923 16.7522 31.9356C17.3104 31.9456 17.8654 31.8378 18.4235 31.8202C18.8085 31.8077 19.2072 31.7907 19.5835 31.9111C20.5691 32.2247 21.246 31.8252 21.6797 30.7398C22.6729 28.2491 24.2904 26.4406 25.6935 24.4064C25.9241 24.071 26.171 23.7499 26.4079 23.4238C26.8454 23.8872 26.8916 24.4579 26.5972 24.9018C25.6179 26.3698 24.6735 27.8797 23.6791 29.3289C22.9288 30.4116 22.1455 31.471 21.3304 32.5056C20.8941 33.0618 20.3204 33.3283 19.6666 33.211C17.9066 32.8831 16.1466 32.53 14.3891 32.1789C14.2654 32.1569 14.146 32.0735 14.0247 32.0196C14.0172 31.9657 14.0097 31.9117 14.0054 31.8553" fill="#338455"/>
<path fill-rule="evenodd" clip-rule="evenodd" d="M19.4404 31.8584C21.1467 29.2599 22.8142 26.687 24.5167 24.155C24.9273 23.5442 25.4411 23.0545 25.9236 22.5371C26.0336 22.4218 26.3254 22.3434 26.3411 22.3754C26.4629 22.6626 26.6979 22.9491 26.4873 23.2996C26.1298 23.8903 25.7961 24.5105 25.4198 25.0792C24.7454 26.1039 24.0248 27.0746 23.3667 28.1136C22.8329 28.9595 22.3198 29.8393 21.8729 30.7705C21.4236 31.7117 20.8554 32.2014 19.9354 31.9029C19.7911 31.8559 19.6386 31.8728 19.4404 31.8584Z" fill="#338455"/>
<path fill-rule="evenodd" clip-rule="evenodd" d="M25.3306 19.7744C24.6269 19.8773 24.1113 20.3526 23.6869 21.0022C23.0488 21.9754 22.4456 22.99 21.7994 23.9557C20.9444 25.2227 20.0685 26.4753 19.1719 27.713C18.8775 28.1194 18.5469 28.404 18.1763 28.5589C18.2688 28.8825 18.3744 29.2029 18.4869 29.5196C18.5944 29.4575 18.6969 29.3766 18.7925 29.2713C19.3188 28.7057 19.8356 28.1143 20.3025 27.4697C21.3063 26.0751 22.2669 24.6272 23.2669 23.227C23.8788 22.3667 24.5294 21.5578 25.1606 20.7194C25.3469 20.4679 25.5081 20.1908 25.3344 19.7744M25.575 20.8034C25.3981 21.0097 25.2063 21.1978 25.0438 21.4236C23.7788 23.1468 22.5188 24.8768 21.2563 26.6075C20.4194 27.7544 19.6 28.9207 18.7438 30.0413C18.7313 30.0582 18.7169 30.0733 18.705 30.0877C18.8569 30.4476 19.0225 30.7938 19.2056 31.1268C19.5038 30.7938 19.8213 30.4771 20.0825 30.0996C21.9281 27.4522 23.7619 24.7909 25.595 22.1315C25.9181 21.6663 25.9156 21.4161 25.5738 20.8034" fill="#276C43"/>
<path fill-rule="evenodd" clip-rule="evenodd" d="M25.6631 20.3199C25.36 20.5895 25.0206 20.8077 24.765 21.1388C24.2275 21.8324 23.7438 22.5924 23.2225 23.3078C21.9988 24.994 20.7769 26.6858 19.5263 28.3369C19.2138 28.7514 18.8425 29.1383 18.4419 29.3954C18.5544 29.7239 18.6825 30.0425 18.8219 30.356C19.3475 29.7843 19.8382 29.1813 20.2913 28.5501C22.0356 26.1064 23.765 23.6383 25.4881 21.1696C25.6225 20.9783 25.69 20.7037 25.7875 20.4685C25.7453 20.4188 25.7038 20.3684 25.6631 20.3174M25.935 21.453C25.7031 21.7201 25.4625 21.9503 25.2694 22.2299C24.3706 23.5192 23.5031 24.8429 22.5944 26.1146C21.4781 27.6709 20.335 29.1978 19.1938 30.7229C19.1548 30.7738 19.1133 30.8228 19.0694 30.8696C19.2356 31.1932 19.4188 31.5048 19.6188 31.7964C20.3881 30.7009 21.1831 29.6349 21.9175 28.4968C23.1819 26.5435 24.3581 24.4892 25.8594 22.8156C26.3081 22.3133 26.3056 22.3108 25.935 21.453ZM26.4081 23.4176C26.1713 23.7443 25.9244 24.0647 25.6938 24.4002C24.29 26.4369 22.6731 28.246 21.68 30.7335C21.2688 31.7675 20.6369 32.177 19.7244 31.9444C20.01 32.3451 20.3403 32.7118 20.7088 33.0373C20.9363 32.9126 21.1463 32.7288 21.3306 32.4962C22.1458 31.4617 22.9291 30.4023 23.6794 29.3195C24.6738 27.871 25.6181 26.361 26.5975 24.8924C26.8919 24.4485 26.8456 23.8778 26.4081 23.4144" fill="#276C43"/>
<path fill-rule="evenodd" clip-rule="evenodd" d="M26.342 22.375C26.3263 22.3431 26.0338 22.4221 25.9245 22.5368C25.442 23.0542 24.9276 23.5439 24.5176 24.1546C22.8507 26.6328 21.217 29.1523 19.5488 31.6919C19.5876 31.7509 19.627 31.8098 19.6663 31.8656C19.7645 31.8682 19.852 31.8732 19.9376 31.9001C20.8576 32.1992 21.4251 31.7089 21.8751 30.7677C22.322 29.8365 22.8351 28.9561 23.3688 28.1108C24.027 27.0717 24.7482 26.1011 25.422 25.0764C25.7982 24.5077 26.132 23.8875 26.4895 23.2968C26.6988 22.9469 26.4645 22.6597 26.342 22.3732M30.9326 13.8482C30.7738 13.6401 30.637 13.4607 30.4713 13.2456C30.6276 13.0594 30.7682 12.8782 30.9182 12.7064C32.1176 11.3481 33.327 10.0125 34.5032 8.62795C34.8095 8.2655 35.1126 8.24857 35.4645 8.38277C35.6695 9.08131 35.5207 9.56917 35.1076 9.95607C33.747 11.2259 32.4013 12.5151 31.0501 13.7968C31.0226 13.8238 30.9813 13.8257 30.9326 13.8482Z" fill="#276C43"/>
<path fill-rule="evenodd" clip-rule="evenodd" d="M31.1939 14.3376C30.9414 13.4064 30.9389 13.4039 31.4402 12.9405C32.6759 11.7956 33.9177 10.6575 35.1658 9.52613C35.2745 9.42831 35.4414 9.40135 35.5845 9.40824C36.0189 9.42267 36.2158 9.81521 35.9739 10.2636C35.7808 10.6335 35.5333 10.9916 35.2439 11.2192C34.197 12.0425 33.1214 12.805 32.0614 13.5989C31.887 13.7312 31.7295 13.9049 31.557 14.0523C31.442 14.1539 31.3202 14.2398 31.1939 14.3376ZM36.0314 11.7936C36.2602 12.235 36.1639 12.6219 35.9189 12.879C35.4377 13.3863 34.9195 13.8447 34.4108 14.3106C33.6339 15.0211 32.8495 15.7246 32.0689 16.4257C32.0127 16.4771 31.9445 16.5116 31.8514 16.5756C31.7708 16.1786 31.672 15.8181 31.6314 15.455C31.6145 15.3202 31.702 15.122 31.7952 15.043C32.3852 14.5282 32.9777 14.0159 33.5908 13.5506C34.3827 12.953 35.1939 12.3943 36.0314 11.7936Z" fill="#276C43"/>
<path fill-rule="evenodd" clip-rule="evenodd" d="M30.9612 13.9145C30.7768 13.3878 30.8805 13.0323 31.1493 12.7651C31.9899 11.9293 32.8374 11.1059 33.678 10.2701C34.0318 9.91953 34.3868 9.569 34.7187 9.18649C35.0374 8.82091 35.2562 8.81903 35.6693 9.29434C34.4843 11.4464 32.6962 12.6059 30.9612 13.9145ZM31.4087 14.8069C31.3137 14.5103 31.2399 14.2826 31.1355 13.949C32.6955 12.7288 34.273 11.4909 35.8687 10.2456L36.2255 10.6795C34.9412 12.6353 33.1405 13.606 31.4087 14.8069Z" fill="#276C43"/>
<path fill-rule="evenodd" clip-rule="evenodd" d="M31.7061 15.5686C31.6329 15.3109 31.5692 15.0782 31.4873 14.7867C32.2948 14.1765 33.1104 13.5959 33.8961 12.9581C34.6217 12.3674 35.3154 11.7134 36.0298 11.1001C36.1211 11.0243 36.3354 10.9653 36.3554 11.0048C36.4579 11.2061 36.6486 11.3773 36.4823 11.6865C36.0473 12.5148 35.4417 13.0735 34.7748 13.5319C33.7654 14.2204 32.7442 14.8795 31.7061 15.5686Z" fill="#276C43"/>
<path fill-rule="evenodd" clip-rule="evenodd" d="M14.1687 31.9727C15.52 32.4705 16.8937 32.0805 18.2262 32.7891C17.7593 32.7747 17.2931 32.7722 16.8281 32.7427C16.05 32.6963 15.2743 32.6273 14.4962 32.5859C14.1881 32.569 14.0762 32.4041 14.1687 31.9727Z" fill="#338455"/>
<path fill-rule="evenodd" clip-rule="evenodd" d="M21.9325 13.6382C21.765 13.7116 21.6175 13.7755 21.4706 13.8414C21.4606 13.8828 21.4538 13.9273 21.445 13.9712C21.5744 14.0276 21.7075 14.0665 21.835 14.1355C22.1156 14.2947 22.3381 14.3656 22.6069 14.0571C23.0781 13.5178 23.7013 13.3855 24.355 13.4959C25.0863 13.6238 25.5325 14.207 25.585 15.1551C25.6019 15.4761 25.7025 15.5721 25.91 15.6774C26.1031 15.7752 26.2763 15.9615 26.4581 16.1088C26.4425 16.1797 26.4275 16.2531 26.4131 16.322C26.2413 16.317 26.0469 16.376 25.9 16.285C25.5894 16.0963 25.4506 16.2681 25.2419 16.5008C24.9021 16.886 24.5082 17.2196 24.0725 17.4909C23.905 17.5943 23.5913 17.4984 23.3981 17.3536C22.9313 17.0055 22.9069 16.5522 23.3006 16.1722C23.4938 15.9859 23.7063 15.8336 23.9781 15.611C23.6138 15.4786 23.315 15.3488 23.0119 15.2723C22.93 15.2529 22.8225 15.3752 22.7481 15.4611C22.3056 15.9634 21.7906 16.1941 21.17 16.0273C20.5656 15.863 20.1681 15.3463 20.0975 14.5644C20.0644 14.1769 19.9413 13.9712 19.68 13.8019C19.5738 13.7335 19.5213 13.5103 19.4419 13.3579C19.57 13.3209 19.7213 13.2062 19.8219 13.2651C20.045 13.3999 20.1856 13.346 20.3644 13.1867C20.5619 13.0149 20.7944 12.8751 21.0338 12.8212C21.52 12.7089 21.74 12.9221 21.9325 13.6382ZM23.54 14.8986L24.5781 15.1413C24.2731 14.4603 24.1569 14.4308 23.54 14.8986ZM21.1581 14.4722C21.2206 14.7149 21.2613 14.8792 21.3 15.0435L21.7656 14.8892C21.7544 14.8503 21.7425 14.8158 21.7338 14.7788L21.1581 14.4722Z" fill="white"/>
<path fill-rule="evenodd" clip-rule="evenodd" d="M29.2312 16.4065C29.1362 16.7106 28.9381 16.6711 28.7444 16.5489C28.5419 16.4184 28.3206 16.2717 28.3988 15.8302C28.6819 16.0265 28.9519 16.2153 29.2312 16.4065ZM29.2625 15.8334C28.6888 15.728 28.6488 15.6471 28.8281 14.8552C28.9963 15.2352 29.1206 15.5073 29.2625 15.8334ZM23.5375 14.8991C24.1544 14.4306 24.2706 14.4601 24.5756 15.1417L23.5375 14.8991ZM21.1562 14.4727L21.7319 14.7793C21.7406 14.8163 21.7525 14.8501 21.7638 14.8897L21.2981 15.0439C21.2526 14.8531 21.2053 14.6626 21.1562 14.4727Z" fill="#E6A42E"/>
<path d="M29.1244 22.4659C29.1244 22.4659 22.8244 11.3481 32.9857 8.90694C43.1451 6.46578 37.9019 8.44354 45.7732 5.23047C45.7732 5.23047 46.8051 7.73057 42.8857 11.9388L44.9113 11.9488C44.9113 11.9488 45.0601 15.5124 39.7588 15.7087L41.8557 16.9628C41.8557 16.9628 39.8119 18.8672 36.7869 17.8282L37.8413 19.483C37.8413 19.483 36.2807 20.7233 33.6688 18.7938L34.4876 20.0442C34.4876 20.0442 32.4182 21.5905 30.5032 20.201C30.5032 20.201 28.8513 19.5739 29.1244 22.4653" fill="#B3B3B3"/>
<path d="M29.2935 20.6889C29.2935 20.6889 24.256 11.8015 32.3792 9.84822C40.5017 7.89492 36.3123 9.47575 42.6035 6.90918C42.6035 6.90918 43.4279 8.907 40.2954 12.2718L41.9135 12.2793C41.9135 12.2793 42.0335 15.1275 37.796 15.2842L39.4735 16.2894C39.4735 16.2894 37.8392 17.8113 35.4185 16.9829L36.2642 18.3042C36.2642 18.3042 35.0154 19.2968 32.9267 17.7555L33.5804 18.7531C33.5804 18.7531 31.9267 19.991 30.396 18.8804C30.396 18.8804 29.0735 18.375 29.2935 20.6889Z" fill="#E6E6E6"/>
</g>
<defs>
<filter id="filter0_d_5361_6015" x="0.12793" y="0.0664062" width="51.7681" height="43.1719" filterUnits="userSpaceOnUse" color-interpolation-filters="sRGB">
<feFlood flood-opacity="0" result="BackgroundImageFix"/>
<feColorMatrix in="SourceAlpha" type="matrix" values="0 0 0 0 0 0 0 0 0 0 0 0 0 0 0 0 0 0 127 0" result="hardAlpha"/>
<feOffset dy="4"/>
<feGaussianBlur stdDeviation="3"/>
<feComposite in2="hardAlpha" operator="out"/>
<feColorMatrix type="matrix" values="0 0 0 0 0 0 0 0 0 0 0 0 0 0 0 0 0 0 0.25 0"/>
<feBlend mode="normal" in2="BackgroundImageFix" result="effect1_dropShadow_5361_6015"/>
<feBlend mode="normal" in="SourceGraphic" in2="effect1_dropShadow_5361_6015" result="shape"/>
</filter>
</defs>
</svg>
