<svg width="52" height="52" viewBox="0 0 52 52" fill="none" xmlns="http://www.w3.org/2000/svg">
<g filter="url(#filter0_d_5361_6128)">
<path d="M39.75 32.3125C39.75 39.875 33.625 39.875 26 39.875C18.375 39.875 12.25 39.875 12.25 32.3125C12.25 24.75 18.4375 12.375 26 12.375C33.5625 12.375 39.75 24.6875 39.75 32.3125Z" fill="#DBB471"/>
<path opacity="0.5" d="M39.75 32.3125C39.75 29.75 39.0625 26.625 37.8125 23.625C38.0625 25.5625 37.5625 29 31.625 30.3125C23.1875 32.125 27.5625 34.5 24.25 34.8125C21.4375 35.0625 13.9375 33.9375 12.4375 29.6875C12.3125 30.625 12.1875 31.5 12.1875 32.375C12.25 39.875 18.4375 39.875 26 39.875C33.5625 39.875 39.75 39.875 39.75 32.3125Z" fill="#89664C"/>
<path d="M29.6875 28.6875C29.4375 27.4375 28.375 27.0625 27.25 27V25.25C27.5625 25.375 27.9375 25.5625 28.1875 25.75C28.6875 26.0625 29.1875 25.25 28.6875 24.9375C28.25 24.6875 27.75 24.4375 27.25 24.25V22.1875C27.25 21.5625 26.3125 21.5625 26.3125 22.1875V24C25.8125 23.9375 25.3125 23.9375 24.8125 24C24.75 23.5625 24.625 23.125 24.5 22.6875C24.375 22.0625 23.4375 22.3125 23.625 22.9375C23.75 23.375 23.8125 23.8125 23.9375 24.25C23.875 24.25 23.875 24.25 23.8125 24.3125C22.5625 24.8125 21.75 26.0625 22.6875 27.25C23.125 27.8125 23.6875 28 24.3125 28.125C24.375 28.9375 24.375 29.75 24.375 30.5625C23.9375 30.3125 23.5625 29.9375 23.25 29.625C22.8125 29.1875 22.1875 29.875 22.5625 30.3125C23.125 30.9375 23.75 31.375 24.375 31.6875C24.375 32.375 24.4375 33.0625 24.5 33.75C24.5625 34.375 25.5 34.375 25.4375 33.75C25.375 33.125 25.3125 32.5625 25.3125 31.9375C25.6875 32 26.0625 32 26.4375 32C26.5 32.625 26.5625 33.25 26.625 33.9375C26.6875 34.5625 27.625 34.5625 27.5625 33.9375C27.5 33.25 27.4375 32.5625 27.375 31.8125C28.75 31.3125 30 30.25 29.6875 28.6875ZM26.3125 24.9375V27C26 27 25.75 27.0625 25.5 27.0625H25.1875L25 24.8125C25.4375 24.8125 25.875 24.875 26.3125 24.9375ZM24.0625 26.9375C23.8125 26.875 23.5625 26.6875 23.3125 26.5C22.75 25.9375 23.5625 25.4375 24.0625 25.1875C24.125 25.8125 24.1875 26.375 24.25 27C24.1875 27 24.125 27 24.0625 26.9375ZM26.125 30.9375C25.8125 31 25.5625 30.9375 25.3125 30.875C25.25 29.9375 25.25 29 25.25 28C25.625 28 26 27.9375 26.375 27.9375C26.375 28.9375 26.4375 29.875 26.4375 30.875C26.3125 30.9375 26.25 30.9375 26.125 30.9375ZM28.1875 30.25C27.9375 30.4375 27.625 30.5625 27.375 30.6875C27.3125 29.75 27.3125 28.875 27.3125 27.9375H27.625C28.8125 28.1875 29.125 29.5 28.1875 30.25Z" fill="#89664C"/>
<path d="M27.25 37.375H25.8125V39.875L31.625 43L44.75 38.9375V36.75L39.9375 33.9375L27.25 37.375Z" fill="#699635"/>
<path d="M26 35.9375C26 35.9375 27.5 38.375 31.75 40.5C31.75 40.5 38.375 40.1875 44.75 35.9375C44.75 35.9375 41.0625 34.125 40 31.75C40 31.75 37.5 35.25 26 35.9375Z" fill="#83BF4F"/>
<path d="M23.1875 37.3125L24.5625 37.25L24.75 39.5625L19.3125 43L6.25 40.1875L6.0625 38.125L10.5 35.0625L23.1875 37.3125Z" fill="#699635"/>
<path d="M24.25 35.875C24.25 35.875 22.9375 38.3125 19 40.625C19 40.625 12.5625 40.8125 6 37.375C6 37.375 9.5 35.375 10.3125 33C10.3125 33 13.0625 36.125 24.25 35.875Z" fill="#83BF4F"/>
<path d="M21.125 36.5628C21.125 36.5628 20.9375 37.0628 21.8125 37.1253L19.5 39.0628C19.5 39.0628 18.125 38.9378 17.8125 39.8753C17.8125 39.8753 12.1875 39.2503 8.5625 37.6253C8.5625 37.6253 9.3125 37.0628 8.375 36.6878C8.375 36.6878 9.4375 35.9378 9.6875 35.2503C9.6875 35.2503 10.6875 35.3753 11 34.6253C11.125 34.5628 14.875 36.8128 21.125 36.5628V36.5628Z" stroke="#699635" stroke-miterlimit="10"/>
<path d="M11.5 37.4375C12.1558 37.4375 12.6875 37.0737 12.6875 36.625C12.6875 36.1763 12.1558 35.8125 11.5 35.8125C10.8442 35.8125 10.3125 36.1763 10.3125 36.625C10.3125 37.0737 10.8442 37.4375 11.5 37.4375Z" fill="#699635"/>
<path d="M17.875 35.625C17.875 35.625 16.4375 37.5 13.3125 40.0625L13.5 41.75L11.3125 41.25L11.1875 39.4375C11.1875 39.4375 14.375 36.5 15.0625 35.0625C15 35.0625 16.125 35.4375 17.875 35.625ZM32.3125 35.1875C32.3125 35.1875 32.875 36.6875 37.125 39.4375V41.25L39.5625 40.5V38.625C39.5625 38.625 36.625 36.5625 34.875 34.5L32.3125 35.1875Z" fill="#F9F3D9"/>
<path d="M28.75 33.1875L27.375 33.125L27.25 35.6875L32.8125 39.25L45.875 35.6875L45.9375 33.4375L41.375 30.25L28.75 33.1875Z" fill="#699635"/>
<path d="M27.625 31.625C27.625 31.625 29 34.25 33.0625 36.625C33.0625 36.625 39.5625 36.625 46 32.625C46 32.625 42.4375 30.5625 41.5625 28C41.5625 28 38.875 31.5 27.625 31.625Z" fill="#83BF4F"/>
<path d="M30.4375 32.3125C30.4375 32.3125 30.75 32.8125 29.75 33L32.375 35.0625C32.375 35.0625 33.875 34.6875 34.375 35.5625C34.375 35.5625 40.625 34.4375 43.5 32.9375C43.5 32.9375 42.5625 32.5 43.5 31.9375C43.5 31.9375 42.375 31 41.9375 30.375C41.9375 30.375 40.875 30.6875 40.3125 29.9375C40.3125 30 38.0625 32 30.4375 32.3125V32.3125Z" stroke="#699635" stroke-miterlimit="10"/>
<path d="M35.2501 33.8752C35.0001 34.1877 34.1876 34.3127 33.5001 34.1252C32.8126 33.9377 32.5001 33.5002 32.7501 33.1877C33.0001 32.8752 33.8126 32.7502 34.5001 32.9377C35.1876 33.1252 35.5001 33.5002 35.2501 33.8752Z" fill="#699635"/>
<path d="M34 31.125C34 31.125 35.5 33.125 38.6875 35.8125L38.625 37.6875L40.8125 37.0625L40.875 35.0625C40.875 35.0625 37.625 31.9375 36.8125 30.4375C36.875 30.4375 35.8125 30.875 34 31.125Z" fill="#F9F3D9"/>
<path d="M34.75 4.25C34.75 8.0625 29.8125 14.25 26 14.25C22.1875 14.25 17.25 8.6875 17.25 4.875C17.25 1.0625 17.8125 4.875 21.625 4.875C22.1875 4.875 24.8125 3 26 3C26.8125 3 29.125 4.875 30.375 4.875C33.6875 4.875 34.75 1.375 34.75 4.25Z" fill="#DBB471"/>
<path d="M24.875 11.3129C24.5 11.5629 22.6875 11.3754 22.125 11.8129C21.375 12.3754 22.4375 13.6879 21.6875 14.5004C20.1875 16.0004 19 17.6879 19.375 18.6254C20 20.2504 21.1875 15.6254 22.25 17.3754C23.3125 19.1254 23.125 16.1879 24.75 17.6879C26.375 19.1879 25 15.0004 26.5625 16.8129C28.125 18.6254 28.1875 20.6879 29.3125 20.6879C30.625 20.6879 27.9375 15.7504 29.6875 16.9379C31.4375 18.1254 33.375 17.6879 31.625 15.8754C31.0625 15.3129 30.3125 14.3129 29.4375 13.4379C29.125 13.1254 29.375 11.5004 29.0625 11.2504C28.6875 10.9379 27.75 11.9379 27.375 11.7504C26.625 11.3754 26.875 12.0629 25.75 12.2504C25 12.5004 25.625 10.8129 24.875 11.3129Z" fill="#89664C"/>
<path d="M17.6876 15.0003C20.1251 12.6878 24.5626 14.0003 27.1876 15.1253C29.7501 16.2503 31.3126 12.6878 29.6876 10.8753C28.7501 9.81275 27.2501 11.0628 26.6876 11.8128C26.0626 12.5628 25.5626 13.3753 24.8751 14.1253C23.8751 15.2503 21.4376 14.3128 22.1876 12.7503C23.0001 11.1253 26.4376 13.0003 27.5626 13.3128C29.7501 13.9378 32.0626 14.1878 34.2501 13.3753C35.0001 13.1253 34.6876 11.8753 33.9376 12.1878C31.5001 13.0628 29.0626 12.5003 26.7501 11.7503C25.5626 11.3753 23.6876 10.3753 22.4376 10.9378C18.8751 12.6253 22.1876 17.4378 25.1876 15.5628C25.8751 15.1253 26.3126 14.4378 26.8126 13.8128C27.1251 13.4378 28.6876 11.0628 29.0626 12.2503C29.2501 12.8753 29.0626 14.0003 28.3751 14.1878C27.9376 14.3753 27.0626 13.7503 26.6251 13.6253C25.8126 13.3128 25.0001 13.0628 24.1251 12.8753C21.8126 12.3753 18.6876 12.5003 16.8751 14.1878C16.2501 14.6878 17.1251 15.5628 17.6876 15.0003Z" fill="#E8E8E8"/>
<path d="M34 3.3125C33.375 3.8125 32.25 4.875 30.375 4.875C29.125 4.875 26.8125 3 26 3C24.8125 3 22.1875 4.875 21.625 4.875C19.5625 4.875 18.4375 3.8125 17.875 3.375C17.875 3.375 18.5625 6.1875 20.6875 7.625C22.25 8.625 22.0625 7.4375 22.875 6.3125C23.6875 5.1875 24.25 4.625 25.6875 7.4375C26.4375 9 27.875 3.1875 29 5.0625C31.0625 8.5 31.8125 6.625 34 3.3125Z" fill="#89664C"/>
<path d="M38.7502 35.75L38.6877 37.625L40.8752 37L40.9377 35C40.9377 35.0625 39.6252 35.5625 38.7502 35.75ZM37.1252 39.5V41.3125L39.5627 40.5625V38.6875C39.5002 38.625 38.8752 39 37.1252 39.5ZM13.3127 40L13.5002 41.75L11.3127 41.25L11.1877 39.4375C11.1252 39.4375 12.0002 39.75 13.3127 40Z" fill="#DBB471"/>
</g>
<defs>
<filter id="filter0_d_5361_6128" x="0" y="0" width="52" height="52" filterUnits="userSpaceOnUse" color-interpolation-filters="sRGB">
<feFlood flood-opacity="0" result="BackgroundImageFix"/>
<feColorMatrix in="SourceAlpha" type="matrix" values="0 0 0 0 0 0 0 0 0 0 0 0 0 0 0 0 0 0 127 0" result="hardAlpha"/>
<feOffset dy="3"/>
<feGaussianBlur stdDeviation="3"/>
<feComposite in2="hardAlpha" operator="out"/>
<feColorMatrix type="matrix" values="0 0 0 0 0 0 0 0 0 0 0 0 0 0 0 0 0 0 0.25 0"/>
<feBlend mode="normal" in2="BackgroundImageFix" result="effect1_dropShadow_5361_6128"/>
<feBlend mode="normal" in="SourceGraphic" in2="effect1_dropShadow_5361_6128" result="shape"/>
</filter>
</defs>
</svg>
