<svg width="36" height="32" viewBox="0 0 36 32" fill="none" xmlns="http://www.w3.org/2000/svg">
<path d="M28.1391 18.0002C28.4302 17.9111 28.5438 17.634 28.7241 17.4334C29.6808 16.3687 30.6297 15.297 31.571 14.2183C31.6958 14.078 31.7723 14.0331 31.9182 14.2001C33.0313 15.471 34.1521 16.7342 35.3087 18.0422C34.806 18.1195 34.2955 18.1327 33.7895 18.0815C33.5566 18.0605 33.4942 18.1481 33.4689 18.3319C33.1883 20.3562 32.5053 22.3039 31.4602 24.0601C29.6254 27.1721 26.8021 29.5806 23.4399 30.9021C21.386 31.7152 19.1833 32.084 16.9766 31.9843C13.595 31.8348 10.347 30.6205 7.69678 28.5148C5.04652 26.409 3.12948 23.5197 2.21949 20.2593C1.95595 19.3182 1.7824 18.3541 1.70117 17.3801C1.70325 17.3143 1.70958 17.2487 1.72011 17.1837C2.06589 17.5709 2.3731 17.9132 2.6796 18.2569C2.76517 18.3523 2.84513 18.4532 2.93491 18.5444C3.34031 18.9568 3.86424 18.9183 4.23457 18.4708C4.53687 18.1068 4.86091 17.7603 5.22913 17.3486C5.29927 17.8879 5.36941 18.3417 5.47251 18.7892C5.8371 20.391 6.51421 21.905 7.46503 23.2446C8.41585 24.5842 9.6217 25.7229 11.0134 26.5956C12.4957 27.531 14.1621 28.1358 15.8993 28.3687C17.2863 28.5579 18.6946 28.5226 20.0704 28.2642C21.2723 28.0364 22.4323 27.626 23.51 27.0473C24.8897 26.3121 26.1193 25.3245 27.1347 24.1359C28.3326 22.7646 29.2037 21.1394 29.6822 19.3826C29.7705 19.0571 29.8288 18.7226 29.9256 18.4006C30.0027 18.1432 29.8954 18.0983 29.671 18.0976C29.1603 18.0976 28.6469 18.1453 28.1419 18.024L28.1391 18.0002Z" fill="#A4C53B"/>
<path d="M0 13.9095C0.533051 13.9095 0.996666 13.8983 1.45888 13.9144C1.70576 13.9228 1.80185 13.8443 1.83833 13.5904C2.19393 11.1271 3.10853 8.88198 4.52463 6.83885C4.9167 6.27283 5.35857 5.74749 5.80395 5.22567C5.94423 5.06014 6.03611 5.05102 6.19111 5.20813C6.88689 5.91606 7.58944 6.61744 8.29877 7.31228C8.45518 7.46518 8.43484 7.55917 8.29877 7.71207C6.78027 9.38417 5.86777 11.3593 5.37961 13.5511C5.31999 13.8176 5.37961 13.9362 5.68401 13.9207C6.1357 13.8976 6.5902 13.9151 7.12045 13.9151C6.70803 14.3878 6.34051 14.8122 5.97018 15.2344C5.24565 16.0501 4.51481 16.8665 3.8043 17.697C3.59389 17.9389 3.48938 17.9298 3.28037 17.6871C2.24653 16.4857 1.19095 15.3024 0.144485 14.1101C0.107312 14.0736 0.0827633 14.0231 0 13.9095Z" fill="#3698DB"/>
<path d="M28.1382 17.9936V18.0167C28.1116 18.0946 28.0856 18.1731 28.059 18.251C27.9187 18.3843 27.7511 18.3309 27.594 18.2987C27.3492 18.2489 27.1998 18.2987 27.1388 18.5792C27.0252 19.0934 26.8084 19.5745 26.6106 20.0606C26.4458 20.4646 26.4781 20.5424 26.9052 20.6722C27.0111 20.7044 27.1654 20.6722 27.0925 20.8686C27.0083 21.1491 26.8337 21.3841 26.6773 21.6267C26.4732 21.767 26.3266 21.6267 26.1758 21.5194C25.9913 21.3897 25.858 21.3953 25.7101 21.5938C25.3594 22.0686 25.0241 22.5624 24.5724 22.9566C24.4111 23.0968 24.4125 23.2371 24.5556 23.4083C24.6664 23.5401 24.8691 23.6446 24.7786 23.8782C24.6148 24.0637 24.426 24.2254 24.2175 24.3586C23.965 24.4681 23.8479 24.2836 23.7448 24.1195C23.6227 23.9266 23.5168 23.9091 23.3239 24.0409C22.8712 24.3485 22.3954 24.6208 21.9008 24.8552C21.5635 25.0193 21.5501 25.0705 21.6652 25.4247C21.7059 25.5538 21.8574 25.6899 21.6862 25.8337L20.9841 26.1051C20.7737 26.2061 20.726 26.0623 20.6706 25.9094C20.503 25.4472 20.503 25.4633 20.0057 25.5447C19.5084 25.626 19.0238 25.8252 18.4998 25.7881C18.2943 25.774 18.2151 25.8989 18.2095 26.0932C18.2038 26.265 18.2368 26.4439 18.1253 26.5989C17.9093 26.6641 17.6862 26.6052 17.4695 26.6318C17.1939 26.6648 17.0971 26.5343 17.0865 26.2762C17.0676 25.8301 17.0381 25.8112 16.6047 25.7803C16.139 25.7474 15.6929 25.6134 15.2384 25.5145C14.8533 25.4304 14.8253 25.4444 14.6738 25.8189C14.6219 25.9459 14.6513 26.1822 14.3862 26.1093C14.1057 26.0777 13.8644 25.9501 13.6112 25.8477C13.5796 25.6611 13.6519 25.4886 13.6947 25.3153C13.7409 25.126 13.6947 25.0011 13.5256 24.9106C12.9947 24.6266 12.4595 24.3495 11.9538 24.0199C11.8135 23.9287 11.7027 23.9497 11.5884 24.0732C11.4741 24.1966 11.378 24.3537 11.2307 24.4477C10.962 24.3057 10.7237 24.1125 10.5293 23.8789C10.4592 23.7323 10.5553 23.6411 10.6359 23.5408C10.9249 23.1817 10.9081 23.1943 10.6072 22.8647C10.2833 22.5163 9.97892 22.1503 9.69536 21.7684C9.40078 21.3637 9.40639 21.3581 8.9554 21.598C8.84669 21.6562 8.74499 21.7719 8.62575 21.6246L8.28909 21.0593C8.18318 20.8026 8.35923 20.6897 8.54229 20.6083C8.81653 20.4884 8.83266 20.311 8.70501 20.0753C8.45391 19.6124 8.30031 19.1102 8.15512 18.6094C8.07516 18.3331 7.93699 18.2545 7.67117 18.3099C7.51616 18.3429 7.32048 18.4502 7.24332 18.1879C7.16337 18.0588 7.16126 17.915 7.16407 17.7705C7.10796 17.3497 7.11918 17.3181 7.52177 17.2094C7.7378 17.1526 7.8374 17.0348 7.8388 16.8188C7.84371 16.2724 7.8388 15.7267 7.8388 15.181C7.8388 14.9594 7.73289 14.8507 7.53019 14.7798C7.12058 14.6396 7.12339 14.629 7.15986 14.1766C7.11778 14.0048 7.22088 13.8582 7.24192 13.6983C7.4341 13.6106 7.60524 13.4802 7.82407 13.6983C7.93068 13.8049 8.06324 13.6688 8.10462 13.5335C8.27862 12.9155 8.50264 12.3126 8.77444 11.7309C8.85019 11.5724 8.74288 11.5107 8.6517 11.4132C8.52265 11.2729 8.26454 11.315 8.21053 11.0842C8.31681 10.813 8.46136 10.5584 8.63978 10.3282C8.83687 10.2272 8.9547 10.4228 9.11251 10.4684C9.30609 10.5224 9.45058 10.5217 9.57542 10.3604C9.95653 9.86271 10.3627 9.38468 10.7923 8.92819C10.9326 8.78441 10.826 8.68131 10.7278 8.57259C10.6008 8.43232 10.4017 8.31589 10.5258 8.0718C10.732 7.90698 10.9045 7.69867 11.1507 7.58504C11.3464 7.54717 11.4081 7.7141 11.4944 7.82562C11.6347 8.01008 11.7911 8.07531 12.0001 7.93644C12.4922 7.60707 13.008 7.3145 13.5432 7.06111C13.7746 6.95169 13.7571 6.75952 13.6547 6.55752C13.5958 6.44249 13.4443 6.35201 13.546 6.18859C13.7872 6.06444 14.0152 5.90804 14.302 5.90172C14.5461 5.83649 14.6142 6.02937 14.6633 6.18228C14.7587 6.48668 14.9438 6.53297 15.2244 6.46283C15.6733 6.35201 16.1207 6.23769 16.5893 6.20682C17.0417 6.17737 17.0837 6.10372 17.0915 5.63941C17.0915 5.50404 17.0915 5.3834 17.2626 5.35254H17.8237C18.0944 5.35254 18.2242 5.4837 18.1968 5.75864C18.1674 6.05743 18.3371 6.17947 18.6029 6.20612C19.1348 6.24613 19.6612 6.34013 20.174 6.48668C20.3844 6.5505 20.5345 6.45862 20.6075 6.24821C20.6657 6.08338 20.7225 5.91645 20.9063 5.84421C21.1917 5.94942 21.4975 6.00202 21.7528 6.18157C21.487 7.05339 21.4316 6.88296 22.2354 7.29537C22.5763 7.47002 22.8807 7.70568 23.2131 7.89506C23.5743 8.09986 23.7616 8.02832 23.8956 7.63274C23.9328 7.52473 23.9496 7.45669 24.0751 7.51631C24.3016 7.65782 24.5088 7.82804 24.6916 8.02271C24.8712 8.17982 24.8488 8.3229 24.6783 8.47791C24.4483 8.68832 24.449 8.8805 24.6734 9.12809C25.0241 9.51595 25.4007 9.88699 25.6638 10.3499C25.7732 10.5428 25.938 10.575 26.14 10.4537C26.2922 10.3618 26.4444 10.2215 26.6506 10.3282C26.8251 10.5615 26.9706 10.8152 27.0841 11.0835C27.1542 11.2638 27.0266 11.2624 26.908 11.294C26.5244 11.395 26.436 11.578 26.5966 11.9329C26.806 12.3897 26.9814 12.8614 27.1212 13.3441C27.2335 13.7369 27.2615 13.7425 27.6613 13.6583C27.81 13.6275 27.965 13.5784 28.0541 13.7656C28.099 13.9424 28.1565 14.1163 28.1474 14.3022C28.1901 14.7483 28.1909 14.7539 27.784 14.7812C27.5442 14.7981 27.4088 14.8836 27.4502 15.1502C27.5417 15.7036 27.5438 16.2682 27.4565 16.8223C27.413 17.0818 27.5217 17.1674 27.7651 17.2087C28.2021 17.2789 28.2028 17.3027 28.1375 17.7698L28.1382 17.9936Z" fill="#F59522"/>
<path d="M17.1756 1.78271C17.1756 2.27368 17.1623 2.76465 17.1812 3.25562C17.1897 3.48216 17.1006 3.52565 16.9007 3.53617C14.0297 3.70404 11.5173 4.74162 9.36362 6.64891C9.17705 6.81374 9.08657 6.76604 8.94279 6.61735C8.25473 5.91947 7.56317 5.2237 6.85828 4.54266C6.68644 4.37643 6.72992 4.29367 6.87862 4.159C9.04379 2.19513 11.5611 0.922816 14.4185 0.316821C15.2286 0.155822 16.0488 0.0508332 16.8733 0.00260097C17.0978 -0.0128295 17.189 0.0355659 17.1805 0.278946C17.1644 0.780435 17.1756 1.28263 17.1756 1.78412V1.78271Z" fill="#2A7FB7"/>
<path d="M18.116 1.73317C18.116 1.26605 18.1321 0.798228 18.1097 0.330405C18.0964 0.0596713 18.184 -0.00415451 18.445 0.00706763C20.0979 0.082036 21.7284 0.420385 23.2747 1.00934C25.1438 1.71174 26.8646 2.75854 28.3478 4.09543C28.5645 4.28972 28.5757 4.39422 28.3562 4.60324C27.6801 5.245 27.018 5.9036 26.379 6.58114C26.1847 6.78664 26.0886 6.75298 25.9077 6.59376C24.5775 5.41517 23.0068 4.54018 21.3045 4.0295C20.366 3.74895 19.4108 3.54204 18.4288 3.53012C18.1791 3.53012 18.1069 3.43894 18.1139 3.19977C18.1258 2.71371 18.116 2.22344 18.116 1.73317Z" fill="#5165A1"/>
<path d="M33.5258 14.7545C33.1449 14.3197 32.7732 13.8771 32.3811 13.4528C31.989 13.0284 31.4932 13.0439 31.1032 13.4682C31.0639 13.5117 31.033 13.5594 30.991 13.6029C30.7441 13.8834 30.5 14.164 30.2482 14.4445C30.2054 14.4922 30.1781 14.5778 30.0869 14.5434C30.0167 14.5168 30.0385 14.4452 30.0322 14.3905C29.8189 12.6254 29.2203 10.9287 28.2787 9.42051C27.9099 8.81211 27.4834 8.24064 27.005 7.71405C26.8647 7.55904 26.836 7.46295 27.0113 7.29322C27.6839 6.64584 28.3481 5.98934 28.9878 5.3097C29.2221 5.06141 29.3455 5.05861 29.5728 5.31461C31.4306 7.39523 32.7155 9.92321 33.3013 12.6504C33.4591 13.3404 33.5344 14.0467 33.5258 14.7545Z" fill="#384C80"/>
<path d="M7.1691 14.1836C7.14315 14.5259 7.31429 14.6816 7.64534 14.7152C7.85576 14.737 7.95675 14.8604 7.95114 15.0961C7.93571 15.6909 7.94062 16.2884 7.95114 16.8811C7.95114 17.1322 7.85435 17.3019 7.60045 17.3019C7.26238 17.3019 7.14034 17.4584 7.17401 17.7747C7.0162 17.2837 7.02041 16.7647 7.00428 16.2597C6.97692 15.5653 7.00498 14.8667 7.1691 14.1836Z" fill="#F9AC36"/>
<path d="M14.3867 26.1114C14.6196 26.037 14.5551 25.8056 14.6217 25.6478C14.7283 25.3939 14.844 25.2971 15.1505 25.3812C15.6836 25.5313 16.2222 25.6891 16.7876 25.6884C17.092 25.6884 17.2266 25.8385 17.2021 26.1528C17.167 26.5932 17.1768 26.5946 17.6152 26.5967C17.7786 26.5967 17.942 26.5967 18.1062 26.5932C18.1138 26.5873 18.1226 26.583 18.132 26.5806C18.1414 26.5782 18.1511 26.5778 18.1607 26.5794C18.1702 26.581 18.1794 26.5845 18.1875 26.5898C18.1956 26.5951 18.2025 26.602 18.2079 26.6101C17.7001 26.7307 17.1937 26.6451 16.6887 26.5953C15.9038 26.5175 15.1281 26.3919 14.3867 26.1114Z" fill="#F9AC35"/>
<path d="M20.9142 5.85841C20.8073 5.9965 20.734 6.15765 20.7003 6.32904C20.6386 6.58364 20.4604 6.69586 20.2339 6.61661C19.6489 6.41251 19.0352 6.38094 18.4327 6.28626C18.1606 6.24347 18.082 6.10881 18.1087 5.86052C18.136 5.63046 18.1227 5.42075 17.8281 5.36955C18.8879 5.34219 19.9077 5.55542 20.9142 5.85841Z" fill="#F8AD34"/>
<path d="M10.5285 8.07227C10.5116 8.33739 10.7389 8.44189 10.8792 8.60251C10.9633 8.7 11.0749 8.77575 10.9346 8.91743C10.4926 9.37331 10.0776 9.85458 9.69172 10.3588C9.41117 10.7165 9.18252 10.713 8.82551 10.4163C8.77543 10.3665 8.70986 10.3353 8.63965 10.3279C9.14863 9.48275 9.78584 8.72179 10.5285 8.07227Z" fill="#F9AC36"/>
<path d="M24.7793 23.8863C24.7499 23.6556 24.5486 23.5441 24.4181 23.389C24.2876 23.234 24.2968 23.1085 24.423 22.997C24.9427 22.5292 25.3299 21.9526 25.7556 21.409C25.9282 21.1909 26.1063 21.3789 26.2347 21.4701C26.363 21.5612 26.5026 21.6461 26.6752 21.6349C26.1626 22.4783 25.5231 23.2377 24.7793 23.8863Z" fill="#FAAC36"/>
<path d="M8.625 21.635C8.85786 21.6624 9.02198 21.4948 9.17979 21.3846C9.37548 21.2444 9.44842 21.3054 9.56485 21.4548C9.88749 21.8756 10.2213 22.2894 10.5517 22.7053C10.5861 22.7517 10.6246 22.7949 10.6667 22.8344C11.042 23.1598 11.0462 23.2279 10.7011 23.5968C10.6218 23.6817 10.5321 23.7581 10.5257 23.8865C9.7748 23.2435 9.13291 22.4832 8.625 21.635Z" fill="#F9AC33"/>
<path d="M17.2679 5.36816C17.0939 5.49511 17.2062 5.67116 17.2055 5.81915C17.2055 6.09199 17.1402 6.25541 16.8246 6.28487C16.2356 6.33857 15.653 6.44777 15.0845 6.61102C14.8257 6.68606 14.6545 6.57454 14.6068 6.2996C14.5746 6.11794 14.5002 5.96855 14.3066 5.91244C14.9421 5.6403 15.6175 5.53018 16.2937 5.43199C16.6142 5.385 16.9417 5.3878 17.2679 5.36816Z" fill="#F9AC35"/>
<path d="M26.6583 10.3377C26.497 10.3627 26.3442 10.4265 26.2129 10.5235C25.9324 10.7543 25.7093 10.647 25.567 10.3706C25.3046 9.86354 24.8705 9.50092 24.5114 9.07799C24.3416 8.8781 24.348 8.75255 24.4981 8.57369C24.6264 8.42009 24.8551 8.29314 24.6994 8.03223C25.4884 8.68521 26.1161 9.47497 26.6583 10.3377Z" fill="#F9AC36"/>
<path d="M7.24707 18.1899C7.37122 18.3491 7.52061 18.2551 7.65808 18.2242C8.05857 18.1338 8.11749 18.1948 8.23813 18.5841C8.38401 19.0533 8.51868 19.5302 8.75855 19.9651C9.01175 20.4252 9.00053 20.4827 8.52429 20.7128C8.36788 20.7878 8.28231 20.8867 8.29283 21.0634C7.80888 20.254 7.52131 19.3668 7.27583 18.4683C7.25845 18.3765 7.24883 18.2833 7.24707 18.1899Z" fill="#F9AC35"/>
<path d="M13.5495 6.19238C13.5559 6.23784 13.5691 6.28206 13.5888 6.32354C13.9598 6.87343 13.9507 6.97372 13.3686 7.24656C12.8946 7.48133 12.4368 7.74727 11.9981 8.04263C11.754 8.19904 11.6263 8.11908 11.4762 7.94374C11.3717 7.8231 11.3198 7.65407 11.1543 7.58884C11.8781 6.99617 12.6546 6.49328 13.5495 6.19238Z" fill="#F9AC36"/>
<path d="M18.2033 26.6137L18.1016 26.5968C18.1366 26.3226 17.9978 25.9972 18.1675 25.7832C18.3372 25.5693 18.6725 25.7348 18.9278 25.6857C19.3009 25.6156 19.6741 25.5406 20.0437 25.4515C20.6097 25.3112 20.6336 25.3161 20.7633 25.9109C20.7949 26.0547 20.8412 26.1157 20.9807 26.1108C20.0767 26.3955 19.1592 26.606 18.2033 26.6137Z" fill="#F9AD34"/>
<path d="M28.1366 17.7718C28.2334 17.3614 27.9437 17.299 27.6625 17.2892C27.3812 17.2794 27.288 17.2576 27.3455 16.9203C27.4524 16.2909 27.446 15.6474 27.3265 15.0202C27.2613 14.6695 27.5594 14.6646 27.7593 14.6941C28.1044 14.7453 28.1717 14.5903 28.1464 14.3076C28.3546 15.4532 28.3513 16.6273 28.1366 17.7718Z" fill="#F9AD36"/>
<path d="M24.08 7.52614C24.0173 7.73097 23.8953 7.91259 23.7293 8.04797C23.6234 8.14406 23.5413 8.17632 23.3954 8.09636C22.7894 7.76461 22.2395 7.33115 21.5845 7.08707C21.5449 7.07285 21.5121 7.04443 21.4924 7.00735C21.4727 6.97027 21.4675 6.92718 21.4778 6.88648C21.5347 6.64169 21.5122 6.36114 21.7584 6.19141C22.6134 6.4916 23.3674 6.97625 24.08 7.52614Z" fill="#F9AC36"/>
<path d="M27.0939 20.8726C26.9032 20.7758 26.7215 20.6482 26.5195 20.5921C26.3463 20.5423 26.3196 20.5037 26.3891 20.3389C26.6633 19.6887 26.9733 19.0511 27.0967 18.3469C27.1269 18.1765 27.2749 18.1877 27.4047 18.1891C27.6249 18.1891 27.8353 18.2971 28.0604 18.2593C27.8416 19.1662 27.5786 20.0611 27.0939 20.8726Z" fill="#F9AD35"/>
<path d="M11.2305 24.4589C11.2719 24.193 11.5173 24.0766 11.6604 23.8858C11.7376 23.7834 11.8533 23.8578 11.941 23.916C12.4549 24.2531 12.9895 24.5577 13.5415 24.8278C13.8852 24.9968 13.9013 25.1567 13.6818 25.7059C13.6601 25.7585 13.6362 25.8097 13.6117 25.8616C12.8096 25.5217 12.0479 25.0936 11.3406 24.5851C11.2908 24.5479 11.2424 24.522 11.2305 24.4589Z" fill="#F9AC36"/>
<path d="M8.21175 11.0918C8.25944 11.2187 8.38008 11.1142 8.45443 11.1689C8.60242 11.2798 8.78688 11.359 8.89981 11.4972C9.05692 11.6887 8.81073 11.8254 8.75181 11.9805C8.55192 12.5079 8.33098 13.0255 8.20333 13.5789C8.17598 13.7016 8.11706 13.8335 7.95785 13.837C7.84142 13.837 7.68852 13.8952 7.66256 13.6932C7.64713 13.5705 7.59243 13.6378 7.56437 13.6841C7.46548 13.8286 7.35396 13.6939 7.24805 13.7037C7.43661 12.7897 7.76147 11.9093 8.21175 11.0918Z" fill="#F9AD35"/>
<path d="M28.0548 13.7698C27.8858 13.64 27.7154 13.7221 27.5604 13.788C27.3247 13.8876 27.1739 13.8266 27.1045 13.5888C26.9303 12.979 26.7108 12.3831 26.448 11.8059C26.3316 11.5562 26.6107 11.1873 26.9004 11.2048C27.0147 11.2119 27.0764 11.2203 27.0911 11.0947C27.5484 11.9314 27.8735 12.8338 28.0548 13.7698Z" fill="#F9AC35"/>
<path d="M21.6867 25.8446C21.7154 25.6643 21.6165 25.5121 21.5464 25.3704C21.4061 25.1011 21.5078 24.9454 21.7421 24.8416C22.2295 24.6249 22.724 24.3983 23.1301 24.0652C23.5201 23.7467 23.7305 23.8183 23.9255 24.2244C23.9851 24.3492 24.098 24.3696 24.2194 24.3696C23.4588 24.9926 22.6039 25.4905 21.6867 25.8446Z" fill="#FAAC36"/>
<path d="M17.8409 25.4802C12.6254 25.5188 8.23194 21.3007 8.3673 15.8376C8.49215 10.8438 12.5237 6.64948 17.8795 6.71962C23.0543 6.78976 27.0949 10.8578 27.1279 16.02C27.1609 21.2677 22.9975 25.3982 17.8409 25.4802Z" fill="#F9AC37"/>
<path d="M18.74 10.4646C19.3446 10.5916 19.9611 10.6512 20.5356 10.9226C20.746 11.0208 20.7775 11.1288 20.7621 11.3119C20.7481 11.7289 20.6273 12.1353 20.4114 12.4923C20.1835 12.721 20.0025 12.4004 19.7914 12.4397C19.689 12.5211 19.5999 12.4685 19.5017 12.4229C18.841 12.1185 18.1431 12.1423 17.446 12.2125C17.0953 12.2482 16.8147 12.4446 16.5994 12.7217C16.48 12.8743 16.4129 13.0614 16.408 13.2551C16.4031 13.4488 16.4606 13.639 16.572 13.7976C16.6422 13.9014 16.7586 13.9785 16.7705 14.1188C17.009 14.4064 17.3548 14.5228 17.6753 14.6708C18.1256 14.8812 18.5913 15.0545 19.0472 15.2508C19.6454 15.5128 20.185 15.8923 20.6338 16.3667C21.0686 16.5772 21.1444 17.0239 21.2559 17.4083C21.4929 18.2282 21.3393 19.0215 20.9459 19.7748C20.8912 19.8779 20.8357 19.9852 20.706 20.0111C20.1947 20.526 19.6539 20.9973 18.9287 21.1909C18.8845 21.2028 18.8459 21.2351 18.8024 21.2463C18.6488 21.2863 18.4384 21.2042 18.3465 21.3508C18.2547 21.4974 18.3023 21.7134 18.3248 21.8986C18.4889 22.2941 18.5036 22.6883 18.3143 23.0804C17.8794 23.2066 17.4361 23.1267 16.9964 23.1302C16.8315 23.1302 16.8561 22.9759 16.8561 22.8609C16.8561 22.487 16.8456 22.1132 16.8617 21.7386C16.8722 21.4911 16.7705 21.423 16.5356 21.4097C15.7296 21.3758 14.942 21.1582 14.2329 20.7735C14.1284 20.716 14.0379 20.6803 14.0926 20.514C14.2329 20.0932 14.3339 19.6618 14.4602 19.2375C14.5401 18.9668 14.7007 19.1407 14.8109 19.1989C15.6146 19.6163 16.4647 19.8393 17.3716 19.7867C17.8261 19.76 18.2603 19.6696 18.6411 19.3659C19.1868 18.9303 19.2983 17.9238 18.557 17.3606C18.0569 16.9798 17.4775 16.7806 16.9052 16.5526C16.2038 16.2721 15.5284 15.9445 14.9568 15.4206C13.7384 14.304 13.9341 12.0631 15.5003 11.1078C15.8658 10.8764 16.2695 10.7121 16.6927 10.6224C16.9283 10.5761 16.9936 10.4604 16.9845 10.236C16.9697 9.87404 16.9929 9.51072 16.9781 9.14951C16.9683 8.91595 17.0574 8.8395 17.2832 8.85072C17.5636 8.86548 17.8445 8.86548 18.1249 8.85072C18.3486 8.8381 18.4055 8.93278 18.397 9.13969C18.383 9.50161 18.3921 9.86422 18.397 10.2261C18.397 10.3236 18.3592 10.4513 18.5275 10.4583C18.5583 10.435 18.5962 10.4229 18.6349 10.4241C18.6735 10.4252 18.7106 10.4395 18.74 10.4646Z" fill="#FEFEFE"/>
<path d="M16.7721 14.125C16.3773 13.8599 16.2405 13.4847 16.3436 13.033C16.3865 12.8253 16.4889 12.6345 16.6384 12.4841C16.7878 12.3336 16.9779 12.2299 17.1853 12.1857C18.0269 11.9788 18.863 12.0209 19.6576 12.4178C19.7018 12.4329 19.7478 12.4414 19.7944 12.4431C19.8098 12.7005 19.6682 12.6177 19.5419 12.5588C19.1835 12.3905 18.8216 12.2727 18.4113 12.2902C18.146 12.3101 17.884 12.3612 17.6306 12.4424C16.8591 12.6591 16.6164 13.2286 16.8717 13.9272C16.9208 14.0647 16.9671 14.1376 16.7721 14.125Z" fill="#F39626"/>
<path d="M20.7048 20.0161C21.1642 19.2656 21.3831 18.4681 21.1881 17.5858C21.0938 17.1464 20.9049 16.7329 20.6347 16.3738C20.6452 16.2868 20.6775 16.2335 20.7595 16.3177C21.1102 16.6628 21.3817 17.0303 21.4224 17.5605C21.4539 17.9709 21.5942 18.3615 21.4869 18.7915C21.2933 19.563 20.9503 20.2216 20.2139 20.7413C20.3149 20.3857 20.6621 20.3065 20.7048 20.0161Z" fill="#F59924"/>
<path d="M18.3115 23.0887L18.322 21.9069C18.4364 21.8038 18.3732 21.6656 18.3922 21.5436C18.4069 21.4362 18.4862 21.4222 18.5654 21.4033C18.6783 21.3766 18.6643 21.4657 18.6783 21.5288C18.7814 22.0016 18.6335 22.4701 18.6468 22.9421C18.6429 22.9791 18.6293 23.0144 18.6073 23.0444C18.5854 23.0744 18.5559 23.0981 18.5218 23.113C18.4877 23.1279 18.4503 23.1335 18.4134 23.1292C18.3765 23.1249 18.3413 23.111 18.3115 23.0887Z" fill="#F39520"/>
<path d="M20.4102 12.5019C20.4712 12.0923 20.6276 11.7101 20.7608 11.3215C20.9383 11.1686 21.0414 11.2479 21.0197 11.4429C20.9597 11.8734 20.8548 12.2966 20.7068 12.7053C20.6809 12.7832 20.6262 12.8695 20.5322 12.8344C20.3779 12.7762 20.4375 12.6191 20.4102 12.5019Z" fill="#F49925"/>
<path d="M18.7407 10.4725L18.5247 10.4655C18.3844 10.0124 18.491 9.54805 18.4615 9.08934C18.4615 9.04305 18.4693 8.99115 18.5317 8.99536C18.5665 8.99668 18.6004 9.00684 18.6302 9.02488C18.66 9.04291 18.6848 9.06824 18.7021 9.09846C18.7723 9.21699 18.7372 9.34745 18.7393 9.473C18.7407 9.80616 18.7407 10.1393 18.7407 10.4725Z" fill="#F3A038"/>
</svg>
