<svg width="319" height="212" viewBox="0 0 319 212" fill="none" xmlns="http://www.w3.org/2000/svg">
<path d="M104.384 104.977H98.7396L107.449 88.2084H113.698L122.009 104.977H115.739L114.473 101.954H105.741L104.384 104.977ZM112.956 98.3038L110.266 92.2026L107.416 98.3038H112.956ZM123.279 88.208H128.695V104.976H123.279L123.279 88.208ZM131.459 88.208H136.876V91.6291H131.459V88.208ZM131.459 93.2835H136.876V104.957H131.459V93.2835Z" fill="#FF6600"/>
<path d="M139.832 88.2086H145.248V94.9638C145.893 94.3024 146.613 93.8065 147.411 93.4756C148.209 93.1464 149.082 92.9797 150.03 92.9797C151.876 92.9797 153.359 93.5676 154.479 94.7433C155.598 95.9185 156.158 97.4765 156.158 99.4181C156.158 101.185 155.606 102.6 154.501 103.665C153.396 104.73 151.93 105.262 150.099 105.262C149.091 105.262 148.175 105.08 147.354 104.712C146.535 104.345 145.833 103.804 145.248 103.092C145.248 103.479 145.234 103.83 145.202 104.149C145.173 104.468 145.122 104.742 145.054 104.977H139.638C139.699 104.758 139.745 104.483 139.78 104.155C139.815 103.825 139.832 103.449 139.832 103.024V88.2086ZM150.683 99.1834C150.683 98.1521 150.44 97.3401 149.953 96.7448C149.468 96.1488 148.807 95.8518 147.973 95.8518C147.076 95.8518 146.39 96.1384 145.915 96.7108C145.441 97.2833 145.202 98.1132 145.202 99.2056C145.202 100.237 145.443 101.038 145.92 101.61C146.4 102.181 147.067 102.467 147.926 102.467C148.77 102.467 149.44 102.172 149.938 101.581C150.435 100.99 150.683 100.191 150.683 99.1834ZM168.513 103.104C167.998 103.779 167.327 104.279 166.507 104.605C165.686 104.93 164.692 105.094 163.522 105.094C161.855 105.094 160.576 104.798 159.679 104.207C158.782 103.616 158.335 102.78 158.335 101.697C158.335 100.219 159.107 99.1529 160.653 98.4965C162.2 97.8425 164.789 97.4992 168.423 97.4689C168.423 97.4467 168.426 97.4029 168.434 97.3386C168.442 97.2744 168.446 97.2275 168.446 97.1972C168.446 96.6001 168.265 96.1536 167.905 95.8584C167.543 95.5645 167.003 95.4163 166.28 95.4163C165.628 95.4163 165.126 95.5243 164.776 95.7399C164.428 95.9548 164.22 96.279 164.151 96.7094H159.152C159.176 95.4138 159.791 94.4492 161.001 93.8175C162.21 93.1845 164.052 92.8683 166.531 92.8683C168.911 92.8683 170.684 93.237 171.847 93.9756C173.007 94.7129 173.591 95.838 173.591 97.3454V103.298C173.591 103.667 173.609 103.966 173.643 104.193C173.677 104.42 173.735 104.63 173.819 104.827H168.801C168.7 104.548 168.629 104.267 168.582 103.985C168.537 103.701 168.513 103.407 168.513 103.104ZM168.4 99.7692C166.647 99.7692 165.454 99.8835 164.819 100.11C164.182 100.337 163.864 100.734 163.864 101.302C163.864 101.687 164.019 101.988 164.327 102.203C164.636 102.418 165.071 102.527 165.636 102.527C166.557 102.527 167.248 102.312 167.708 101.886C168.169 101.458 168.4 100.813 168.4 99.952V99.7692ZM176.056 88.2086H181.473V94.9638C182.116 94.3024 182.839 93.8065 183.636 93.4756C184.433 93.1464 185.307 92.9797 186.255 92.9797C188.099 92.9797 189.582 93.5676 190.703 94.7433C191.822 95.9185 192.382 97.4765 192.382 99.4181C192.382 101.185 191.829 102.6 190.724 103.665C189.62 104.73 188.154 105.262 186.323 105.262C185.313 105.262 184.399 105.08 183.579 104.712C182.759 104.345 182.057 103.804 181.473 103.092C181.473 103.479 181.457 103.83 181.426 104.149C181.397 104.468 181.347 104.742 181.278 104.977H175.862C175.922 104.758 175.971 104.483 176.004 104.155C176.04 103.825 176.056 103.449 176.056 103.024V88.2086ZM186.907 99.1834C186.907 98.1521 186.664 97.3401 186.178 96.7448C185.692 96.1488 185.031 95.8518 184.195 95.8518C183.3 95.8518 182.614 96.1384 182.139 96.7108C181.665 97.2833 181.426 98.1132 181.426 99.2056C181.426 100.237 181.665 101.038 182.144 101.61C182.624 102.181 183.292 102.467 184.151 102.467C184.994 102.467 185.662 102.172 186.161 101.581C186.659 100.99 186.907 100.191 186.907 99.1834ZM204.737 103.104C204.221 103.779 203.554 104.279 202.732 104.605C201.91 104.93 200.917 105.094 199.746 105.094C198.082 105.094 196.798 104.798 195.903 104.207C195.007 103.616 194.559 102.78 194.559 101.697C194.559 100.219 195.331 99.1529 196.877 98.4965C198.425 97.8425 201.014 97.4992 204.648 97.4689C204.648 97.4467 204.653 97.4029 204.66 97.3386C204.666 97.2744 204.669 97.2275 204.669 97.1972C204.669 96.6001 204.489 96.1536 204.129 95.8584C203.769 95.5645 203.227 95.4163 202.506 95.4163C201.853 95.4163 201.351 95.5243 201.002 95.7399C200.653 95.9548 200.445 96.279 200.376 96.7094H195.378C195.401 95.4138 196.016 94.4492 197.225 93.8175C198.434 93.1845 200.279 92.8683 202.756 92.8683C205.136 92.8683 206.907 93.237 208.072 93.9756C209.235 94.7129 209.816 95.838 209.816 97.3454V103.298C209.816 103.667 209.833 103.966 209.867 104.193C209.901 104.42 209.961 104.63 210.044 104.827H205.025C204.925 104.548 204.852 104.267 204.806 103.985C204.762 103.701 204.737 103.407 204.737 103.104ZM204.624 99.7692C202.873 99.7692 201.679 99.8835 201.042 100.11C200.407 100.337 200.088 100.734 200.088 101.302C200.088 101.687 200.244 101.988 200.552 102.203C200.862 102.418 201.296 102.527 201.861 102.527C202.781 102.527 203.472 102.312 203.935 101.886C204.394 101.458 204.624 100.813 204.624 99.952V99.7692ZM226.303 98.6264V96.6689H233.379V102.837C232.291 103.698 231.172 104.347 230.017 104.782C228.864 105.215 227.677 105.433 226.462 105.433C224.822 105.433 223.331 105.083 221.991 104.382C220.65 103.682 219.64 102.669 218.954 101.344C218.269 100.016 217.929 98.5369 217.929 96.9004C217.929 95.2807 218.269 93.7671 218.95 92.361C219.627 90.9555 220.606 89.9125 221.883 89.2307C223.158 88.549 224.629 88.2087 226.29 88.2087C227.498 88.2087 228.591 88.4038 229.566 88.7941C230.542 89.1856 231.309 89.7291 231.863 90.4275C232.418 91.1253 232.838 92.0343 233.126 93.157L231.125 93.701C230.874 92.8532 230.563 92.1844 230.192 91.6984C229.821 91.2105 229.291 90.8209 228.598 90.5288C227.908 90.2354 227.145 90.0903 226.303 90.0903C225.293 90.0903 224.423 90.2435 223.687 90.551C222.95 90.8591 222.359 91.2642 221.908 91.7657C221.455 92.2659 221.105 92.8167 220.855 93.4163C220.43 94.4489 220.219 95.5703 220.219 96.7763C220.219 98.2664 220.473 99.5107 220.986 100.514C221.498 101.516 222.241 102.26 223.222 102.746C224.197 103.232 225.238 103.475 226.335 103.475C227.291 103.475 228.223 103.291 229.134 102.921C230.042 102.553 230.734 102.159 231.205 101.741V98.6264H226.303ZM236.626 105.206V93.133H238.477V94.9658C238.951 94.1112 239.387 93.5486 239.788 93.2757C240.188 93.0039 240.629 92.8681 241.11 92.8681C241.803 92.8681 242.509 93.0849 243.226 93.5196L242.509 95.416C242.006 95.1239 241.505 94.9782 241.003 94.9782C240.555 94.9782 240.153 95.1116 239.793 95.3802C239.437 95.6501 239.183 96.0243 239.03 96.5004C238.801 97.2285 238.686 98.0232 238.686 98.8872V105.206H236.626ZM243.637 99.1704C243.637 96.9367 244.261 95.2824 245.509 94.2066C246.549 93.3137 247.819 92.8678 249.317 92.8678C250.983 92.8678 252.344 93.41 253.402 94.4963C254.457 95.5825 254.986 97.0843 254.986 98.9999C254.986 100.552 254.751 101.773 254.284 102.662C253.817 103.552 253.136 104.242 252.243 104.735C251.35 105.225 250.373 105.473 249.317 105.473C247.621 105.473 246.251 104.931 245.206 103.848C244.158 102.766 243.637 101.207 243.637 99.1704ZM245.754 99.1734C245.754 100.72 246.093 101.876 246.767 102.645C247.443 103.415 248.292 103.8 249.317 103.8C250.334 103.8 251.181 103.412 251.854 102.64C252.53 101.868 252.867 100.688 252.867 99.1061C252.867 97.613 252.529 96.4822 251.849 95.7128C251.171 94.9446 250.326 94.558 249.317 94.558C248.292 94.558 247.443 94.9421 246.767 95.7072C246.093 96.4724 245.754 97.6278 245.754 99.1734ZM265.633 104.941V103.155C264.689 104.522 263.411 105.207 261.795 105.207C261.078 105.207 260.414 105.071 259.795 104.797C259.175 104.526 258.716 104.183 258.417 103.769C258.116 103.356 257.906 102.851 257.784 102.253C257.7 101.852 257.659 101.216 257.659 100.344V92.8678H259.72V99.5557C259.72 100.623 259.761 101.342 259.844 101.713C259.973 102.251 260.247 102.672 260.663 102.979C261.08 103.285 261.598 103.44 262.211 103.44C262.827 103.44 263.403 103.282 263.943 102.966C264.481 102.654 264.862 102.226 265.085 101.685C265.309 101.144 265.423 100.359 265.423 99.3266V92.8678H267.481V104.941H265.633ZM271.682 109.826V93.1331H273.549V94.7028C273.989 94.0902 274.489 93.6314 275.044 93.3257C275.598 93.0195 276.272 92.8682 277.06 92.8682C278.093 92.8682 279.007 93.1306 279.797 93.6611C280.587 94.1915 281.183 94.9394 281.585 95.9046C281.989 96.8698 282.191 97.9282 282.191 99.078C282.191 100.312 281.968 101.423 281.523 102.411C281.08 103.4 280.433 104.157 279.588 104.683C278.742 105.209 277.851 105.473 276.92 105.473C276.235 105.473 275.623 105.329 275.078 105.043C274.536 104.757 274.089 104.394 273.742 103.957V109.826H271.682ZM273.531 99.2392C273.531 100.794 273.845 101.942 274.477 102.684C275.106 103.429 275.865 103.8 276.762 103.8C277.671 103.8 278.45 103.415 279.1 102.644C279.75 101.876 280.072 100.684 280.072 99.0688C280.072 97.5305 279.757 96.3782 279.122 95.6125C278.49 94.848 277.733 94.4632 276.853 94.4632C275.98 94.4632 275.209 94.872 274.538 95.6859C273.868 96.5017 273.531 97.6855 273.531 99.2392Z" fill="#FF6600"/>
<path d="M44.8771 119.669C44.5766 119.635 44.1071 119.369 43.7738 119.102C40.6021 116.005 44.6745 112.444 49.3856 110.38V104.488C50.487 105.188 51.0892 105.22 51.1214 105.32L54.7279 101.759L53.5255 98.6944C64.0795 95.0658 68.3198 93.6671 76.9032 92.2369L75.3644 90.8036L77.8714 89.374C83.648 91.2729 89.0938 91.7706 88.1565 96.5979C88.3913 93.3355 84.3164 92.0695 78.105 90.3392L76.9032 91.0704L79.2064 92.9687C68.9219 94.7329 62.6095 96.7313 55.0953 99.3274L56.1298 101.991L52.3572 105.686C52.9928 105.853 59.571 108.049 66.4155 103.289C66.4155 103.289 66.5506 103.189 66.5506 103.156C66.3517 102.823 65.8822 102.456 65.3153 101.958C67.3193 102.091 68.6196 103.855 68.3867 105.686H67.4519C67.5182 105.086 67.3844 104.454 67.1855 104.022C61.8754 107.884 55.7302 108.45 50.487 106.619V111.179C47.949 112.078 43.4058 114.872 43.4405 117.572C43.6072 118.869 44.2756 119.335 44.8771 119.669Z" fill="black"/>
<path d="M66.5664 118.14C60.8852 121.003 55.4444 123.3 47.0617 123.633C36.1416 123.399 34.4387 116.174 39.6144 108.618C44.4902 100.995 52.2386 94.1019 64.5618 89.807C68.1336 88.5453 73.3775 87.112 78.4534 87.0454C85.7341 86.978 92.8153 89.2425 92.3463 96.2009C92.0787 101.528 84.3663 109.05 80.2902 114.445C78.5532 116.807 78.2521 118.339 81.2237 118.207C92.0131 117.506 101.797 113.779 110.88 109.916C104.737 114.078 72.9754 129.757 72.8441 119.072C72.8763 117.706 73.51 116.275 74.5452 114.744C75.5487 113.212 76.9506 111.614 78.3865 109.983C80.5572 107.52 85.9336 101.627 87.7368 98.0973C90.7754 91.4064 83.9636 91.0729 78.0855 89.0097L75.5791 90.4393L77.1178 91.8726C68.5344 93.3034 64.2941 94.7015 53.7402 98.3307L54.9426 101.394L51.336 104.956C51.2363 104.856 50.7017 104.824 49.5996 104.124V110.016C44.8892 112.08 40.8161 115.641 43.9878 118.738C44.3217 119.004 44.7913 119.271 45.0917 119.305C50.8683 122.568 66.5967 118.14 66.5664 118.14ZM100.538 121.973H101.286C101.445 121.973 101.566 121.955 101.655 121.928C101.749 121.894 101.816 121.837 101.86 121.77C101.905 121.694 101.932 121.621 101.932 121.537C101.932 121.413 101.884 121.309 101.796 121.23C101.706 121.153 101.566 121.113 101.372 121.113H100.538V121.973ZM100.187 123.456V120.818H101.357C101.59 120.818 101.771 120.842 101.89 120.885C102.013 120.936 102.108 121.015 102.18 121.141C102.257 121.259 102.292 121.39 102.292 121.537C102.292 121.723 102.23 121.883 102.113 122.012C101.989 122.136 101.805 122.217 101.551 122.256C101.645 122.298 101.714 122.341 101.763 122.386C101.86 122.483 101.961 122.596 102.048 122.737L102.508 123.456H102.07L101.725 122.913C101.623 122.748 101.533 122.631 101.472 122.543C101.405 122.461 101.347 122.401 101.293 122.367C101.239 122.335 101.191 122.307 101.136 122.294C101.095 122.291 101.033 122.285 100.941 122.285H100.538V123.456H100.187Z" fill="#FF6600"/>
<path d="M101.253 124.677C102.642 124.677 103.77 123.55 103.77 122.171C103.77 120.785 102.642 119.66 101.253 119.66C99.867 119.66 98.7396 120.785 98.7396 122.171C98.7396 123.55 99.867 124.677 101.253 124.677ZM99.1292 122.171C99.1292 121.002 100.08 120.053 101.253 120.053C102.424 120.053 103.377 121.002 103.377 122.171C103.377 123.334 102.424 124.284 101.253 124.284C100.08 124.284 99.1292 123.334 99.1292 122.171ZM123.279 110.341V124.554C124.269 124.554 125.375 123.659 125.375 122.671V121.926H126.563C127.358 121.885 128.273 120.774 128.273 120.22V117.058C128.273 116.463 127.599 116.032 127.28 115.795C127.599 115.516 128.273 115.043 128.273 114.448V110.341H123.279ZM126.213 115.043C126.213 115.279 126.016 115.677 125.776 115.913C125.739 115.955 125.619 116.073 125.619 116.073C125.6 116.089 125.579 116.111 125.538 116.111H126.213V120.22H125.38V112.079H126.213V115.043ZM134.14 119.547V113.184H129.106V121.881H131.603C132.001 121.842 132.478 121.682 132.87 121.406C133.112 121.247 133.31 121.091 133.508 120.892C133.865 120.497 134.14 120.024 134.14 119.547ZM131.089 114.846H132.159V120.258H131.089V114.846ZM128.589 110.341V112.079H134.627V124.554C135.301 124.554 136.76 123.905 136.76 122.554V112.079C137.194 112.079 137.553 110.814 137.553 110.341H128.589ZM146.649 122.915V121.587H150.882C151.494 121.587 152.047 120.546 152.373 119.983H146.649V118.858H149.832C150.737 118.858 152.209 117.609 152.251 116.967V110.341H138.629V118.858H144.108V119.983H138.629V121.587H144.108V122.915H138.469V124.561H151.243C151.769 124.561 152.251 123.519 152.655 122.915H146.649ZM146.649 115.402H147.737C147.897 115.402 148.06 115.361 148.219 115.239C148.421 115.12 149.389 113.914 149.51 113.791H146.649V111.945H149.752V117.251H146.649V115.402ZM141.087 115.402H144.108V117.25H141.087V115.402ZM141.087 111.945H144.108V113.791H141.087V111.945ZM156.231 122.718V118.714H164.939C165.725 118.714 167.14 117.415 167.177 116.765V110.341H153.66V122.575C153.66 123.553 154.25 124.567 155.353 124.567H165.672C166.45 124.567 167.384 123.33 167.545 122.718H156.231ZM161.757 112.169H164.63V116.885H161.757V112.169ZM156.251 112.169H159.269V116.885H156.251V112.169ZM172.583 122.718V118.714H181.293C182.082 118.714 183.495 117.415 183.537 116.765V110.341H170.019V122.575C170.019 123.553 170.61 124.567 171.711 124.567H182.027C182.805 124.567 183.74 123.33 183.905 122.718H172.583ZM178.114 112.169H180.988V116.885H178.114V112.169ZM172.609 112.169H175.622V116.885H172.609V112.169ZM192.525 120.106V119.66H193.538V120.043H199.678C199.678 120.043 199.528 120.868 198.187 120.868H193.603V123.079C193.603 124.756 192.525 124.957 192.525 124.957V120.931H185.211V120.106H192.525Z" fill="#FF6600"/>
<path d="M187.549 121.99H188.641C188.641 121.99 187.503 123.451 187.16 123.835C186.818 124.214 186.362 124.822 185.702 124.822C185.332 124.822 185.211 124.831 185.211 124.831L187.549 121.99ZM197.989 121.99H196.896C196.896 121.99 198.035 123.451 198.376 123.835C198.719 124.214 199.175 124.822 199.835 124.822C200.203 124.822 200.325 124.831 200.325 124.831L197.989 121.99ZM198.123 111.741C199.43 111.741 199.678 110.914 199.678 110.914H193.553L193.999 110.341H192.993L192.479 110.979H188.361L188.869 110.341H187.819L185.21 113.723H186.326V118.346C186.326 118.346 186.44 118.361 186.59 118.346C188.21 118.346 188.347 118.134 188.347 118.134H198.123C199.423 118.134 199.549 117.36 199.549 117.36H193.467V116.008H198.123C199.405 116.008 199.613 115.189 199.613 115.189H193.467V113.857H198.123C199.405 113.857 199.613 113.022 199.613 113.022H193.467V111.741H198.123ZM187.272 116.071H192.459V117.359H187.272V116.071ZM187.272 113.985H192.459V115.254H187.272V113.985ZM192.461 113.084H187.272L187.267 112.624L187.532 112.249L187.88 111.805H192.461V113.084ZM202.738 110.341V124.699H214.857C215.769 124.699 216.116 123.837 216.071 122.944V110.341H202.738ZM215.091 122.839C215.091 123.359 214.976 123.766 214.291 123.766H203.643V111.175H215.091V122.839Z" fill="#FF6600"/>
<path d="M208.139 116.165L205.076 121.672C205.076 121.672 206.103 121.865 206.572 120.894L209.176 116.178L208.139 116.165Z" fill="#FF6600"/>
<path d="M211.967 120.646C211.967 120.945 211.86 121.093 211.645 121.093H210.623V121.902H211.923C212.725 121.902 212.99 121.61 212.947 120.717C212.947 120.717 212.939 115.352 212.947 115.352C213.957 115.352 214.019 114.51 214.019 114.51L212.947 114.521V112.671H211.967V114.521H205.076V115.413H211.967V120.646Z" fill="#FF6600"/>
</svg>
