<svg width="235" height="156" viewBox="0 0 235 156" fill="none" xmlns="http://www.w3.org/2000/svg">
<path fill-rule="evenodd" clip-rule="evenodd" d="M139.261 93.2985C128.756 101.008 113.53 105.122 100.421 105.122C82.0394 105.122 65.4914 98.3522 52.9721 87.093C51.9887 86.2074 52.8699 85.0009 54.0502 85.6905C67.5609 93.518 84.2663 98.2269 101.523 98.2269C113.16 98.2269 125.963 95.8293 137.735 90.854C139.513 90.1017 141 92.0135 139.261 93.2985Z" fill="#FF9900"/>
<path fill-rule="evenodd" clip-rule="evenodd" d="M143.628 88.3231C142.291 86.6149 134.752 87.516 131.369 87.9156C130.338 88.0411 130.181 87.1477 131.109 86.5053C137.113 82.2978 146.965 83.5123 148.113 84.9226C149.262 86.3408 147.814 96.174 142.172 100.867C141.307 101.588 140.481 101.204 140.866 100.248C142.133 97.0987 144.974 90.0391 143.628 88.3231Z" fill="#FF9900"/>
<path fill-rule="evenodd" clip-rule="evenodd" d="M131.605 56.8014V52.7114C131.605 52.0924 132.077 51.6771 132.643 51.6771H151.033C151.623 51.6771 152.095 52.1001 152.095 52.7114V56.2137C152.087 56.8014 151.591 57.5692 150.71 58.7837L141.181 72.3309C144.722 72.2448 148.46 72.7697 151.67 74.5719C152.394 74.9792 152.591 75.5748 152.646 76.1623V80.5266C152.646 81.1221 151.985 81.8194 151.292 81.459C145.635 78.5052 138.12 78.1839 131.864 81.4903C131.227 81.8352 130.558 81.1456 130.558 80.5502V76.4053C130.558 75.7393 130.566 74.6032 131.235 73.5925L142.275 57.8279H132.667C132.077 57.8279 131.605 57.4126 131.605 56.8014ZM64.5236 82.3209H58.9288C58.3937 82.2818 57.9689 81.8822 57.9295 81.3728V52.782C57.9295 52.2099 58.4094 51.7554 59.0074 51.7554H64.2244C64.7674 51.7788 65.2002 52.1943 65.2396 52.7112V56.4489H65.3419C66.7031 52.8369 69.2605 51.1524 72.707 51.1524C76.2085 51.1524 78.3962 52.8369 79.97 56.4489C81.3234 52.8369 84.4001 51.1524 87.6971 51.1524C90.0419 51.1524 92.6072 52.1161 94.173 54.2787C95.9435 56.684 95.5816 60.1785 95.5816 63.2421L95.5736 81.2868C95.5736 81.8588 95.0937 82.321 94.4957 82.321H88.9088C88.3502 82.282 87.9016 81.8354 87.9016 81.2868V66.1333C87.9016 64.9266 88.0118 61.9177 87.7443 60.774C87.3273 58.8543 86.0762 58.3135 84.455 58.3135C83.1016 58.3135 81.6853 59.2146 81.1108 60.6564C80.5365 62.0982 80.5916 64.5113 80.5916 66.1333V81.2866C80.5916 81.8586 80.1115 82.3209 79.5135 82.3209H73.9267C73.3601 82.2818 72.9194 81.8352 72.9194 81.2866L72.9116 66.1333C72.9116 62.9442 73.4388 58.2511 69.4651 58.2511C65.4442 58.2511 65.6015 62.8267 65.6015 66.1333V81.2866C65.6015 81.8586 65.1216 82.3209 64.5236 82.3209ZM167.927 51.1522C176.228 51.1522 180.722 58.2509 180.722 67.2772C180.722 75.9978 175.756 82.9165 167.927 82.9165C159.775 82.9165 155.337 75.8176 155.337 66.9715C155.337 58.0707 159.83 51.1522 167.927 51.1522ZM167.974 56.9895C163.851 56.9895 163.591 62.5839 163.591 66.0705C163.591 69.5652 163.536 77.0242 167.927 77.0242C172.263 77.0242 172.467 71.0068 172.467 67.3398C172.467 64.9266 172.365 62.0431 171.633 59.7553C171.004 57.7651 169.753 56.9895 167.974 56.9895H167.974ZM191.486 82.3209H185.915C185.356 82.2818 184.908 81.8352 184.908 81.2866L184.9 52.6878C184.947 52.1629 185.412 51.7554 185.978 51.7554H191.163C191.651 51.7788 192.053 52.1082 192.163 52.5546V56.9268H192.265C193.831 53.017 196.026 51.1522 199.89 51.1522C202.4 51.1522 204.847 52.0531 206.421 54.5213C207.885 56.8091 207.885 60.6564 207.885 63.4223V81.4198C207.822 81.9213 207.357 82.3209 206.807 82.3209H201.196C200.685 82.2818 200.26 81.9056 200.205 81.4198V65.8903C200.205 62.764 200.567 58.1881 196.703 58.1881C195.342 58.1881 194.091 59.0971 193.469 60.4761C192.682 62.2235 192.58 63.9628 192.58 65.8905V81.2866C192.572 81.8586 192.084 82.3209 191.486 82.3209ZM116.945 68.6641C116.945 70.8343 117 72.6444 115.899 74.5717C115.01 76.1389 113.593 77.1025 112.027 77.1025C109.879 77.1025 108.62 75.4729 108.62 73.0674C108.62 68.3192 112.893 67.4574 116.945 67.4574V68.6641ZM122.587 82.2426C122.217 82.5716 121.682 82.5952 121.265 82.3758C119.408 80.84 119.07 80.127 118.055 78.6618C114.986 81.7803 112.806 82.7127 108.832 82.7127C104.119 82.7127 100.46 79.8214 100.46 74.0313C100.46 69.5103 102.915 66.431 106.425 64.9266C109.462 63.5946 113.703 63.3595 116.945 62.9912V62.2705C116.945 60.9462 117.048 59.3791 116.261 58.2352C115.584 57.2089 114.278 56.7857 113.121 56.7857C110.989 56.7857 109.092 57.8747 108.628 60.1314C108.533 60.6328 108.164 61.1264 107.652 61.15L102.231 60.5702C101.774 60.4683 101.263 60.1 101.397 59.4027C102.64 52.8525 108.589 50.8779 113.908 50.8779C116.631 50.8779 120.187 51.5988 122.336 53.6517C125.058 56.1825 124.798 59.5593 124.798 63.2342V71.9156C124.798 74.5249 125.884 75.6686 126.907 77.0791C127.262 77.5806 127.34 78.1839 126.884 78.5599C125.743 79.508 123.712 81.2709 122.595 82.2582L122.587 82.2426H122.587ZM43.6005 68.6641C43.6005 70.8343 43.6556 72.6444 42.5538 74.5717C41.6648 76.1389 40.2562 77.1025 38.6824 77.1025C36.5344 77.1025 35.2831 75.4729 35.2831 73.0674C35.2831 68.3192 39.5559 67.4574 43.6005 67.4574V68.6641ZM49.2423 82.2426C48.8726 82.5716 48.3375 82.5952 47.9205 82.3758C46.0634 80.84 45.7328 80.127 44.71 78.6618C41.6411 81.7803 39.4695 82.7127 35.4877 82.7127C30.7823 82.7127 27.1154 79.8214 27.1154 74.0313C27.1154 69.5103 29.5784 66.431 33.0799 64.9266C36.1173 63.5946 40.3585 63.3595 43.6005 62.9912V62.2705C43.6005 60.9462 43.7028 59.3791 42.9237 58.2352C42.2391 57.2089 40.933 56.7857 39.7841 56.7857C37.6517 56.7857 35.7475 57.8747 35.2831 60.1314C35.1887 60.6328 34.8189 61.1264 34.3152 61.15L28.8858 60.5702C28.4294 60.4683 27.926 60.1 28.0518 59.4027C29.3029 52.8525 35.2439 50.8779 40.5632 50.8779C43.2856 50.8779 46.8424 51.5988 48.9906 53.6517C51.713 56.1825 51.4534 59.5593 51.4534 63.2342V71.9156C51.4534 74.5249 52.5393 75.6686 53.5623 77.0791C53.9244 77.5806 54.003 78.1839 53.5466 78.5599C52.4055 79.508 50.3755 81.2709 49.2582 82.2582L49.2424 82.2426" fill="black"/>
</svg>
