<svg width="272" height="182" viewBox="0 0 272 182" fill="none" xmlns="http://www.w3.org/2000/svg">
<path d="M44.6394 110.696H36.7554V90.9696H31.3846V84.5472H36.7551V79.9772C36.7551 74.5617 39.1305 70.6777 46.9932 70.6777C48.6562 70.6777 51.267 71.0142 51.267 71.0142V76.9777H48.5248C45.7307 76.9777 44.6398 77.8308 44.6398 80.1891V84.5472H51.1624L50.5815 90.9696H44.6396L44.6394 110.696ZM62.7295 84.0339C62.6146 84.0339 62.4964 84.0381 62.3794 84.0411C55.0689 84.0411 51.7241 89.5603 51.7241 97.395C51.7241 107.265 56.0628 111.215 62.4366 111.215C66.0832 111.215 68.4791 109.674 69.9354 106.799V110.698H77.4342V84.5499H69.9354V88.5712C68.7463 85.984 66.2835 84.0646 62.7295 84.0339ZM64.6362 90.2128C67.7067 90.2128 69.5496 92.3623 69.5496 96.0186L69.5567 99.7531C69.5567 102.217 68.0345 105.101 64.6362 105.101C59.4117 105.101 59.5513 99.4385 59.5513 97.5527C59.5513 91.2092 62.3349 90.2128 64.6362 90.2128ZM80.4626 97.6256C80.4626 94.4481 80.3111 84.051 93.8074 84.051C99.225 84.051 101.487 85.7799 101.487 85.7799L99.669 91.44C99.669 91.44 97.4097 90.1914 94.4658 90.1914C90.6953 90.1914 88.2893 92.3852 88.2893 96.2452L88.2935 99.013C88.2935 102.722 90.6149 105.198 94.4735 105.198C97.1555 105.198 99.6273 103.938 99.6273 103.938L101.441 109.479C101.441 109.479 99.3725 111.219 93.8452 111.219C80.9947 111.219 80.4628 101.891 80.4628 97.6256H80.4626ZM145.456 84.0411C152.766 84.0411 156.164 89.5603 156.164 97.395C156.164 107.265 151.825 111.215 145.451 111.215C141.804 111.215 139.109 109.674 137.653 106.799V110.698L130.248 110.696V71.4728L138.11 70.7846V88.2169C139.244 85.1671 142.973 84.0411 145.456 84.0411H145.456ZM143.252 90.2128C140.181 90.2128 138.11 92.3623 138.11 96.0186L138.102 99.7531C138.098 102.217 139.537 105.101 143.252 105.101C148.476 105.101 148.336 99.4385 148.336 97.5527C148.336 91.2092 145.553 90.2128 143.252 90.2128ZM115.128 84.0627C106.836 84.0627 102.458 88.6002 102.458 96.6638V98.1619C102.458 108.628 108.606 111.322 115.935 111.322C123.058 111.322 126.283 109.322 126.283 109.322L124.812 103.997C124.812 103.997 121.019 105.616 116.877 105.616C112.584 105.616 110.737 104.518 110.264 100.377H126.911V96.1045C126.911 87.3576 121.998 84.0625 115.128 84.0625L115.128 84.0627ZM115.328 89.3955C118.198 89.3955 120.058 91.162 119.956 95.2589H110.279C110.446 90.9469 112.452 89.3957 115.328 89.3957V89.3955ZM171.84 84.0268C163.324 84.0268 158.842 88.8429 158.842 97.4737C158.842 109.316 166.569 111.222 171.854 111.222C179.59 111.222 184.737 107.041 184.737 97.5813C184.737 87.735 178.95 84.0268 171.84 84.0268ZM171.732 90.2342C175.477 90.2342 176.96 93.0467 176.96 96.2482V99.0006C176.96 102.879 174.884 105.122 171.718 105.122C168.757 105.122 166.676 103.024 166.676 99.0006V96.2482C166.676 91.9575 169.152 90.2342 171.732 90.2342ZM200.399 84.0268C191.884 84.0268 187.401 88.8429 187.401 97.4737C187.401 109.316 195.129 111.222 200.413 111.222C208.15 111.222 213.297 107.041 213.297 97.5813C213.297 87.735 207.509 84.0268 200.399 84.0268ZM200.292 90.2342C204.036 90.2342 205.52 93.0467 205.52 96.2482V99.0006C205.52 102.879 203.444 105.122 200.278 105.122C197.317 105.122 195.236 103.024 195.236 99.0006V96.2482C195.236 91.9575 197.712 90.2342 200.292 90.2342ZM216.268 110.696V71.4728L224.152 70.7848V97.0745L231.975 84.5474H240.301L232.141 97.5218L240.615 110.696H232.265L224.152 97.9038V110.696H216.268Z" fill="#1877F2"/>
</svg>
