<svg width="205" height="136" viewBox="0 0 205 136" fill="none" xmlns="http://www.w3.org/2000/svg">
<path d="M91.1368 69.3559C91.1368 76.7877 85.2944 82.2641 78.1245 82.2641C70.9545 82.2641 65.1121 76.7877 65.1121 69.3559C65.1121 61.8717 70.9545 56.4478 78.1245 56.4478C85.2944 56.4478 91.1368 61.8717 91.1368 69.3559ZM85.4406 69.3559C85.4406 64.7118 82.0545 61.5342 78.1245 61.5342C74.1945 61.5342 70.8083 64.7118 70.8083 69.3559C70.8083 73.9535 74.1945 77.1776 78.1245 77.1776C82.0545 77.1776 85.4406 73.9477 85.4406 69.3559Z" fill="#EA4335"/>
<path d="M119.208 69.3559C119.208 76.7877 113.366 82.2641 106.196 82.2641C99.0261 82.2641 93.1837 76.7877 93.1837 69.3559C93.1837 61.8776 99.0261 56.4478 106.196 56.4478C113.366 56.4478 119.208 61.8717 119.208 69.3559ZM113.512 69.3559C113.512 64.7118 110.126 61.5342 106.196 61.5342C102.266 61.5342 98.8799 64.7118 98.8799 69.3559C98.8799 73.9535 102.266 77.1776 106.196 77.1776C110.126 77.1776 113.512 73.9477 113.512 69.3559Z" fill="#FBBC05"/>
<path d="M146.11 57.2276V80.4018C146.11 89.9345 140.461 93.8279 133.782 93.8279C127.495 93.8279 123.712 89.6435 122.285 86.2215L127.244 84.1671C128.127 86.268 130.291 88.7472 133.776 88.7472C138.052 88.7472 140.701 86.1225 140.701 81.1816V79.3251H140.502C139.227 80.8906 136.771 82.2582 133.671 82.2582C127.185 82.2582 121.244 76.6364 121.244 69.4025C121.244 62.1162 127.185 56.4478 133.671 56.4478C136.765 56.4478 139.221 57.8154 140.502 59.3343H140.701V57.2334H146.11V57.2276ZM141.104 69.4025C141.104 64.8573 138.057 61.5342 134.18 61.5342C130.25 61.5342 126.957 64.8573 126.957 69.4025C126.957 73.9011 130.25 77.1776 134.18 77.1776C138.057 77.1776 141.104 73.9011 141.104 69.4025Z" fill="#4285F4"/>
<path d="M155.029 43.6445V81.4727H149.473V43.6445H155.029Z" fill="#34A853"/>
<path d="M176.679 73.6043L181.101 76.5374C179.674 78.6383 176.235 82.2582 170.293 82.2582C162.924 82.2582 157.421 76.5898 157.421 69.35C157.421 61.6738 162.971 56.4419 169.656 56.4419C176.387 56.4419 179.679 61.7728 180.755 64.6535L181.346 66.1201L164.006 73.2667C165.334 75.8565 167.398 77.1776 170.293 77.1776C173.194 77.1776 175.206 75.7576 176.679 73.6043ZM163.07 68.9601L174.662 64.1705C174.024 62.5584 172.106 61.4352 169.848 61.4352C166.954 61.4352 162.924 63.9784 163.07 68.9601Z" fill="#EA4335"/>
<path d="M44.0818 65.9978V60.5215H62.6266C62.8079 61.4759 62.9015 62.6049 62.9015 63.8271C62.9015 67.9358 61.7728 73.0164 58.1352 76.6363C54.597 80.3027 50.0763 82.2581 44.0876 82.2581C32.9877 82.2581 23.6538 73.2609 23.6538 62.215C23.6538 51.1692 32.9877 42.1719 44.0876 42.1719C50.2283 42.1719 54.6028 44.5696 57.8895 47.6948L54.0063 51.5591C51.6494 49.3592 48.4563 47.6482 44.0818 47.6482C35.9761 47.6482 29.6366 54.1489 29.6366 62.215C29.6366 70.2812 35.9761 76.7818 44.0818 76.7818C49.3394 76.7818 52.3337 74.6809 54.2519 72.772C55.8075 71.2239 56.831 69.0125 57.2345 65.992L44.0818 65.9978Z" fill="#4285F4"/>
</svg>
