<svg width="298" height="198" viewBox="0 0 298 198" fill="none" xmlns="http://www.w3.org/2000/svg">
<path d="M115.312 102.708L113.945 106.566H113.832C113.604 105.696 113.186 104.372 112.503 102.783L105.177 84.4352H98.0029V113.679H102.748V95.6331C102.748 94.4982 102.748 93.212 102.71 91.623C102.672 90.8286 102.596 90.2233 102.558 89.7693H102.672C102.9 90.9043 103.165 91.7365 103.355 92.2662L112.161 113.603H115.502L124.232 92.077C124.422 91.5852 124.612 90.6016 124.802 89.7693H124.915C124.802 91.9257 124.726 93.8551 124.688 95.0278V113.565H129.736V84.3595H122.828L115.312 102.708ZM134.519 92.6067H139.453V113.565H134.519V92.6067ZM137.024 83.7542C136.189 83.7542 135.506 84.0568 134.936 84.5865C134.367 85.1161 134.063 85.7971 134.063 86.6294C134.063 87.4238 134.367 88.1048 134.936 88.6344C135.506 89.164 136.189 89.4288 137.024 89.4288C137.859 89.4288 138.58 89.1262 139.112 88.6344C139.681 88.1048 139.985 87.4238 139.985 86.6294C139.985 85.8349 139.681 85.1539 139.112 84.5865C138.618 84.0568 137.897 83.7542 137.024 83.7542ZM156.952 92.4175C156.041 92.2283 155.092 92.1149 154.181 92.1149C151.942 92.1149 149.892 92.6067 148.184 93.5903C146.476 94.5739 145.109 95.9358 144.236 97.6382C143.325 99.3784 142.87 101.383 142.87 103.691C142.87 105.696 143.325 107.474 144.198 109.101C145.071 110.69 146.286 111.976 147.918 112.846C149.475 113.716 151.297 114.17 153.346 114.17C155.7 114.17 157.711 113.679 159.306 112.771L159.344 112.733V108.193L159.154 108.344C158.433 108.874 157.598 109.328 156.763 109.593C155.889 109.895 155.092 110.047 154.409 110.047C152.435 110.047 150.879 109.479 149.778 108.231C148.639 107.02 148.07 105.356 148.07 103.275C148.07 101.119 148.639 99.4162 149.816 98.1678C150.993 96.9194 152.549 96.2763 154.447 96.2763C156.041 96.2763 157.674 96.8059 159.154 97.8652L159.344 98.0165V93.212L159.306 93.1741C158.66 92.9093 157.939 92.6067 156.952 92.4175ZM173.236 92.2662C172.022 92.2662 170.883 92.6445 169.896 93.4389C169.061 94.1199 168.492 95.1035 167.998 96.2763H167.96V92.6067H163.026V113.565H167.96V102.859C167.96 101.043 168.34 99.5297 169.175 98.4326C170.01 97.2977 171.073 96.7302 172.363 96.7302C172.819 96.7302 173.274 96.8437 173.844 96.9194C174.375 97.0707 174.755 97.222 175.021 97.4112L175.21 97.5625V92.6445L175.096 92.6067C174.755 92.3797 174.072 92.2662 173.236 92.2662ZM186.674 92.1527C183.22 92.1527 180.449 93.1741 178.513 95.1792C176.539 97.1842 175.59 99.9459 175.59 103.426C175.59 106.68 176.577 109.328 178.475 111.257C180.373 113.149 182.954 114.133 186.18 114.133C189.559 114.133 192.254 113.111 194.189 111.068C196.163 109.025 197.112 106.301 197.112 102.935C197.112 99.6054 196.201 96.9572 194.341 95.0278C192.557 93.0985 189.938 92.1527 186.674 92.1527ZM190.621 108.269C189.71 109.441 188.268 110.009 186.484 110.009C184.7 110.009 183.257 109.441 182.233 108.193C181.208 107.02 180.714 105.318 180.714 103.162C180.714 100.929 181.246 99.2271 182.233 98.0165C183.257 96.8059 184.662 96.2006 186.446 96.2006C188.192 96.2006 189.559 96.7681 190.545 97.9408C191.532 99.1136 192.064 100.816 192.064 103.048C191.988 105.318 191.57 107.096 190.621 108.269ZM208.12 101.308C206.564 100.665 205.577 100.173 205.122 99.7567C204.742 99.3784 204.552 98.8488 204.552 98.1678C204.552 97.6003 204.78 97.0329 205.349 96.6546C205.919 96.2763 206.564 96.0871 207.513 96.0871C208.348 96.0871 209.221 96.2384 210.056 96.4654C210.891 96.6924 211.65 97.0329 212.258 97.4869L212.447 97.6382V93.0228L212.334 92.985C211.764 92.758 211.005 92.531 210.094 92.3418C209.183 92.1905 208.348 92.1149 207.665 92.1149C205.311 92.1149 203.375 92.6823 201.857 93.9307C200.339 95.1035 199.618 96.6924 199.618 98.5461C199.618 99.5297 199.769 100.4 200.111 101.119C200.453 101.837 200.946 102.518 201.629 103.086C202.313 103.615 203.3 104.221 204.666 104.788C205.805 105.28 206.678 105.658 207.209 105.961C207.741 106.264 208.082 106.604 208.348 106.869C208.538 107.172 208.652 107.55 208.652 108.042C208.652 109.441 207.589 110.122 205.425 110.122C204.59 110.122 203.717 109.971 202.692 109.631C201.667 109.29 200.718 108.798 199.921 108.231L199.731 108.08V112.884L199.845 112.922C200.567 113.262 201.44 113.489 202.502 113.754C203.565 113.943 204.514 114.095 205.349 114.095C207.892 114.095 209.98 113.527 211.461 112.279C212.979 111.068 213.776 109.517 213.776 107.512C213.776 106.112 213.396 104.864 212.561 103.918C211.461 103.01 210.094 102.064 208.12 101.308ZM226.796 92.1527C223.342 92.1527 220.571 93.1741 218.635 95.1792C216.699 97.1842 215.712 99.9459 215.712 103.426C215.712 106.68 216.699 109.328 218.597 111.257C220.495 113.149 223.076 114.133 226.302 114.133C229.681 114.133 232.376 113.111 234.312 111.068C236.285 109.025 237.234 106.301 237.234 102.935C237.234 99.6054 236.323 96.9572 234.463 95.0278C232.679 93.0985 230.06 92.1527 226.796 92.1527ZM230.705 108.269C229.794 109.441 228.352 110.009 226.568 110.009C224.746 110.009 223.342 109.441 222.317 108.193C221.292 107.02 220.798 105.318 220.798 103.162C220.798 100.929 221.33 99.2271 222.317 98.0165C223.342 96.8059 224.746 96.2006 226.53 96.2006C228.238 96.2006 229.643 96.7681 230.63 97.9408C231.616 99.1136 232.148 100.816 232.148 103.048C232.148 105.318 231.654 107.096 230.705 108.269ZM263.615 96.6546V92.6067H258.643V86.4024L258.491 86.4402L253.784 87.8399L253.67 87.8778V92.6067H246.23V89.9585C246.23 88.7479 246.534 87.8021 247.066 87.1968C247.597 86.5915 248.394 86.2889 249.381 86.2889C250.064 86.2889 250.785 86.4402 251.583 86.7807L251.772 86.8942V82.6193L251.659 82.5814C250.975 82.3544 250.064 82.2031 248.888 82.2031C247.407 82.2031 246.117 82.5436 244.94 83.1111C243.763 83.7542 242.89 84.6243 242.245 85.7971C241.6 86.932 241.258 88.2183 241.258 89.6937V92.6067H237.804V96.6167H241.258V113.565H246.23V96.6546H253.67V107.436C253.67 111.863 255.758 114.095 259.933 114.095C260.617 114.095 261.338 113.981 262.021 113.868C262.742 113.716 263.274 113.527 263.577 113.376L263.615 113.338V109.29L263.426 109.441C263.122 109.631 262.856 109.782 262.401 109.895C262.021 110.009 261.68 110.047 261.414 110.047C260.427 110.047 259.744 109.82 259.25 109.252C258.795 108.723 258.567 107.853 258.567 106.566V96.6546H263.615Z" fill="#737373"/>
<path d="M34.3846 74.5991H57.6531V97.7895H34.3846V74.5991Z" fill="#F25022"/>
<path d="M60.0824 74.5991H83.3509V97.7895H60.0824V74.5991Z" fill="#7FBA00"/>
<path d="M34.3846 100.21H57.6531V123.401H34.3846V100.21Z" fill="#00A4EF"/>
<path d="M60.0824 100.21H83.3509V123.401H60.0824V100.21Z" fill="#FFB900"/>
</svg>
