<svg width="104" height="104" viewBox="0 0 104 104" fill="none" xmlns="http://www.w3.org/2000/svg">
<path d="M35.2739 44.3511C34.963 44.0783 34.5599 43.9342 34.1465 43.9484C33.7332 43.9625 33.3408 44.1336 33.0493 44.427C32.7577 44.7204 32.5891 45.1139 32.5776 45.5273C32.5661 45.9407 32.7127 46.343 32.9875 46.6521C34.5857 48.2473 36.7516 49.1433 39.0098 49.1433C41.2679 49.1433 43.4338 48.2473 45.032 46.6521C45.3356 46.3459 45.5052 45.9316 45.5033 45.5004C45.5015 45.0692 45.3285 44.6563 45.0222 44.3527C44.8706 44.2024 44.6909 44.0834 44.4933 44.0025C44.2957 43.9216 44.0841 43.8805 43.8705 43.8814C43.4393 43.8832 43.0265 44.0562 42.7229 44.3625C41.7347 45.3482 40.3958 45.9018 39 45.9018C37.6042 45.9018 36.2653 45.3482 35.2771 44.3625L35.2739 44.3511Z" fill="#343434"/>
<path d="M34.125 39C34.556 39 34.9693 38.8288 35.274 38.524C35.5788 38.2193 35.75 37.806 35.75 37.375V35.75C35.75 35.319 35.5788 34.9057 35.274 34.601C34.9693 34.2962 34.556 34.125 34.125 34.125C33.694 34.125 33.2807 34.2962 32.976 34.601C32.6712 34.9057 32.5 35.319 32.5 35.75V37.375C32.5 37.806 32.6712 38.2193 32.976 38.524C33.2807 38.8288 33.694 39 34.125 39Z" fill="#343434"/>
<path d="M43.875 39C44.306 39 44.7193 38.8288 45.024 38.524C45.3288 38.2193 45.5 37.806 45.5 37.375V35.75C45.5 35.319 45.3288 34.9057 45.024 34.601C44.7193 34.2962 44.306 34.125 43.875 34.125C43.444 34.125 43.0307 34.2962 42.726 34.601C42.4212 34.9057 42.25 35.319 42.25 35.75V37.375C42.25 37.806 42.4212 38.2193 42.726 38.524C43.0307 38.8288 43.444 39 43.875 39Z" fill="#343434"/>
<path d="M92.625 3.25H53.625C51.7533 3.25479 49.9403 3.90346 48.4904 5.08708C47.0404 6.27069 46.0419 7.91716 45.6625 9.75H40.625C39.1969 9.74986 37.794 10.127 36.5584 10.8432C35.3229 11.5595 34.2984 12.5894 33.5888 13.8288C32.7866 13.289 31.8418 13.0005 30.875 13H27.625C25.4701 13 23.4035 13.856 21.8798 15.3798C20.356 16.9035 19.5 18.9701 19.5 21.125V32.1425C18.9909 32.5959 18.5831 33.1515 18.3031 33.7731C18.0231 34.3947 17.8773 35.0683 17.875 35.75V37.375C17.8789 38.6667 18.3937 39.9045 19.3071 40.8179C20.2205 41.7313 21.4583 42.2461 22.75 42.25H24.375C24.3746 44.3034 24.8087 46.3337 25.6489 48.2074C26.4891 50.0811 27.7164 51.7557 29.25 53.1212V53.625H26C24.1466 53.6291 22.3501 54.2661 20.908 55.4304C19.4659 56.5947 18.4647 58.2166 18.07 60.0275L16.7863 60.3525C12.9155 61.3116 9.47822 63.5412 7.02422 66.6845C4.57022 69.8279 3.2413 73.7034 3.25001 77.6913V99.125C3.25001 99.556 3.42122 99.9693 3.72596 100.274C4.03071 100.579 4.44404 100.75 4.87501 100.75H73.125C73.556 100.75 73.9693 100.579 74.2741 100.274C74.5788 99.9693 74.75 99.556 74.75 99.125V87.75H92.625C94.7799 87.75 96.8465 86.894 98.3703 85.3702C99.894 83.8465 100.75 81.7799 100.75 79.625V11.375C100.75 9.22012 99.894 7.15349 98.3703 5.62976C96.8465 4.10602 94.7799 3.25 92.625 3.25ZM24.375 39H22.75C22.319 39 21.9057 38.8288 21.601 38.524C21.2962 38.2193 21.125 37.806 21.125 37.375V35.75C21.125 35.319 21.2962 34.9057 21.601 34.601C21.9057 34.2962 22.319 34.125 22.75 34.125H24.375V39ZM24.375 29.25V30.875H22.75V21.125C22.7539 19.8333 23.2687 18.5955 24.1821 17.6821C25.0955 16.7687 26.3333 16.2539 27.625 16.25H30.875C31.306 16.25 31.7193 16.4212 32.0241 16.726C32.3288 17.0307 32.5 17.444 32.5 17.875C32.5 18.306 32.6712 18.7193 32.976 19.024C33.2807 19.3288 33.694 19.5 34.125 19.5C34.556 19.5 34.9693 19.3288 35.2741 19.024C35.5788 18.7193 35.75 18.306 35.75 17.875C35.7539 16.5833 36.2687 15.3455 37.1821 14.4321C38.0955 13.5187 39.3333 13.0039 40.625 13H47.125C49.2799 13 51.3465 13.856 52.8703 15.3798C54.394 16.9035 55.25 18.9701 55.25 21.125V30.875H53.625V29.25C53.6212 27.9583 53.1063 26.7205 52.1929 25.8071C51.2795 24.8937 50.0418 24.3789 48.75 24.375H29.25C27.9583 24.3789 26.7205 24.8937 25.8071 25.8071C24.8937 26.7205 24.3789 27.9583 24.375 29.25ZM56.875 35.75V37.375C56.875 37.806 56.7038 38.2193 56.3991 38.524C56.0943 38.8288 55.681 39 55.25 39H53.625V34.125H55.25C55.681 34.125 56.0943 34.2962 56.3991 34.601C56.7038 34.9057 56.875 35.319 56.875 35.75ZM27.625 42.25V29.25C27.625 28.819 27.7962 28.4057 28.101 28.101C28.4057 27.7962 28.819 27.625 29.25 27.625H48.75C49.181 27.625 49.5943 27.7962 49.8991 28.101C50.2038 28.4057 50.375 28.819 50.375 29.25V42.25C50.375 45.2668 49.1766 48.1601 47.0434 50.2933C44.9101 52.4266 42.0168 53.625 39 53.625C35.9832 53.625 33.0899 52.4266 30.9567 50.2933C28.8234 48.1601 27.625 45.2668 27.625 42.25ZM39 61.4738L32.5 57.5737V55.3312C34.5166 56.3458 36.7426 56.8742 39 56.8742C41.2574 56.8742 43.4835 56.3458 45.5 55.3312V57.5737L39 61.4738ZM40.9988 69.1275L39 69.7938L37.05 69.1437L37.2288 66.8688L39 65.455L40.7713 66.885L40.9988 69.1275ZM47.385 60.2388L50.9925 61.1488L46.7513 67.5025L43.4038 64.805C43.3914 64.8033 43.38 64.7976 43.3713 64.7887L41.8438 63.57L47.385 60.2388ZM48.75 57.2325V56.875H52C52.8036 56.8783 53.5941 57.0785 54.3023 57.4581C55.0105 57.8377 55.6149 58.3851 56.0625 59.0525L54.015 58.5487L48.75 57.2325ZM30.615 60.2388L36.1563 63.57L34.6288 64.7887L34.6125 64.805L31.2488 67.5025L27.0075 61.1488L30.615 60.2388ZM26 56.875H29.25V57.2325L23.985 58.5487L21.9375 59.0525C22.3851 58.3851 22.9895 57.8377 23.6977 57.4581C24.406 57.0785 25.1965 56.8783 26 56.875ZM19.5 78C20.1428 78 20.7712 78.1906 21.3056 78.5477C21.8401 78.9048 22.2566 79.4124 22.5026 80.0063C22.7486 80.6001 22.813 81.2536 22.6876 81.884C22.5622 82.5145 22.2526 83.0936 21.7981 83.5481C21.3436 84.0026 20.7645 84.3121 20.1341 84.4376C19.5036 84.563 18.8502 84.4986 18.2563 84.2526C17.6624 84.0066 17.1549 83.5901 16.7977 83.0556C16.4406 82.5211 16.25 81.8928 16.25 81.25C16.2526 80.3888 16.5958 79.5637 17.2048 78.9547C17.8137 78.3458 18.6388 78.0026 19.5 78ZM31.0213 97.5H21.125V91C21.125 90.569 20.9538 90.1557 20.6491 89.851C20.3443 89.5462 19.931 89.375 19.5 89.375C19.069 89.375 18.6557 89.5462 18.351 89.851C18.0462 90.1557 17.875 90.569 17.875 91V97.5H6.50001V77.6913C6.49359 74.43 7.58006 71.2606 9.58596 68.6892C11.5919 66.1177 14.4015 64.2925 17.5663 63.505L17.875 63.4237V74.9775C16.3432 75.373 15.0082 76.3136 14.1203 77.623C13.2324 78.9324 12.8525 80.5207 13.0518 82.0901C13.2512 83.6596 14.0161 85.1024 15.2031 86.1483C16.3902 87.1941 17.918 87.7711 19.5 87.7711C21.0821 87.7711 22.6098 87.1941 23.7969 86.1483C24.984 85.1024 25.7489 83.6596 25.9482 82.0901C26.1476 80.5207 25.7677 78.9324 24.8797 77.623C23.9918 76.3136 22.6568 75.373 21.125 74.9775V62.6112L23.66 61.9775L29.5263 70.7687C29.6473 70.9612 29.8089 71.1249 29.9998 71.2484C30.1906 71.3718 30.4061 71.4522 30.6313 71.4837C30.7118 71.4972 30.7934 71.5027 30.875 71.5C31.2421 71.5009 31.5981 71.3745 31.8825 71.1425L33.6863 69.7125L31.0213 97.5ZM34.2875 97.5L36.7413 72.4587L38.4963 73.0438C38.8234 73.1521 39.1767 73.1521 39.5038 73.0438L41.3075 72.4425L43.7125 97.5H34.2875ZM71.5 97.5H60.125V91C60.125 90.569 59.9538 90.1557 59.6491 89.851C59.3443 89.5462 58.931 89.375 58.5 89.375C58.069 89.375 57.6557 89.5462 57.351 89.851C57.0462 90.1557 56.875 90.569 56.875 91V97.5H46.9788L44.2488 69.6637L46.1175 71.1425C46.4019 71.3745 46.7579 71.5009 47.125 71.5C47.2066 71.5027 47.2883 71.4972 47.3688 71.4837C47.5939 71.4522 47.8094 71.3718 48.0003 71.2484C48.1911 71.1249 48.3527 70.9612 48.4738 70.7687L54.34 61.9775L56.875 62.6112V66.625C56.0139 66.6276 55.1887 66.9708 54.5798 67.5797C53.9708 68.1887 53.6276 69.0138 53.625 69.875V72.8163C52.1443 73.6711 50.9144 74.9004 50.0588 76.3807C49.2031 77.8609 48.7518 79.5402 48.75 81.25V84.5C48.7526 85.3612 49.0958 86.1863 49.7048 86.7953C50.3137 87.4042 51.1389 87.7474 52 87.75H53.625C54.056 87.75 54.4693 87.5788 54.7741 87.274C55.0788 86.9693 55.25 86.556 55.25 86.125C55.25 85.694 55.0788 85.2807 54.7741 84.976C54.4693 84.6712 54.056 84.5 53.625 84.5H52V81.25C52 79.5261 52.6848 77.8728 53.9038 76.6538C55.1228 75.4348 56.7761 74.75 58.5 74.75C60.2239 74.75 61.8772 75.4348 63.0962 76.6538C64.3152 77.8728 65 79.5261 65 81.25V84.5H63.375C62.944 84.5 62.5307 84.6712 62.226 84.976C61.9212 85.2807 61.75 85.694 61.75 86.125C61.75 86.556 61.9212 86.9693 62.226 87.274C62.5307 87.5788 62.944 87.75 63.375 87.75H65C65.8612 87.7474 66.6863 87.4042 67.2953 86.7953C67.9042 86.1863 68.2474 85.3612 68.25 84.5V81.25C68.2483 79.5402 67.7969 77.8609 66.9413 76.3807C66.0856 74.9004 64.8557 73.6711 63.375 72.8163V69.875C63.3724 69.0138 63.0292 68.1887 62.4203 67.5797C61.8113 66.9708 60.9862 66.6276 60.125 66.625V63.4237L60.4338 63.505C63.5985 64.2925 66.4082 66.1177 68.4141 68.6892C70.42 71.2606 71.5064 74.43 71.5 77.6913V97.5ZM60.125 69.875V71.6462C59.0505 71.4512 57.9496 71.4512 56.875 71.6462V69.875H60.125ZM97.5 79.625C97.4962 80.9167 96.9813 82.1545 96.0679 83.0679C95.1545 83.9813 93.9168 84.4961 92.625 84.5H74.75V82.875H76.375C76.806 82.875 77.2193 82.7038 77.5241 82.399C77.8288 82.0943 78 81.681 78 81.25C78 80.819 77.8288 80.4057 77.5241 80.101C77.2193 79.7962 76.806 79.625 76.375 79.625H74.75V78H97.5V79.625ZM97.5 74.75H74.5063C73.9395 71.314 72.3785 68.1193 70.0162 65.5606C67.6539 63.0019 64.5937 61.1913 61.2138 60.3525L59.93 60.0275C59.5353 58.2166 58.5341 56.5947 57.092 55.4304C55.6499 54.2661 53.8535 53.6291 52 53.625H48.75V53.1212C50.2836 51.7557 51.5109 50.0811 52.3511 48.2074C53.1913 46.3337 53.6255 44.3034 53.625 42.25H55.25C56.5418 42.2461 57.7795 41.7313 58.6929 40.8179C59.6063 39.9045 60.1212 38.6667 60.125 37.375V35.75C60.1228 35.0683 59.9769 34.3947 59.6969 33.7731C59.4169 33.1515 59.0091 32.5959 58.5 32.1425V21.125C58.4966 19.4383 58.1192 17.7733 57.395 16.25H97.5V74.75ZM97.5 13H55.0713C53.4094 11.3728 51.288 10.2951 48.9938 9.9125C49.304 8.92602 49.9199 8.06375 50.7524 7.45031C51.5849 6.83688 52.5909 6.50408 53.625 6.5H92.625C93.9168 6.50386 95.1545 7.01871 96.0679 7.93212C96.9813 8.84552 97.4962 10.0833 97.5 11.375V13Z" fill="#343434"/>
<path d="M69.875 11.375H76.375C76.806 11.375 77.2193 11.2038 77.524 10.899C77.8288 10.5943 78 10.181 78 9.75C78 9.31902 77.8288 8.9057 77.524 8.60095C77.2193 8.29621 76.806 8.125 76.375 8.125H69.875C69.444 8.125 69.0307 8.29621 68.726 8.60095C68.4212 8.9057 68.25 9.31902 68.25 9.75C68.25 10.181 68.4212 10.5943 68.726 10.899C69.0307 11.2038 69.444 11.375 69.875 11.375Z" fill="#343434"/>
<path d="M86.4338 59.3775L79.5438 52.4713C79.2393 52.1686 78.8274 51.9987 78.3981 51.9987C77.9688 51.9987 77.557 52.1686 77.2525 52.4713L74.945 54.7788L70.3463 50.18L72.6538 47.8725C72.9564 47.5681 73.1263 47.1562 73.1263 46.7269C73.1263 46.2976 72.9564 45.8858 72.6538 45.5813L65.7475 38.6913C65.4431 38.3886 65.0312 38.2188 64.6019 38.2188C64.1726 38.2188 63.7607 38.3886 63.4563 38.6913L61.165 40.9825C59.6418 42.5062 58.7861 44.5725 58.7861 46.7269C58.7861 48.8814 59.6418 50.9476 61.165 52.4713L72.6538 63.96C73.4066 64.7172 74.3016 65.318 75.2875 65.728C76.2733 66.138 77.3305 66.3491 78.3981 66.3491C79.4658 66.3491 80.523 66.138 81.5088 65.728C82.4947 65.318 83.3897 64.7172 84.1425 63.96L86.4338 61.6688C86.7364 61.3643 86.9063 60.9525 86.9063 60.5232C86.9063 60.0939 86.7364 59.682 86.4338 59.3775ZM81.835 61.6688C80.921 62.5817 79.6819 63.0945 78.39 63.0945C77.0981 63.0945 75.8591 62.5817 74.945 61.6688L63.4563 50.18C62.5433 49.266 62.0306 48.0269 62.0306 46.735C62.0306 45.4432 62.5433 44.2041 63.4563 43.29L64.61 42.1363L69.2088 46.735L68.055 47.8725C67.7529 48.1744 67.5131 48.5328 67.3496 48.9274C67.186 49.3219 67.1018 49.7448 67.1018 50.1719C67.1018 50.599 67.186 51.0219 67.3496 51.4165C67.5131 51.811 67.7529 52.1695 68.055 52.4713L72.6538 57.07C72.9556 57.3722 73.314 57.6119 73.7086 57.7755C74.1031 57.939 74.526 58.0232 74.9531 58.0232C75.3802 58.0232 75.8032 57.939 76.1977 57.7755C76.5922 57.6119 76.9507 57.3722 77.2525 57.07L78.39 55.9163L82.9888 60.515L81.835 61.6688Z" fill="#343434"/>
<path d="M76.375 29.25C75.944 29.25 75.5307 29.4212 75.226 29.726C74.9212 30.0307 74.75 30.444 74.75 30.875C74.75 31.306 74.9212 31.7193 75.226 32.024C75.5307 32.3288 75.944 32.5 76.375 32.5C80.6833 32.5047 84.8138 34.2183 87.8603 37.2647C90.9067 40.3112 92.6203 44.4417 92.625 48.75C92.625 49.181 92.7962 49.5943 93.101 49.899C93.4057 50.2038 93.819 50.375 94.25 50.375C94.681 50.375 95.0943 50.2038 95.399 49.899C95.7038 49.5943 95.875 49.181 95.875 48.75C95.8694 43.58 93.8132 38.6233 90.1574 34.9676C86.5017 31.3118 81.545 29.2556 76.375 29.25Z" fill="#343434"/>
<path d="M76.375 35.75C75.944 35.75 75.5307 35.9212 75.226 36.226C74.9212 36.5307 74.75 36.944 74.75 37.375C74.75 37.806 74.9212 38.2193 75.226 38.524C75.5307 38.8288 75.944 39 76.375 39C78.9601 39.0026 81.4385 40.0306 83.2664 41.8586C85.0944 43.6865 86.1224 46.1649 86.125 48.75C86.125 49.181 86.2962 49.5943 86.601 49.899C86.9057 50.2038 87.319 50.375 87.75 50.375C88.181 50.375 88.5943 50.2038 88.899 49.899C89.2038 49.5943 89.375 49.181 89.375 48.75C89.3711 45.3034 88.0002 41.999 85.5631 39.5619C83.126 37.1248 79.8216 35.7539 76.375 35.75Z" fill="#343434"/>
<path d="M76.375 45.5C77.237 45.5 78.0636 45.8424 78.6731 46.4519C79.2826 47.0614 79.625 47.888 79.625 48.75C79.625 49.181 79.7962 49.5943 80.101 49.899C80.4057 50.2038 80.819 50.375 81.25 50.375C81.681 50.375 82.0943 50.2038 82.399 49.899C82.7038 49.5943 82.875 49.181 82.875 48.75C82.875 47.0261 82.1902 45.3728 80.9712 44.1538C79.7522 42.9348 78.0989 42.25 76.375 42.25C75.944 42.25 75.5307 42.4212 75.226 42.726C74.9212 43.0307 74.75 43.444 74.75 43.875C74.75 44.306 74.9212 44.7193 75.226 45.024C75.5307 45.3288 75.944 45.5 76.375 45.5Z" fill="#343434"/>
<path d="M19.5 82.875C20.3975 82.875 21.125 82.1475 21.125 81.25C21.125 80.3525 20.3975 79.625 19.5 79.625C18.6025 79.625 17.875 80.3525 17.875 81.25C17.875 82.1475 18.6025 82.875 19.5 82.875Z" fill="#343434"/>
</svg>
