<svg width="100" height="100" viewBox="0 0 100 100" fill="none" xmlns="http://www.w3.org/2000/svg">
<path d="M92.6758 30.9852H86.0398C85.2309 30.9852 84.575 31.641 84.575 32.45C84.575 33.259 85.2309 33.9148 86.0398 33.9148H92.6758C95.099 33.9148 97.0703 35.8861 97.0703 38.3094V96.9727C97.0703 97.0266 97.0266 97.0703 96.9727 97.0703H80.668V91.2109H88.1508C89.8125 91.2109 91.1705 89.859 91.1781 88.1973L91.2109 80.9844C91.2264 79.3291 89.834 77.9352 88.1836 77.9434H80.668V72.1687H88.1508C89.8125 72.1687 91.1705 70.817 91.1781 69.1553L91.2109 61.9422C91.2264 60.2869 89.834 58.8932 88.1836 58.9012H80.668V53.0418H88.1508C89.8125 53.0418 91.1705 51.6898 91.1781 50.0281L91.2109 42.815C91.2264 41.16 89.834 39.766 88.1836 39.774H80.668V24.6094C80.668 20.5707 77.3824 17.2852 73.3438 17.2852H68.693C67.9434 7.62832 59.8459 0 50 0C40.1541 0 32.0566 7.62832 31.307 17.2852H26.5625C22.5238 17.2852 19.2383 20.5707 19.2383 24.6094V30.9852H7.32422C3.28555 30.9852 0 34.2707 0 38.3094V96.9727C0 98.642 1.35801 100 3.02734 100H96.9727C98.642 100 100 98.642 100 96.9727V38.3094C100 34.2707 96.7145 30.9852 92.6758 30.9852ZM80.668 42.7039H88.1836C88.1936 42.7039 88.2242 42.7039 88.2527 42.7326C88.2812 42.7613 88.2812 42.7918 88.2812 42.8018L88.2486 50.0147C88.2484 50.0684 88.2045 50.1119 88.151 50.1119H80.668V42.7039ZM80.668 61.8309H88.1836C88.1936 61.8309 88.2242 61.8309 88.2527 61.8596C88.2812 61.8883 88.2812 61.9189 88.2812 61.9289L88.2486 69.1418C88.2484 69.1953 88.2045 69.2391 88.151 69.2391H80.668V61.8309ZM80.668 80.873H88.1836C88.1936 80.873 88.2242 80.873 88.2527 80.9018C88.2812 80.9305 88.2812 80.9611 88.2812 80.9711L88.2486 88.184C88.2484 88.2375 88.2045 88.2812 88.151 88.2812H80.668V80.873ZM19.2383 88.2812H11.8496C11.7951 88.2812 11.7521 88.2389 11.752 88.1846L11.7188 80.9719C11.7188 80.9615 11.7186 80.9305 11.7473 80.9018C11.7758 80.873 11.8064 80.873 11.8164 80.873H19.2383V88.2812ZM19.2383 69.2383H11.8496C11.7951 69.2383 11.7521 69.1959 11.752 69.1416L11.7188 61.9289C11.7188 61.9187 11.7186 61.8883 11.7477 61.859C11.7764 61.8301 11.8064 61.8301 11.8164 61.8301H19.2383V69.2383ZM19.2383 50.1113H11.8496C11.7951 50.1113 11.7521 50.0689 11.752 50.0147L11.7188 42.802C11.7188 42.7918 11.7186 42.7613 11.7477 42.732C11.7764 42.7031 11.8064 42.7031 11.8164 42.7031H19.2383V50.1113ZM19.2383 39.7734H11.8164C10.16 39.7643 8.77441 41.1621 8.78906 42.8154L8.82227 50.0281C8.82988 51.6895 10.1879 53.041 11.8496 53.041H19.2383V58.9004H11.8164C10.16 58.8912 8.77441 60.2893 8.78906 61.9424L8.82227 69.1553C8.82988 70.8166 10.1879 72.1682 11.8496 72.1682H19.2383V77.9436H11.8164C10.159 77.9344 8.77441 79.3312 8.78906 80.9855L8.82227 88.1984C8.82969 89.8594 10.1879 91.2109 11.8496 91.2109H19.2383V97.0703H3.02734C2.97344 97.0703 2.92969 97.0266 2.92969 96.9727V38.3094C2.92969 35.8861 4.90098 33.9148 7.32422 33.9148H19.2383V39.7734ZM50 2.92969C58.7234 2.92969 65.8203 10.0266 65.8203 18.75C65.8203 27.4734 58.7234 34.5703 50 34.5703C41.2766 34.5703 34.1797 27.4734 34.1797 18.75C34.1797 10.0266 41.2766 2.92969 50 2.92969ZM63.0906 97.0703H51.4648V71.2746H63.0906V97.0703ZM33.9797 68.3449V65.4152H66.0205V68.3449H33.9797ZM77.7383 97.0703H66.0203V71.2746C67.5494 71.3633 68.9598 70.2449 68.95 68.6379V65.1223C68.95 63.6684 67.7672 62.4855 66.3133 62.4855H33.6867C32.2328 62.4855 31.05 63.6684 31.05 65.1223V68.6379C31.0396 70.1773 32.4248 71.4348 33.9797 71.2746V81.6475C33.9797 82.4564 34.6355 83.1123 35.4445 83.1123C36.2535 83.1123 36.9094 82.4564 36.9094 81.6475V71.2746H48.5352V97.0703H36.9094V88.4834C36.9094 87.6744 36.2535 87.0186 35.4445 87.0186C34.6355 87.0186 33.9797 87.6744 33.9797 88.4834V97.0703H22.168V24.6094C22.168 22.1861 24.1393 20.2148 26.5625 20.2148H31.307C32.0566 29.8717 40.1541 37.5 50 37.5C59.8459 37.5 67.9434 29.8717 68.693 20.2148H73.3438C75.767 20.2148 77.7383 22.1861 77.7383 24.6094V97.0703ZM45.6055 23.1445V29.0039C45.6055 30.4578 46.7883 31.6406 48.2422 31.6406H51.7578C53.2117 31.6406 54.3945 30.4578 54.3945 29.0039V23.1445H60.2539C61.7078 23.1445 62.8906 21.9617 62.8906 20.5078V16.9922C62.8906 15.5383 61.7078 14.3555 60.2539 14.3555H54.3945V8.49609C54.3945 7.04219 53.2117 5.85938 51.7578 5.85938H48.2422C46.7883 5.85938 45.6055 7.04219 45.6055 8.49609V14.3555H39.7461C38.2922 14.3555 37.1094 15.5383 37.1094 16.9922V20.5078C37.1094 21.9617 38.2922 23.1445 39.7461 23.1445H45.6055ZM40.0391 17.2852H46.4844C47.6152 17.2852 48.5352 16.3652 48.5352 15.2344V8.78906H51.4648V15.2344C51.4648 16.3652 52.3848 17.2852 53.5156 17.2852H59.9609V20.2148H53.5156C52.3848 20.2148 51.4648 21.1348 51.4648 22.2656V28.7109H48.5352V22.2656C48.5352 21.1348 47.6152 20.2148 46.4844 20.2148H40.0391V17.2852ZM44.1406 87.1365C44.9496 87.1365 45.6055 86.4807 45.6055 85.6717V82.6734C45.6055 81.8644 44.9496 81.2086 44.1406 81.2086C43.3316 81.2086 42.6758 81.8644 42.6758 82.6734V85.6717C42.6758 86.4807 43.3316 87.1365 44.1406 87.1365ZM44.043 43.3594H31.0945C29.4326 43.3594 28.0746 44.7113 28.0672 46.373L28.0346 53.5857C28.017 55.2326 29.408 56.6363 31.0619 56.627H44.043C45.7123 56.627 47.0703 55.2689 47.0703 53.5996V46.3867C47.0703 44.7174 45.7123 43.3594 44.043 43.3594ZM44.1406 53.5996C44.1406 53.6535 44.0969 53.6973 44.043 53.6973H31.0617C31.0229 53.7023 30.9588 53.6381 30.9641 53.5992L30.9967 46.3861C30.9969 46.3326 31.0406 46.2891 31.0943 46.2891H44.043C44.0969 46.2891 44.1406 46.3328 44.1406 46.3867V53.5996ZM55.8594 87.1365C56.6684 87.1365 57.3242 86.4807 57.3242 85.6717V82.6734C57.3242 81.8644 56.6684 81.2086 55.8594 81.2086C55.0504 81.2086 54.3945 81.8644 54.3945 82.6734V85.6717C54.3945 86.4807 55.0504 87.1365 55.8594 87.1365ZM68.8914 43.3594H55.957C54.2877 43.3594 52.9297 44.7174 52.9297 46.3867V53.5996C52.9297 55.2689 54.2877 56.627 55.957 56.627H68.8586C70.5203 56.627 71.8783 55.275 71.8859 53.6133L71.9186 46.4002C71.9342 44.7453 70.5416 43.3514 68.8914 43.3594ZM68.9563 53.6C68.9561 53.6535 68.9121 53.6973 68.8586 53.6973H55.957C55.9031 53.6973 55.8594 53.6535 55.8594 53.5996V46.3867C55.8594 46.3328 55.9031 46.2891 55.957 46.2891H68.8914C68.9014 46.2891 68.932 46.2891 68.9605 46.3178C68.9891 46.3465 68.9891 46.377 68.9891 46.3869L68.9563 53.6Z" fill="#282828"/>
</svg>
