<svg width="102" height="102" viewBox="0 0 102 102" fill="none" xmlns="http://www.w3.org/2000/svg">
<path d="M94.4512 25.2884C92.9788 25.2884 91.7295 26.258 91.3061 27.592H89.2576C89.0942 25.7843 88.4904 24.1027 87.555 22.6534L90.6905 19.5179C92.4837 20.6685 94.8893 20.4614 96.4591 18.8915C98.2692 17.0816 98.27 14.1513 96.4591 12.3406C95.5842 11.4656 94.4211 10.9837 93.1838 10.9837C90.6236 10.9837 88.5515 13.0556 88.5515 15.616C88.5515 16.5138 88.8083 17.3711 89.2819 18.1092L86.3181 21.073C84.5285 19.171 82.0709 17.9062 79.3231 17.6576V10.6283C80.6569 10.2048 81.6267 8.95548 81.6267 7.48325C81.6267 5.66379 80.1465 4.18359 78.327 4.18359C76.5076 4.18359 75.0274 5.66379 75.0274 7.48325C75.0274 8.95548 75.997 10.205 77.3309 10.6283V17.6576C75.0511 17.8637 72.97 18.7684 71.3052 20.1574L69.8541 18.7064C70.4948 17.4759 70.3127 15.907 69.2586 14.8534C67.9693 13.564 65.882 13.5636 64.5925 14.8534C63.303 16.1425 63.3026 18.2301 64.5925 19.5197C65.646 20.5733 67.2148 20.7558 68.4456 20.1151L69.8965 21.5662C68.4934 23.248 67.5852 25.3548 67.3913 27.6619H63.9801C63.5324 25.8612 61.9066 24.5208 59.9692 24.5208C57.688 24.5208 55.8318 26.3768 55.8318 28.658C55.8318 30.9393 57.6878 32.7952 59.9692 32.7952C61.9066 32.7952 63.5324 31.4548 63.9801 29.6541H67.4019C67.6202 31.9069 68.5217 33.9622 69.8965 35.6102L68.4456 37.0613C67.2154 36.4206 65.6466 36.6025 64.5925 37.6567C63.9691 38.2799 63.6259 39.1084 63.6259 39.9898C63.6259 41.8132 65.1015 43.2894 66.9255 43.2894C67.8069 43.2894 68.6354 42.9462 69.2586 42.323C70.3125 41.2694 70.4949 39.7007 69.8541 38.4699L71.3052 37.019C72.97 38.408 75.0511 39.3128 77.3309 39.5188V41.5676C75.9972 41.9909 75.0274 43.2404 75.0274 44.7127C75.0274 46.5321 76.5076 48.0123 78.327 48.0123C80.1465 48.0123 81.6267 46.5321 81.6267 44.7127C81.6267 43.2404 80.6571 41.9909 79.3231 41.5676V39.5188C81.603 39.3126 83.684 38.408 85.3489 37.019L86.8 38.4699C86.1593 39.7005 86.3414 41.2694 87.3955 42.323C88.6848 43.6124 90.772 43.6128 92.0616 42.323C93.3511 41.0339 93.3515 38.9463 92.0616 37.6567C91.0081 36.6029 89.4393 36.4204 88.2085 37.0613L86.7576 35.6102C88.1467 33.9453 89.0514 31.8642 89.2576 29.5842H91.3061C91.7295 30.9182 92.9788 31.8877 94.4512 31.8877C96.2707 31.8877 97.7509 30.4076 97.7509 28.5881C97.7509 26.7686 96.2707 25.2884 94.4512 25.2884ZM91.3167 13.7491C92.3486 12.7171 94.0187 12.7171 95.0504 13.7491C96.0798 14.7784 96.0798 16.4533 95.0504 17.4826C94.0185 18.5146 92.3484 18.5146 91.3167 17.4826C90.2873 16.4531 90.2873 14.7784 91.3167 13.7491ZM78.3268 6.17578C79.0476 6.17578 79.6343 6.76228 79.6343 7.48325C79.6343 8.20423 79.0478 8.79073 78.3268 8.79073C77.6061 8.79073 77.0194 8.20423 77.0194 7.48325C77.0194 6.76228 77.6061 6.17578 78.3268 6.17578ZM65.6179 17.1864C65.6179 16.8372 65.7539 16.5089 66.0008 16.262C66.5118 15.751 67.3385 15.751 67.8497 16.262C68.0966 16.5089 68.2326 16.8372 68.2326 17.1864C68.2326 17.9088 67.6477 18.4939 66.9251 18.4939C66.5761 18.4937 65.6179 17.909 65.6179 17.1864ZM59.969 30.8026C58.7861 30.8026 57.8238 29.8404 57.8238 28.6576C57.8238 27.4749 58.7861 26.5126 59.969 26.5126C61.1518 26.5126 62.114 27.4749 62.114 28.6576C62.1138 29.8404 61.1516 30.8026 59.969 30.8026ZM66.9253 41.2969C66.2028 41.2969 65.6179 40.7121 65.6179 39.9894C65.6179 39.267 66.2028 38.6819 66.9253 38.6819C67.6479 38.6819 68.2328 39.2666 68.2328 39.9894C68.2326 40.3386 67.6479 41.2969 66.9253 41.2969ZM78.3268 46.0195C77.6061 46.0195 77.0194 45.433 77.0194 44.7121C77.0194 43.9911 77.6059 43.4046 78.3268 43.4046C79.0476 43.4046 79.6343 43.9911 79.6343 44.7121C79.6343 45.433 79.0476 46.0195 78.3268 46.0195ZM91.0358 39.9894C91.0358 40.7117 90.4511 41.2969 89.7283 41.2969C89.3791 41.2969 89.051 41.1608 88.8037 40.914C88.2928 40.4032 88.2928 39.576 88.8037 39.0652C89.0508 38.8182 89.3791 38.6823 89.7283 38.6823C90.4511 38.6821 91.0358 39.2668 91.0358 39.9894ZM78.3268 37.5735C73.3721 37.5735 69.3411 33.5427 69.3411 28.5879C69.3411 23.6331 73.3719 19.6023 78.3268 19.6023C83.2816 19.6023 87.3124 23.6331 87.3124 28.5879C87.3124 33.5427 83.2816 37.5735 78.3268 37.5735ZM94.4512 29.8954C93.7304 29.8954 93.1437 29.3089 93.1437 28.5879C93.1437 27.8669 93.7302 27.2804 94.4512 27.2804C95.172 27.2804 95.7587 27.8669 95.7587 28.5879C95.7587 29.3089 95.172 29.8954 94.4512 29.8954Z" fill="#282828"/>
<path d="M80.6303 22.2173C78.8109 22.2173 77.3307 23.6975 77.3307 25.5167C77.3307 27.336 78.8109 28.8164 80.6303 28.8164C82.4498 28.8164 83.93 27.3362 83.93 25.5167C83.93 23.6973 82.4496 22.2173 80.6303 22.2173ZM80.6303 26.8242C79.9096 26.8242 79.3229 26.2377 79.3229 25.5167C79.3229 24.7958 79.9094 24.2095 80.6303 24.2095C81.3511 24.2095 81.9378 24.796 81.9378 25.5167C81.9376 26.2377 81.3511 26.8242 80.6303 26.8242Z" fill="#282828"/>
<path d="M76.0235 29.8955C74.6276 29.8955 73.4918 31.0313 73.4918 32.4272C73.4918 33.8231 74.6276 34.9589 76.0235 34.9589C77.4194 34.9589 78.5552 33.8231 78.5552 32.4272C78.5552 31.0313 77.4192 29.8955 76.0235 29.8955ZM76.0235 32.9667C75.7261 32.9667 75.484 32.7246 75.484 32.4272C75.484 32.1295 75.7261 31.8877 76.0235 31.8877C76.3209 31.8877 76.563 32.1297 76.563 32.4272C76.563 32.7246 76.3209 32.9667 76.0235 32.9667Z" fill="#282828"/>
<path d="M47.8286 62.5415L52.6965 57.6736C55.0662 59.3787 58.4089 59.1851 60.5667 57.0274C62.9463 54.6475 62.9463 50.7749 60.5665 48.395C58.1812 46.0096 54.3198 46.0094 51.9343 48.395C49.7943 50.535 49.5798 53.8813 51.2885 56.2648L46.5943 60.959C44.0486 58.1002 40.4302 56.2195 36.3765 55.9526V45.3952C38.2301 44.9455 39.6122 43.2765 39.6122 41.2867C39.6122 38.9532 37.7139 37.0547 35.3804 37.0547C33.0468 37.0547 31.1484 38.953 31.1484 41.2867C31.1484 43.2765 32.5308 44.9455 34.3843 45.3952V55.9524C30.9922 56.1757 27.9056 57.5296 25.4964 59.6411L22.9741 57.119C23.3765 56.4618 23.5959 55.7071 23.5959 54.9172C23.5959 52.5788 21.7033 50.6854 19.3638 50.6854C18.2335 50.6854 17.1709 51.1255 16.3716 51.925C14.7217 53.5747 14.7217 56.2596 16.3716 57.9099C17.7852 59.3232 19.9346 59.5264 21.5656 58.5277L24.0879 61.0498C21.9561 63.4825 20.5952 66.605 20.3916 70.0358H14.9065C14.4376 67.5278 12.2334 65.6233 9.59137 65.6233C6.60907 65.6233 4.18298 68.0495 4.18298 71.0318C4.18298 74.0141 6.60927 76.4404 9.59137 76.4404C12.2334 76.4404 14.4376 74.5357 14.9065 72.0279H20.4062C20.6492 75.3814 21.9963 78.432 24.0875 80.8179L21.5652 83.34C19.9336 82.3407 17.7844 82.5447 16.371 83.9578C14.7213 85.6079 14.7213 88.2928 16.3712 89.9427C18.0249 91.596 20.7018 91.5968 22.3559 89.9427C23.1554 89.1432 23.5957 88.0806 23.5957 86.9502C23.5957 86.1603 23.3761 85.4057 22.9739 84.7485L25.4962 82.2263C27.9056 84.3379 30.9921 85.6918 34.3841 85.9151V89.4759C32.5304 89.9256 31.1482 91.5946 31.1482 93.5846C31.1482 95.918 33.0466 97.8164 35.3802 97.8164C37.7137 97.8164 39.612 95.918 39.612 93.5846C39.612 91.5946 38.2299 89.9256 36.3763 89.4759V85.9153C39.7684 85.692 42.8551 84.3381 45.2643 82.2265L47.7872 84.7494C46.7947 86.3783 46.9973 88.5358 48.4044 89.9427C50.0575 91.5962 52.7348 91.597 54.3889 89.9429C56.0428 88.289 56.0434 85.6121 54.3889 83.958C52.9756 82.5445 50.8263 82.3413 49.1951 83.3402L46.673 80.8181C48.7843 78.4087 50.1382 75.3222 50.3615 71.9301H53.9225C54.3722 73.7837 56.0412 75.1658 58.031 75.1658C60.3647 75.1658 62.263 73.2675 62.263 70.934C62.263 68.6006 60.3647 66.7022 58.031 66.7022C56.0412 66.7022 54.3722 68.0844 53.9225 69.9379H50.3615C50.1818 67.2114 49.2753 64.6806 47.8286 62.5415ZM53.3428 49.8037C54.9495 48.197 57.5507 48.1966 59.1578 49.8037C60.7609 51.4068 60.7609 54.0156 59.1578 55.6187C57.5507 57.2254 54.9499 57.2256 53.343 55.6187C51.7397 54.0156 51.7397 51.4068 53.3428 49.8037ZM33.1404 41.2869C33.1404 40.0519 34.1453 39.0471 35.3802 39.0471C36.6152 39.0471 37.6199 40.0519 37.6199 41.2869C37.6199 42.5218 36.6152 43.5265 35.3802 43.5265C34.1453 43.5265 33.1404 42.5216 33.1404 41.2869ZM17.7799 56.5012C16.9065 55.6279 16.9065 54.2068 17.7797 53.3338C18.2028 52.9107 18.7652 52.6778 19.3635 52.6778C20.6012 52.6778 21.6033 53.6795 21.6033 54.9174C21.6033 56.1554 20.6016 57.1571 19.3635 57.1571C18.7654 57.1571 18.2028 56.9242 17.7799 56.5012ZM9.59157 74.4484C7.70776 74.4484 6.17537 72.9159 6.17537 71.032C6.17537 69.1482 7.70776 67.6156 9.59157 67.6156C11.4754 67.6156 13.008 69.1482 13.008 71.032C13.008 72.9159 11.4754 74.4484 9.59157 74.4484ZM19.3635 89.19C18.7652 89.19 18.2028 88.9571 17.7797 88.5342C16.9065 87.6608 16.9065 86.2398 17.7797 85.3666C18.6548 84.4915 20.0715 84.4909 20.9472 85.3664C21.3702 85.7896 21.6033 86.352 21.6033 86.9502C21.6035 88.1884 20.6016 89.19 19.3635 89.19ZM37.6199 93.5848C37.6199 94.8198 36.6152 95.8244 35.3802 95.8244C34.1453 95.8244 33.1404 94.8198 33.1404 93.5848C33.1404 92.3498 34.1453 91.345 35.3802 91.345C36.6152 91.345 37.6199 92.3498 37.6199 93.5848ZM53.6365 86.9504C53.6365 87.5487 53.4034 88.1111 52.9804 88.5342C52.1049 89.4092 50.6886 89.4094 49.813 88.5342C48.9399 87.6608 48.9399 86.2398 49.813 85.3666C50.2362 84.9437 50.7986 84.7108 51.3968 84.7108C52.6344 84.7108 53.6365 85.7125 53.6365 86.9504ZM35.3802 83.9597C28.1976 83.9597 22.3543 78.1165 22.3543 70.9338C22.3543 63.7512 28.1976 57.9079 35.3802 57.9079C42.5627 57.9079 48.406 63.7512 48.406 70.9338C48.406 78.1165 42.5627 83.9597 35.3802 83.9597ZM58.0308 68.6942C59.2658 68.6942 60.2706 69.6989 60.2706 70.9338C60.2706 72.1688 59.2658 73.1734 58.0308 73.1734C56.7959 73.1734 55.7912 72.1688 55.7912 70.9338C55.7912 69.6989 56.7959 68.6942 58.0308 68.6942Z" fill="#282828"/>
<path d="M91.3412 55.9805C92.1664 55.9805 92.8353 55.3115 92.8353 54.4863C92.8353 53.6611 92.1664 52.9922 91.3412 52.9922C90.516 52.9922 89.847 53.6611 89.847 54.4863C89.847 55.3115 90.516 55.9805 91.3412 55.9805Z" fill="#282828"/>
<path d="M71.4193 55.9805C72.2445 55.9805 72.9135 55.3115 72.9135 54.4863C72.9135 53.6611 72.2445 52.9922 71.4193 52.9922C70.5941 52.9922 69.9252 53.6611 69.9252 54.4863C69.9252 55.3115 70.5941 55.9805 71.4193 55.9805Z" fill="#282828"/>
<path d="M55.4818 11.1562C56.307 11.1562 56.976 10.4873 56.976 9.66211C56.976 8.83692 56.307 8.16797 55.4818 8.16797C54.6566 8.16797 53.9877 8.83692 53.9877 9.66211C53.9877 10.4873 54.6566 11.1562 55.4818 11.1562Z" fill="#282828"/>
<path d="M47.5131 34.0664C48.3383 34.0664 49.0072 33.3975 49.0072 32.5723C49.0072 31.7471 48.3383 31.0781 47.5131 31.0781C46.6879 31.0781 46.0189 31.7471 46.0189 32.5723C46.0189 33.3975 46.6879 34.0664 47.5131 34.0664Z" fill="#282828"/>
<path d="M12.6498 38.0508C13.475 38.0508 14.1439 37.3818 14.1439 36.5566C14.1439 35.7314 13.475 35.0625 12.6498 35.0625C11.8246 35.0625 11.1556 35.7314 11.1556 36.5566C11.1556 37.3818 11.8246 38.0508 12.6498 38.0508Z" fill="#282828"/>
<path d="M70.4232 88.8516C71.2484 88.8516 71.9174 88.1826 71.9174 87.3574C71.9174 86.5322 71.2484 85.8633 70.4232 85.8633C69.598 85.8633 68.9291 86.5322 68.9291 87.3574C68.9291 88.1826 69.598 88.8516 70.4232 88.8516Z" fill="#282828"/>
<path d="M38.616 62.3872C36.2825 62.3872 34.3842 64.2856 34.3842 66.619C34.3842 68.9527 36.2825 70.851 38.616 70.851C40.9494 70.851 42.8478 68.9527 42.8478 66.619C42.8478 64.2858 40.9494 62.3872 38.616 62.3872ZM38.616 68.859C37.381 68.859 36.3763 67.8542 36.3763 66.6192C36.3763 65.3843 37.381 64.3796 38.616 64.3796C39.8509 64.3796 40.8556 65.3843 40.8556 66.6192C40.8556 67.8542 39.8509 68.859 38.616 68.859Z" fill="#282828"/>
<path d="M32.1443 73.1733C30.4057 73.1733 28.9911 74.588 28.9911 76.3268C28.9911 78.0656 30.4057 79.48 32.1443 79.48C33.8833 79.48 35.2978 78.0654 35.2978 76.3268C35.2978 74.5878 33.8831 73.1733 32.1443 73.1733ZM32.1443 77.4878C31.504 77.4878 30.9833 76.9671 30.9833 76.3268C30.9833 75.6865 31.504 75.1655 32.1443 75.1655C32.7846 75.1655 33.3056 75.6865 33.3056 76.3268C33.3056 76.9671 32.7846 77.4878 32.1443 77.4878Z" fill="#282828"/>
<path d="M24.1049 29.0859C28.4988 29.0859 32.0736 25.5112 32.0736 21.1172C32.0736 16.7232 28.4988 13.1484 24.1049 13.1484C19.7109 13.1484 16.1361 16.7232 16.1361 21.1172C16.1361 25.5112 19.7111 29.0859 24.1049 29.0859ZM24.1049 15.1406C27.4003 15.1406 30.0814 17.8217 30.0814 21.1172C30.0814 24.4127 27.4003 27.0938 24.1049 27.0938C20.8094 27.0938 18.1283 24.4127 18.1283 21.1172C18.1283 17.8217 20.8094 15.1406 24.1049 15.1406Z" fill="#282828"/>
<path d="M84.8666 63.9492C81.0219 63.9492 77.8939 67.0772 77.8939 70.9219C77.8939 74.7666 81.0219 77.8945 84.8666 77.8945C88.7113 77.8945 91.8392 74.7666 91.8392 70.9219C91.8392 67.0772 88.7113 63.9492 84.8666 63.9492ZM84.8666 75.9023C82.1203 75.9023 79.8861 73.6681 79.8861 70.9219C79.8861 68.1756 82.1203 65.9414 84.8666 65.9414C87.6128 65.9414 89.847 68.1756 89.847 70.9219C89.847 73.6681 87.6128 75.9023 84.8666 75.9023Z" fill="#282828"/>
</svg>
