<svg width="102" height="102" viewBox="0 0 102 102" fill="none" xmlns="http://www.w3.org/2000/svg">
<g clip-path="url(#clip0_188_247)">
<path d="M7.96875 27.0938H4.78125V14.3438C4.78125 13.0757 5.28499 11.8596 6.18165 10.9629C7.0783 10.0662 8.29443 9.5625 9.5625 9.5625H66.9375V12.75H9.5625C9.13981 12.75 8.73444 12.9179 8.43555 13.2168C8.13666 13.5157 7.96875 13.9211 7.96875 14.3438V27.0938Z" fill="#282828"/>
<path d="M95.625 76.5H6.375C5.95231 76.5 5.54693 76.3321 5.24805 76.0332C4.94916 75.7343 4.78125 75.3289 4.78125 74.9062V55.7812H7.96875V73.3125H94.0312V31.875H97.2188V74.9062C97.2188 75.3289 97.0508 75.7343 96.752 76.0332C96.4531 76.3321 96.0477 76.5 95.625 76.5Z" fill="#282828"/>
<path d="M94.0312 25.5H97.2188V28.6875H94.0312V25.5Z" fill="#282828"/>
<path d="M7.96876 86.0625H1.59376C1.32206 86.0626 1.05485 85.9933 0.817488 85.8611C0.580129 85.7289 0.380509 85.5382 0.237588 85.3071C0.094668 85.076 0.0131923 84.8123 0.000899831 84.5409C-0.0113926 84.2694 0.0459063 83.9994 0.167354 83.7563L4.9486 74.1938C5.08099 73.9289 5.28458 73.7061 5.53654 73.5504C5.78849 73.3948 6.07884 73.3124 6.37501 73.3125H15.9375V76.5H7.35995L4.17245 82.875H7.96876V86.0625Z" fill="#282828"/>
<path d="M11.1562 82.875H14.3438V86.0625H11.1562V82.875Z" fill="#282828"/>
<path d="M100.406 86.0625H17.5312V82.875H97.8276L94.6401 76.5H90.8438V73.3125H95.625C95.9225 73.3109 96.2146 73.3926 96.4681 73.5483C96.7216 73.7041 96.9264 73.9277 97.0594 74.1939L101.841 83.7564C101.962 84 102.02 84.2708 102.007 84.5429C101.994 84.815 101.912 85.0793 101.768 85.3105C101.624 85.5418 101.424 85.7324 101.185 85.864C100.947 85.9957 100.679 86.064 100.406 86.0625Z" fill="#282828"/>
<path d="M94.0312 92.4375H7.96875C5.85608 92.435 3.83067 91.5946 2.33679 90.1007C0.842906 88.6068 0.00253065 86.5814 0 84.4688H3.1875C3.1875 85.7368 3.69124 86.9529 4.5879 87.8496C5.48455 88.7463 6.70068 89.25 7.96875 89.25H94.0312C95.2993 89.25 96.5154 88.7463 97.4121 87.8496C98.3088 86.9529 98.8125 85.7368 98.8125 84.4688H102C101.997 86.5814 101.157 88.6068 99.6632 90.1007C98.1693 91.5946 96.1439 92.435 94.0312 92.4375Z" fill="#282828"/>
<path d="M63.75 86.0625H38.25C37.9976 86.0623 37.7489 86.0022 37.5243 85.887C37.2996 85.7719 37.1056 85.6051 36.9581 85.4003C36.8105 85.1955 36.7138 84.9586 36.6757 84.7091C36.6376 84.4596 36.6594 84.2046 36.7391 83.9651L38.3329 79.1839C38.4385 78.8666 38.6413 78.5907 38.9124 78.395C39.1836 78.1994 39.5094 78.094 39.8438 78.0938H62.1563C62.4906 78.094 62.8164 78.1994 63.0876 78.395C63.3587 78.5907 63.5615 78.8666 63.6671 79.1839L65.2609 83.9651C65.3406 84.2046 65.3624 84.4596 65.3243 84.7091C65.2863 84.9586 65.1895 85.1955 65.042 85.4003C64.8944 85.6051 64.7004 85.7719 64.4758 85.887C64.2512 86.0022 64.0024 86.0623 63.75 86.0625ZM40.4621 82.875H61.5379L61.0072 81.2812H40.9929L40.4621 82.875Z" fill="#282828"/>
<path d="M51 52.5938C47.6197 52.59 44.3788 51.2454 41.9886 48.8552C39.5983 46.4649 38.2538 43.2241 38.25 39.8438V33.4688C38.25 33.0461 38.4179 32.6407 38.7168 32.3418C39.0157 32.0429 39.4211 31.875 39.8438 31.875C41.6702 31.875 45.9781 29.266 48.45 27.4125C48.6868 27.2349 48.9683 27.1268 49.2631 27.1002C49.5579 27.0736 49.8543 27.1296 50.119 27.262C50.3837 27.3944 50.6064 27.5978 50.762 27.8496C50.9176 28.1014 51 28.3915 51 28.6875V31.7698C54.6791 31.0852 58.1618 29.5974 61.2 27.4125C61.4368 27.2349 61.7183 27.1268 62.0131 27.1002C62.3079 27.0736 62.6043 27.1296 62.869 27.262C63.1337 27.3944 63.3564 27.5978 63.512 27.8496C63.6676 28.1014 63.75 28.3915 63.75 28.6875V39.8438C63.7462 43.2241 62.4017 46.4649 60.0114 48.8552C57.6212 51.2454 54.3803 52.59 51 52.5938ZM41.4375 34.8362V39.8438C41.4375 42.3799 42.445 44.8121 44.2383 46.6055C46.0316 48.3988 48.4639 49.4063 51 49.4063C53.5361 49.4063 55.9684 48.3988 57.7617 46.6055C59.555 44.8121 60.5625 42.3799 60.5625 39.8438V31.6057C57.1906 33.6711 53.3552 34.8595 49.4062 35.0625C48.9836 35.0625 48.5782 34.8946 48.2793 34.5957C47.9804 34.2968 47.8125 33.8914 47.8125 33.4688V31.7316C45.8511 33.0732 43.7031 34.1192 41.4375 34.8362Z" fill="#282828"/>
<path d="M51 60.5625C50.5773 60.5624 50.172 60.3944 49.8732 60.0955L45.092 55.3143C44.7931 55.0155 44.6251 54.6102 44.625 54.1875V49.4062H47.8125V53.5277L51 56.7152L54.1875 53.5277V49.4062H57.375V54.1875C57.3749 54.6102 57.2069 55.0155 56.908 55.3143L52.1268 60.0955C51.828 60.3944 51.4227 60.5624 51 60.5625Z" fill="#282828"/>
<path d="M63.0408 42.7635L61.2717 40.1115L62.1563 41.4375L61.2606 40.1179C61.4279 40.0031 65.3438 37.2188 65.3438 30.2812C65.3438 23.3437 56.5335 17.5312 51 17.5312C47.1049 17.5312 45.7247 18.6851 45.712 18.6963L42.5643 21.8455C42.2655 22.1444 41.8602 22.3124 41.4375 22.3125C40.9295 22.3039 40.4254 22.403 39.9584 22.6033C39.4914 22.8035 39.0721 23.1004 38.7281 23.4743C37.2182 25.4083 36.4798 27.834 36.6563 30.2812C36.6563 37.2188 40.5721 40.0031 40.7395 40.1179L38.9592 42.7635C38.7361 42.6137 33.4688 39.0023 33.4688 30.2812C33.2796 27.0527 34.3026 23.8699 36.3375 21.3562C37.4741 20.0924 39.0466 19.305 40.7395 19.1521L43.4951 16.3981C43.8425 16.0602 45.8203 14.3438 51 14.3438C57.8962 14.3438 68.5313 21.1873 68.5313 30.2812C68.5313 39.0023 63.2719 42.6137 63.0408 42.7635Z" fill="#282828"/>
<path d="M34.28 62.754L31.3252 61.5587C32.3903 58.905 34.2272 56.632 36.5983 55.0337C38.9694 53.4354 41.7656 52.5855 44.625 52.5938H46.2188V55.7813H44.625C42.401 55.7754 40.2264 56.4366 38.3822 57.6796C36.538 58.9226 35.109 60.6903 34.28 62.754Z" fill="#282828"/>
<path d="M71.7188 74.9062H68.5312V66.9375C68.5275 63.9798 67.3508 61.1444 65.2595 59.053C63.1681 56.9617 60.3327 55.785 57.375 55.7812H55.7812V52.5938H57.375C61.1779 52.598 64.8238 54.1105 67.5129 56.7996C70.202 59.4887 71.7145 63.1346 71.7188 66.9375V74.9062Z" fill="#282828"/>
<path d="M59.6063 75.6185L56.7534 74.1937L60.2167 67.2561L57.842 64.8814C57.6639 64.7028 57.5308 64.4845 57.4535 64.2444C57.3762 64.0044 57.357 63.7494 57.3975 63.5005C57.4379 63.2516 57.5369 63.0158 57.6862 62.8126C57.8355 62.6093 58.0309 62.4444 58.2564 62.3314L60.1306 61.3943L57.4882 54.7866L60.4494 53.604L63.6369 61.5728C63.7853 61.9441 63.7888 62.3577 63.6464 62.7315C63.5041 63.1053 63.2265 63.4119 62.8687 63.5904L61.659 64.1945L63.283 65.8185C63.5196 66.0549 63.6759 66.3597 63.7297 66.6897C63.7834 67.0198 63.732 67.3585 63.5827 67.6577L59.6063 75.6185Z" fill="#282828"/>
<path d="M50.626 74.5098L55.7943 53.7942L58.8846 54.5652L53.7164 75.2808L50.626 74.5098Z" fill="#282828"/>
<path d="M43.0976 54.5449L46.188 53.7707L51.3775 74.4863L48.2872 75.2605L43.0976 54.5449Z" fill="#282828"/>
<path d="M42.4017 75.6186L38.4173 67.6499C38.268 67.3506 38.2166 67.012 38.2704 66.6819C38.3241 66.3518 38.4804 66.047 38.717 65.8107L40.341 64.1867L39.1313 63.5826C38.7735 63.404 38.4959 63.0974 38.3536 62.7237C38.2113 62.3499 38.2147 61.9363 38.3632 61.5649L41.5507 53.5962L44.5118 54.7787L41.8694 61.3864L43.7437 62.3236C43.9691 62.4366 44.1645 62.6015 44.3138 62.8047C44.4631 63.008 44.5621 63.2437 44.6025 63.4927C44.643 63.7416 44.6238 63.9966 44.5465 64.2366C44.4692 64.4767 44.3361 64.695 44.158 64.8736L41.7833 67.2483L45.2625 74.1938L42.4017 75.6186Z" fill="#282828"/>
<path d="M38.25 76.5H25.5C25.1445 76.4999 24.7992 76.3809 24.5191 76.162C24.239 75.9431 24.0401 75.6369 23.9541 75.2919L20.7666 62.5419C20.708 62.307 20.7037 62.0619 20.754 61.8251C20.8043 61.5883 20.9079 61.3661 21.0569 61.1753C21.2059 60.9845 21.3964 60.8301 21.614 60.724C21.8315 60.6178 22.0704 60.5626 22.3125 60.5625H35.0625C35.418 60.5626 35.7633 60.6816 36.0434 60.9005C36.3235 61.1194 36.5224 61.4256 36.6085 61.7706L39.796 74.5206C39.8545 74.7555 39.8588 75.0006 39.8085 75.2374C39.7582 75.4742 39.6547 75.6964 39.5056 75.8872C39.3566 76.078 39.1661 76.2324 38.9486 76.3385C38.731 76.4447 38.4921 76.4999 38.25 76.5ZM26.7447 73.3125H36.2084L33.8178 63.75H24.3541L26.7447 73.3125Z" fill="#282828"/>
<path d="M78.0938 28.6875C77.6711 28.6875 77.2657 28.5196 76.9668 28.2207C76.6679 27.9218 76.5 27.5164 76.5 27.0938V22.3125H74.9062C73.6382 22.3125 72.4221 21.8088 71.5254 20.9121C70.6287 20.0154 70.125 18.7993 70.125 17.5312V4.78125C70.125 3.51318 70.6287 2.29705 71.5254 1.4004C72.4221 0.503737 73.6382 0 74.9062 0L97.2188 0C98.4868 0 99.7029 0.503737 100.6 1.4004C101.496 2.29705 102 3.51318 102 4.78125V17.5312C102 18.7993 101.496 20.0154 100.6 20.9121C99.7029 21.8088 98.4868 22.3125 97.2188 22.3125H89.6739L78.8906 28.4771C78.648 28.6159 78.3732 28.6885 78.0938 28.6875ZM74.9062 3.1875C74.4836 3.1875 74.0782 3.35541 73.7793 3.6543C73.4804 3.95318 73.3125 4.35856 73.3125 4.78125V17.5312C73.3125 17.9539 73.4804 18.3593 73.7793 18.6582C74.0782 18.9571 74.4836 19.125 74.9062 19.125H78.0938C78.5164 19.125 78.9218 19.2929 79.2207 19.5918C79.5196 19.8907 79.6875 20.2961 79.6875 20.7188V24.3477L88.4531 19.3354C88.6955 19.1961 88.9705 19.1235 89.25 19.125H97.2188C97.6414 19.125 98.0468 18.9571 98.3457 18.6582C98.6446 18.3593 98.8125 17.9539 98.8125 17.5312V4.78125C98.8125 4.35856 98.6446 3.95318 98.3457 3.6543C98.0468 3.35541 97.6414 3.1875 97.2188 3.1875H74.9062Z" fill="#282828"/>
<path d="M76.5 4.78125H95.625V7.96875H76.5V4.78125Z" fill="#282828"/>
<path d="M76.5 9.5625H95.625V12.75H76.5V9.5625Z" fill="#282828"/>
<path d="M76.5 14.3438H95.625V17.5312H76.5V14.3438Z" fill="#282828"/>
<path d="M23.9062 58.9688C23.6268 58.9697 23.352 58.8972 23.1094 58.7584L12.3261 52.5938H4.78125C3.51318 52.5938 2.29705 52.09 1.4004 51.1934C0.503737 50.2967 0 49.0806 0 47.8125L0 35.0625C0 33.7944 0.503737 32.5783 1.4004 31.6816C2.29705 30.785 3.51318 30.2813 4.78125 30.2812H27.0938C28.3618 30.2813 29.5779 30.785 30.4746 31.6816C31.3713 32.5783 31.875 33.7944 31.875 35.0625V47.8125C31.875 49.0806 31.3713 50.2967 30.4746 51.1934C29.5779 52.09 28.3618 52.5938 27.0938 52.5938H25.5V57.375C25.5 57.7977 25.3321 58.2031 25.0332 58.502C24.7343 58.8008 24.3289 58.9688 23.9062 58.9688ZM4.78125 33.4688C4.35856 33.4688 3.95318 33.6367 3.6543 33.9355C3.35541 34.2344 3.1875 34.6398 3.1875 35.0625V47.8125C3.1875 48.2352 3.35541 48.6406 3.6543 48.9395C3.95318 49.2383 4.35856 49.4062 4.78125 49.4062H12.75C13.0295 49.4048 13.3045 49.4774 13.5469 49.6166L22.3125 54.6274V51C22.3125 50.5773 22.4804 50.1719 22.7793 49.873C23.0782 49.5742 23.4836 49.4062 23.9062 49.4062H27.0938C27.5164 49.4062 27.9218 49.2383 28.2207 48.9395C28.5196 48.6406 28.6875 48.2352 28.6875 47.8125V35.0625C28.6875 34.6398 28.5196 34.2344 28.2207 33.9355C27.9218 33.6367 27.5164 33.4688 27.0938 33.4688H4.78125Z" fill="#282828"/>
<path d="M6.375 35.0625H25.5V38.25H6.375V35.0625Z" fill="#282828"/>
<path d="M6.375 39.8438H25.5V43.0312H6.375V39.8438Z" fill="#282828"/>
<path d="M6.375 44.625H25.5V47.8125H6.375V44.625Z" fill="#282828"/>
<path d="M82.875 54.1875H76.5C76.0773 54.1875 75.6719 54.0196 75.373 53.7207C75.0742 53.4218 74.9062 53.0164 74.9062 52.5938V49.4062H71.7188C71.2961 49.4062 70.8907 49.2383 70.5918 48.9395C70.2929 48.6406 70.125 48.2352 70.125 47.8125V41.4375C70.125 41.0148 70.2929 40.6094 70.5918 40.3105C70.8907 40.0117 71.2961 39.8438 71.7188 39.8438H74.9062V36.6562C74.9062 36.2336 75.0742 35.8282 75.373 35.5293C75.6719 35.2304 76.0773 35.0625 76.5 35.0625H82.875C83.2977 35.0625 83.7031 35.2304 84.002 35.5293C84.3008 35.8282 84.4688 36.2336 84.4688 36.6562V39.8438H87.6562C88.0789 39.8438 88.4843 40.0117 88.7832 40.3105C89.0821 40.6094 89.25 41.0148 89.25 41.4375V47.8125C89.25 48.2352 89.0821 48.6406 88.7832 48.9395C88.4843 49.2383 88.0789 49.4062 87.6562 49.4062H84.4688V52.5938C84.4688 53.0164 84.3008 53.4218 84.002 53.7207C83.7031 54.0196 83.2977 54.1875 82.875 54.1875ZM78.0938 51H81.2812V47.8125C81.2812 47.3898 81.4492 46.9844 81.748 46.6855C82.0469 46.3867 82.4523 46.2188 82.875 46.2188H86.0625V43.0312H82.875C82.4523 43.0312 82.0469 42.8633 81.748 42.5645C81.4492 42.2656 81.2812 41.8602 81.2812 41.4375V38.25H78.0938V41.4375C78.0938 41.8602 77.9258 42.2656 77.627 42.5645C77.3281 42.8633 76.9227 43.0312 76.5 43.0312H73.3125V46.2188H76.5C76.9227 46.2188 77.3281 46.3867 77.627 46.6855C77.9258 46.9844 78.0938 47.3898 78.0938 47.8125V51Z" fill="#282828"/>
</g>
<defs>
<clipPath id="clip0_188_247">
<rect width="102" height="102" fill="white"/>
</clipPath>
</defs>
</svg>
