<svg width="92" height="92" viewBox="0 0 92 92" fill="none" xmlns="http://www.w3.org/2000/svg">
<g clip-path="url(#clip0_188_196)">
<path d="M16.8667 32.2002H13.8V35.2669H16.8667V32.2002Z" fill="#282828"/>
<path d="M35.2666 32.2002H19.9333V35.2669H35.2666V32.2002Z" fill="#282828"/>
<path d="M35.2667 38.3335H10.7333V41.4002H35.2667V38.3335Z" fill="#282828"/>
<path d="M29.1333 44.4668H10.7333V47.5335H29.1333V44.4668Z" fill="#282828"/>
<path d="M47.5333 76.6665H44.4667V79.7332H47.5333V76.6665Z" fill="#282828"/>
<path d="M50.6 12.2666H47.5333V15.3333H50.6V12.2666Z" fill="#282828"/>
<path d="M44.4666 12.2666H41.4V15.3333H44.4666V12.2666Z" fill="#282828"/>
<path d="M84.3333 30.6666H70.5333V12.2666C70.5333 8.87931 67.7873 6.1333 64.4 6.1333H27.6C24.2127 6.1333 21.4667 8.87931 21.4667 12.2666V26.0666H7.66665C5.12611 26.0666 3.06665 28.1261 3.06665 30.6666V49.0666C3.06665 51.6072 5.12611 53.6666 7.66665 53.6666H21.4667V79.7333C21.4667 83.1206 24.2127 85.8666 27.6 85.8666H64.4C67.7873 85.8666 70.5333 83.1206 70.5333 79.7333V61.3333H84.3333C86.8739 61.3333 88.9333 59.2738 88.9333 56.7333V35.2666C88.9333 32.7261 86.8739 30.6666 84.3333 30.6666ZM24.5333 12.2666C24.5333 10.5729 25.9062 9.19997 27.6 9.19997H64.4C66.0938 9.19997 67.4667 10.5729 67.4667 12.2666V18.4H24.5333V12.2666ZM7.66665 50.6C6.81987 50.6 6.13332 49.9134 6.13332 49.0666V30.6666C6.13332 29.8199 6.81987 29.1333 7.66665 29.1333H38.3333C39.1801 29.1333 39.8667 29.8199 39.8667 30.6666V49.0666C39.8667 49.9134 39.1801 50.6 38.3333 50.6H33.7333C32.8865 50.6 32.2 51.2865 32.2 52.1333V55.4008L25.3843 50.8576C25.1321 50.6901 24.8362 50.6005 24.5333 50.6H7.66665ZM67.4667 79.7333C67.4667 81.4271 66.0938 82.8 64.4 82.8H27.6C25.9062 82.8 24.5333 81.4271 24.5333 79.7333V73.6H67.4667V79.7333ZM67.4667 70.5333H24.5333V53.9733L32.8823 59.5393C33.5867 60.0093 34.5389 59.8193 35.0089 59.1148C35.1764 58.8637 35.2661 58.5685 35.2667 58.2666V53.6666H38.3333C40.8739 53.6666 42.9333 51.6072 42.9333 49.0666V30.6666C42.9333 28.1261 40.8739 26.0666 38.3333 26.0666H24.5333V21.4666H67.4667V30.6666H53.6667C51.1261 30.6666 49.0667 32.7261 49.0667 35.2666V56.7333C49.0667 59.2738 51.1261 61.3333 53.6667 61.3333H56.7333V65.9333C56.7331 66.7801 57.4197 67.4668 58.2665 67.4668C58.5695 67.4668 58.8656 67.3771 59.1177 67.209L67.4667 61.64V70.5333ZM85.8667 56.7333C85.8667 57.5801 85.1801 58.2666 84.3333 58.2666H67.4667C67.1638 58.2672 66.8679 58.3567 66.6157 58.5242L59.8 63.0675V59.8C59.8 58.9532 59.1134 58.2666 58.2667 58.2666H53.6667C52.8199 58.2666 52.1333 57.5801 52.1333 56.7333V35.2666C52.1333 34.4199 52.8199 33.7333 53.6667 33.7333H84.3333C85.1801 33.7333 85.8667 34.4199 85.8667 35.2666V56.7333Z" fill="#282828"/>
<path d="M18.4 81.2667V69H15.3333V81.2667C15.34 87.1917 20.1417 91.9933 26.0666 92V88.9333C21.8346 88.9284 18.405 85.4987 18.4 81.2667Z" fill="#282828"/>
<path d="M18.4 62.8667H15.3333V65.9334H18.4V62.8667Z" fill="#282828"/>
<path d="M65.9333 0H61.3333V3.06667H65.9333C70.1653 3.07165 73.595 6.50133 73.6 10.7333V18.4H76.6666V10.7333C76.6599 4.80834 71.8583 0.00670833 65.9333 0Z" fill="#282828"/>
<path d="M76.6666 21.4668H73.6V24.5335H76.6666V21.4668Z" fill="#282828"/>
<path d="M76.6667 41.3998H73.6V38.3331C73.6 37.4864 72.9134 36.7998 72.0667 36.7998H65.9333C65.0865 36.7998 64.4 37.4864 64.4 38.3331V41.3998H61.3333C60.4865 41.3998 59.8 42.0864 59.8 42.9331V49.0665C59.8 49.9133 60.4865 50.5998 61.3333 50.5998H64.4V53.6665C64.4 54.5133 65.0865 55.1998 65.9333 55.1998H72.0667C72.9134 55.1998 73.6 54.5133 73.6 53.6665V50.5998H76.6667C77.5134 50.5998 78.2 49.9133 78.2 49.0665V42.9331C78.2 42.0864 77.5134 41.3998 76.6667 41.3998ZM75.1333 47.5331H72.0667C71.2199 47.5331 70.5333 48.2197 70.5333 49.0665V52.1331H67.4667V49.0665C67.4667 48.2197 66.7801 47.5331 65.9333 47.5331H62.8667V44.4665H65.9333C66.7801 44.4665 67.4667 43.7799 67.4667 42.9331V39.8665H70.5333V42.9331C70.5333 43.7799 71.2199 44.4665 72.0667 44.4665H75.1333V47.5331Z" fill="#282828"/>
</g>
<defs>
<clipPath id="clip0_188_196">
<rect width="92" height="92" fill="white"/>
</clipPath>
</defs>
</svg>
