<svg width="92" height="92" viewBox="0 0 92 92" fill="none" xmlns="http://www.w3.org/2000/svg">
<path d="M92 38.5806H88.6656L83.696 41.1955C83.1366 40.8869 82.5548 40.6253 81.9274 40.4681L75.676 38.9038V38.193C78.4416 36.2628 80.129 33.0741 80.129 29.6774V27.0835C80.129 21.3191 75.6122 16.495 70.0607 16.3269C69.7789 16.3197 69.5014 16.3298 69.2224 16.3436L70.8432 12.5491L62.9855 4.69361L58.3535 7.70845C56.5936 6.71727 54.7322 5.94563 52.7991 5.40439L51.6551 0H40.3464L39.2023 5.40584C37.2692 5.94708 35.4064 6.71872 33.6479 7.7099L29.0159 4.69506L21.1647 12.5462L22.758 16.3436C22.6971 16.3407 22.6392 16.3298 22.5783 16.3284C19.7366 16.2458 17.0602 17.2826 15.0271 19.2563C12.9911 21.2285 11.871 23.8753 11.871 26.7097V29.6774C11.871 33.0741 13.557 36.2614 16.3226 38.1916V38.9038L12.2448 39.9232L4.85374 35.6129H0V66.3605L14.5982 71.2258H17.4413L17.7963 69.9825L22.2711 72.6684C22.3443 75.1014 24.2955 77.0591 26.7263 77.1446C26.8118 79.5653 28.7572 81.5107 31.178 81.5962C31.2635 84.017 33.2089 85.9624 35.6296 86.0479C35.718 88.5251 37.7467 90.5161 40.2442 90.5161C41.1716 90.5161 42.0809 90.227 42.8453 89.7119L44.1597 90.8726C44.9835 91.5979 46.0442 92 47.1455 92H47.4201C49.8894 92 51.8985 90.0039 51.9297 87.5426C54.3721 87.5114 56.3501 85.5334 56.3813 83.091C58.8252 83.0598 60.8047 81.0789 60.8329 78.635C63.2993 78.5771 65.2903 76.5621 65.2903 74.082C65.2903 73.9327 65.2831 73.7856 65.2679 73.6371L92 60.2721V38.5806ZM77.1613 27.0835V29.6774C77.1613 32.3111 75.7383 34.7717 73.4473 36.0984L72.7053 36.5273L72.7111 41.2231L80.1247 43.075L63.8065 51.6638V47.6665C63.8065 45.6718 63.0008 43.8452 61.6814 42.4954L66.7742 41.2231V36.5237L66.0337 36.0955C63.7441 34.7717 62.3226 32.3111 62.3226 29.6774V26.7097C62.3226 24.686 63.1225 22.7935 64.5766 21.3843C66.0294 19.9757 67.9567 19.2164 69.9716 19.2947C73.9356 19.4135 77.1613 22.908 77.1613 27.0835ZM48.2374 50.4973L41.5201 48.3504C38.4589 47.3694 35.1456 47.223 32.0119 47.9171L31.1613 48.1055V47.6665C31.1613 45.6203 32.5488 43.8438 34.5326 43.3467L43.0323 41.2231V36.5237L42.2918 36.0955C40.0022 34.7717 38.5806 32.3111 38.5806 29.6774V26.7097C38.5806 24.686 39.3805 22.7935 40.8347 21.3843C42.2874 19.9757 44.227 19.2164 46.2297 19.2947C50.1937 19.4135 53.4194 22.908 53.4194 27.0835V29.6774C53.4194 32.3111 51.9963 34.7717 49.7053 36.0984L48.9634 36.5273L48.9692 41.2231L57.4674 43.3467C59.4512 43.8438 60.8387 45.6203 60.8387 47.6665V53.2266L60.4721 53.4194H59.5628L50.44 50.8124C49.7213 50.6088 48.9808 50.5255 48.2374 50.4973ZM31.4939 22.2088C34.2805 16.8095 39.8892 13.3548 46 13.3548C52.0529 13.3548 57.6377 16.7631 60.4453 22.0892C59.7388 23.5057 59.3548 25.0744 59.3548 26.7097V29.6774C59.3548 33.0741 61.0409 36.2614 63.8065 38.1916V38.9038L57.871 40.3898L51.934 38.9038V38.193C54.6996 36.2628 56.3871 33.0741 56.3871 29.6774V27.0835C56.3871 21.3191 51.8703 16.495 46.3188 16.3269C43.4786 16.2436 40.8007 17.2812 38.7676 19.2548C36.7331 21.2285 35.6129 23.8753 35.6129 26.7097V29.6774C35.6129 33.0741 37.2989 36.2614 40.0645 38.1916V38.9038L34.129 40.3898L28.1921 38.9038V38.193C30.9577 36.2628 32.6452 33.0741 32.6452 29.6774V27.0835C32.6452 25.3374 32.2249 23.6796 31.4939 22.2088ZM24.6694 13.2346L29.4101 8.49386L33.5827 11.2095L34.3812 10.7197C36.3816 9.49373 38.5437 8.59602 40.8065 8.05478L41.7194 7.83597L42.7519 2.96774H49.2496L50.2792 7.83452L51.1921 8.05261C53.4549 8.59457 55.6169 9.49228 57.6174 10.7182L58.4158 11.208L62.5885 8.49241L67.3234 13.2288L65.6403 17.1696C64.4948 17.6623 63.4326 18.3557 62.5081 19.2519C62.4472 19.3113 62.395 19.3751 62.3356 19.436C58.8397 13.8787 52.6593 10.3871 46 10.3871C39.2929 10.3871 33.0951 13.9113 29.6079 19.5251C28.6746 18.5484 27.5646 17.7572 26.3344 17.2044L24.6694 13.2346ZM19.2903 41.2231V36.5237L18.5498 36.0955C16.2603 34.7717 14.8387 32.3111 14.8387 29.6774V26.7097C14.8387 24.686 15.6386 22.7935 17.0928 21.3843C18.5455 19.9757 20.4771 19.2164 22.4877 19.2947C26.4517 19.4135 29.6774 22.908 29.6774 27.0835V29.6774C29.6774 32.3111 28.2544 34.7717 25.9634 36.0984L25.2215 36.5273L25.2273 41.2231L30.3186 42.4954C28.9992 43.8452 28.1935 45.6718 28.1935 47.6665V48.7656L23.5651 49.7944L23.6854 49.3742L23.7419 46.6318L15.9161 42.0664L19.2903 41.2231ZM2.96774 38.5806H4.04949L14.7213 44.8052L9.3365 66.3438L2.96774 64.2202V38.5806ZM15.0793 68.2581L12.1586 67.285L17.3898 46.3623L20.7742 48.3359V48.7598L15.2039 68.2581H15.0793ZM25.2258 72.53C25.2258 72.0924 25.4026 71.6634 25.7127 71.3533L28.3211 68.745C28.6312 68.4349 29.0601 68.2581 29.4977 68.2581C30.415 68.2581 31.1613 69.0043 31.1613 69.9216C31.1613 70.3593 30.9845 70.7882 30.6744 71.0983L28.066 73.7067C27.7559 74.0168 27.327 74.1936 26.8894 74.1936C25.9721 74.1936 25.2258 73.4473 25.2258 72.53ZM29.6774 76.9816C29.6774 76.544 29.8542 76.115 30.1643 75.8049L32.7727 73.1966C33.0828 72.8865 33.5117 72.7097 33.9493 72.7097C34.8666 72.7097 35.6129 73.456 35.6129 74.3732C35.6129 74.8109 35.4361 75.2398 35.126 75.5499L32.5176 78.1583C32.2075 78.4684 31.7786 78.6452 31.341 78.6452C30.4237 78.6452 29.6774 77.8989 29.6774 76.9816ZM34.129 81.4332C34.129 80.9956 34.3058 80.5667 34.6159 80.2566L37.2243 77.6482C37.5344 77.3381 37.9633 77.1613 38.401 77.1613C39.3182 77.1613 40.0645 77.9076 40.0645 78.8249C40.0645 79.2625 39.8877 79.6914 39.5776 80.0015L36.9693 82.6099C36.6591 82.92 36.2302 83.0968 35.7926 83.0968C34.8753 83.0968 34.129 82.3505 34.129 81.4332ZM40.2442 87.5484C39.3269 87.5484 38.5806 86.8021 38.5806 85.8848C38.5806 85.4472 38.7574 85.0183 39.0675 84.7082L41.6759 82.0998C41.986 81.7897 42.4149 81.6129 42.8526 81.6129C43.7698 81.6129 44.5161 82.3592 44.5161 83.2765C44.5161 83.7141 44.3393 84.143 44.0292 84.4531L41.4209 87.0615C41.1108 87.3716 40.6818 87.5484 40.2442 87.5484ZM47.4201 89.0323H47.1455C46.7673 89.0323 46.405 88.8946 46.1232 88.6446L45.0132 87.6658L46.1275 86.5514C46.5253 86.1536 46.834 85.6805 47.0622 85.1726L48.4113 86.2956C48.7641 86.5898 48.9677 87.0231 48.9677 87.4846C48.9677 88.3381 48.2736 89.0323 47.4201 89.0323ZM60.7271 75.6774H60.4706C60.0982 75.6774 59.7345 75.5456 59.4498 75.3064L51.4029 68.6008L49.5017 70.8816L57.316 77.3924C57.6674 77.6866 57.871 78.1199 57.871 78.5814C57.871 79.4349 57.1769 80.129 56.3233 80.129H55.9995C55.6394 80.129 55.2872 80.0015 55.0097 79.7697L46.9499 73.0538L45.0487 75.3347L52.8629 81.8462C53.2158 82.1382 53.4194 82.5715 53.4194 83.033C53.4194 83.8865 52.7252 84.5806 51.8717 84.5806C51.3022 84.5806 50.7472 84.3785 50.3103 84.0155L46.9984 81.255C46.2688 79.7639 44.7697 78.7241 43.0141 78.6618C42.9286 76.2411 40.9832 74.2957 38.5625 74.2102C38.477 71.7895 36.5316 69.8441 34.1109 69.7586C34.024 67.2814 31.9952 65.2903 29.4977 65.2903C28.2783 65.2903 27.085 65.7845 26.2228 66.6467L23.6144 69.255C23.4586 69.4108 23.3297 69.5876 23.1985 69.7629L18.6404 67.0278L22.6363 53.0426L32.6539 50.8153C35.2818 50.2277 38.0525 50.3552 40.6152 51.1754L42.8011 51.8746L35.3905 55.58C33.6972 56.4284 32.6452 58.1318 32.6452 60.0258V60.3192C32.6452 63.0602 34.8753 65.2903 37.6163 65.2903C38.5169 65.2903 39.403 65.0454 40.1732 64.581L45.6986 61.2676C46.8086 60.6025 48.2983 60.7481 49.2568 61.6104L61.7944 72.8937C62.1299 73.198 62.3226 73.6299 62.3226 74.082C62.3226 74.9623 61.6075 75.6774 60.7271 75.6774ZM89.0323 58.4376L64.0332 70.9382C63.9521 70.8519 63.8673 70.7701 63.7782 70.6904L51.2428 59.407C50.1444 58.4158 48.7243 57.871 47.2448 57.871C46.163 57.871 45.1008 58.1651 44.1705 58.723L38.643 62.0378C38.3329 62.2248 37.9785 62.3226 37.6163 62.3226C36.5106 62.3226 35.6129 61.4249 35.6129 60.3192V60.0258C35.6129 59.2614 36.0375 58.576 36.72 58.2347L44.9972 54.0961C46.4137 53.3867 48.0954 53.2281 49.622 53.6671L58.9469 56.3306L61.2053 56.3871L89.0323 41.7411V58.4376Z" fill="#282828"/>
</svg>
