<svg width="46" height="46" viewBox="0 0 46 46" fill="none" xmlns="http://www.w3.org/2000/svg">
<g clip-path="url(#clip0_280_3854)">
<path d="M18.3053 43.9588C18.3053 45.0844 19.2211 46.0001 20.3466 46.0001H29.3806C30.5061 46.0001 31.4218 45.0843 31.4218 43.9588V41.4146H18.3053V43.9588Z" fill="#324090"/>
<path d="M35.7033 33.9818C36.2451 33.2904 36.5433 32.4274 36.5433 31.5486V28.3586C36.5433 26.6168 35.3754 25.0597 33.7031 24.5723L26.1251 22.3636V13.5078C26.1251 11.7142 24.6659 10.2549 22.8722 10.2549C21.0785 10.2549 19.6193 11.7142 19.6193 13.5078V27.722L17.2855 24.9219C16.2933 23.7315 14.5281 23.5041 13.2665 24.404C12.1339 25.2121 11.7124 26.6754 12.2416 27.9621C12.2475 27.9767 12.254 27.991 12.261 28.0051L17.5673 38.7163H32.4727L35.7033 33.9818Z" fill="#324090"/>
<path d="M22.8722 4.83838C18.1428 4.83838 14.295 8.68601 14.295 13.4154C14.295 14.1604 14.899 14.7644 15.644 14.7644C16.389 14.7644 16.993 14.1604 16.993 13.4154C16.993 10.1737 19.6304 7.53633 22.8722 7.53633C26.1139 7.53633 28.7513 10.1737 28.7513 13.4154C28.7513 14.1604 29.3553 14.7644 30.1002 14.7644C30.8452 14.7644 31.4492 14.1604 31.4492 13.4154C31.4492 8.68601 27.6016 4.83838 22.8722 4.83838Z" fill="#324090"/>
<path d="M22.8722 2.69795C28.782 2.69795 33.5899 7.50587 33.5899 13.4156C33.5899 14.1606 34.1939 14.7646 34.9389 14.7646C35.6839 14.7646 36.2878 14.1606 36.2878 13.4156C36.2878 6.01822 30.2696 0 22.8722 0C15.4749 0 9.45667 6.01822 9.45667 13.4156C9.45667 14.1606 10.0606 14.7646 10.8056 14.7646C11.5506 14.7646 12.1546 14.1606 12.1546 13.4156C12.1546 7.50587 16.9625 2.69795 22.8722 2.69795Z" fill="#324090"/>
</g>
<defs>
<clipPath id="clip0_280_3854">
<rect width="46" height="46" fill="white"/>
</clipPath>
</defs>
</svg>
