<svg width="40" height="42" viewBox="0 0 40 42" fill="none" xmlns="http://www.w3.org/2000/svg">
<path d="M34.125 7.0702C34.125 5.56916 32.9498 4.35237 31.5 4.35237H30.8438V6.39074C30.8438 7.14123 30.2561 7.74965 29.5312 7.74965H28.2188C28.9436 7.74965 29.5312 7.14123 29.5312 6.39074V2.31399C29.5312 1.56346 28.9436 0.955078 28.2188 0.955078C27.4939 0.955078 26.9062 1.56346 26.9062 2.31399V4.35237H23.625V6.39074C23.625 7.14123 23.0374 7.74965 22.3125 7.74965H21C21.7249 7.74965 22.3125 7.14123 22.3125 6.39074V2.31399C22.3125 1.56346 21.7249 0.955078 21 0.955078C20.2751 0.955078 19.6875 1.56346 19.6875 2.31399V4.35237H15.75V6.39074C15.75 7.14123 15.1624 7.74965 14.4375 7.74965H13.125C13.8499 7.74965 14.4375 7.14123 14.4375 6.39074V2.31399C14.4375 1.56346 13.8499 0.955078 13.125 0.955078C12.4001 0.955078 11.8125 1.56346 11.8125 2.31399V4.35237H8.53125V6.39074C8.53125 7.14123 7.94361 7.74965 7.21875 7.74965H5.90625C6.63111 7.74965 7.21875 7.14123 7.21875 6.39074V2.31399C7.21875 1.56346 6.63111 0.955078 5.90625 0.955078C5.18139 0.955078 4.59375 1.56346 4.59375 2.31399V4.35237H2.625C1.17523 4.35237 0 5.56916 0 7.0702V11.1469H34.125V7.0702Z" fill="#831435"/>
<path d="M32.1562 26.7744C28.1694 26.7744 24.9375 30.1207 24.9375 34.2484C24.9375 38.3762 28.1694 41.7225 32.1562 41.7225C36.1431 41.7225 39.375 38.3762 39.375 34.2484C39.375 30.1207 36.1431 26.7744 32.1562 26.7744ZM32.1562 35.6074C31.9882 35.6074 31.8289 35.5717 31.6812 35.5121L29.2852 37.4971L28.4648 36.4355L30.8633 34.4492C30.8538 34.3832 30.8438 34.3172 30.8438 34.2484C30.8438 33.7467 31.1093 33.3134 31.5 33.078V28.8128H32.8125V33.078C33.2032 33.3134 33.4688 33.7467 33.4688 34.2484C33.4688 34.9989 32.8811 35.6074 32.1562 35.6074Z" fill="#831435"/>
<path d="M2.625 37.6458H24.281C23.8595 36.5997 23.625 35.4527 23.625 34.2485C23.625 30.5747 25.7921 27.4265 28.8742 26.095H25.5938V22.0183H29.5312V25.8461C30.3587 25.5691 31.2397 25.4156 32.1562 25.4156C32.835 25.4156 33.492 25.5063 34.125 25.6614V12.5059H0V34.928C0 36.4295 1.17467 37.6458 2.625 37.6458ZM25.5938 14.5442H29.5312V18.621H25.5938V14.5442ZM18.375 14.5442H22.3125V18.621H18.375V14.5442ZM18.375 22.0183H22.3125V26.095H18.375V22.0183ZM18.375 29.4923H22.3125V33.569H18.375V29.4923ZM11.1562 14.5442H15.0938V18.621H11.1562V14.5442ZM11.1562 22.0183H15.0938V26.095H11.1562V22.0183ZM11.1562 29.4923H15.0938V33.569H11.1562V29.4923ZM3.9375 14.5442H7.875V18.621H3.9375V14.5442ZM3.9375 22.0183H7.875V26.095H3.9375V22.0183ZM3.9375 29.4923H7.875V33.569H3.9375V29.4923Z" fill="#831435"/>
</svg>
