<svg width="42" height="42" viewBox="0 0 42 42" fill="none" xmlns="http://www.w3.org/2000/svg">
<path d="M35.9371 22.4209H32.689C33.0201 23.3273 33.201 24.3056 33.201 25.3251V37.6011C33.201 38.0262 33.127 38.4342 32.9924 38.8137H38.3622C40.3681 38.8137 42 37.1818 42 35.1759V28.4837C42.0001 25.1407 39.2802 22.4209 35.9371 22.4209Z" fill="#10B982"/>
<path d="M8.79908 25.3251C8.79908 24.3055 8.97996 23.3273 9.31104 22.4209H6.06293C2.71983 22.4209 0 25.1407 0 28.4838V35.176C0 37.1818 1.63185 38.8138 3.63776 38.8138H9.00769C8.87307 38.4341 8.79908 38.0262 8.79908 37.6011V25.3251Z" fill="#10B982"/>
<path d="M24.7129 19.2622H17.2872C13.9441 19.2622 11.2243 21.982 11.2243 25.3251V37.6011C11.2243 38.2707 11.7672 38.8137 12.4369 38.8137H29.5632C30.2329 38.8137 30.7758 38.2708 30.7758 37.6011V25.3251C30.7758 21.982 28.056 19.2622 24.7129 19.2622Z" fill="#10B982"/>
<path d="M21 3.18604C16.9795 3.18604 13.7086 6.45695 13.7086 10.4775C13.7086 13.2047 15.2138 15.5865 17.4367 16.8369C18.491 17.43 19.7066 17.769 21 17.769C22.2935 17.769 23.5091 17.43 24.5634 16.8369C26.7864 15.5865 28.2915 13.2046 28.2915 10.4775C28.2915 6.45703 25.0206 3.18604 21 3.18604Z" fill="#10B982"/>
<path d="M8.19637 9.98242C5.18952 9.98242 2.74335 12.4286 2.74335 15.4354C2.74335 18.4423 5.18952 20.8885 8.19637 20.8885C8.9591 20.8885 9.68541 20.7305 10.3452 20.4465C11.4859 19.9554 12.4265 19.086 13.0085 17.997C13.417 17.2328 13.6494 16.3608 13.6494 15.4354C13.6494 12.4287 11.2032 9.98242 8.19637 9.98242Z" fill="#10B982"/>
<path d="M33.8037 9.98242C30.7968 9.98242 28.3506 12.4286 28.3506 15.4354C28.3506 16.3609 28.583 17.2328 28.9916 17.997C29.5736 19.0861 30.5141 19.9555 31.6549 20.4465C32.3146 20.7305 33.0409 20.8885 33.8037 20.8885C36.8105 20.8885 39.2567 18.4423 39.2567 15.4354C39.2567 12.4286 36.8105 9.98242 33.8037 9.98242Z" fill="#10B982"/>
</svg>
