<svg width="42" height="42" viewBox="0 0 42 42" fill="none" xmlns="http://www.w3.org/2000/svg">
<g clip-path="url(#clip0_278_3831)">
<path d="M17.8825 12.9985C13.4698 12.9985 9.88 16.5884 9.88 21.0007C9.88 25.4135 13.4698 29.0033 17.8825 29.0033C22.2949 29.0033 25.8848 25.4135 25.8848 21.0007C25.8848 16.5884 22.2949 12.9985 17.8825 12.9985ZM22.6336 19.4937L16.9007 25.2266C16.6601 25.4673 16.3445 25.5878 16.0291 25.5878C15.7138 25.5878 15.3985 25.4676 15.1579 25.2266L12.9671 23.0358C12.4858 22.5549 12.4858 21.7746 12.9671 21.2933C13.448 20.812 14.2283 20.812 14.7096 21.2933L16.0291 22.6129L20.8911 17.7512C21.3721 17.2699 22.1523 17.2699 22.6336 17.7512C23.1149 18.2322 23.1149 19.0125 22.6336 19.4937Z" fill="#FFC200"/>
<path d="M35.7237 11.3957L35.7224 11.363C35.7041 10.9596 35.6919 10.5327 35.6846 10.0579C35.6503 7.74208 33.8094 5.82653 31.4933 5.69707C26.6644 5.42759 22.9287 3.85297 19.7369 0.741884L19.7097 0.715929C18.6686 -0.238643 17.0981 -0.238643 16.0567 0.715929L16.0295 0.741884C12.8376 3.85297 9.10203 5.42759 4.27309 5.69739C1.95732 5.82653 0.116104 7.74208 0.0818177 10.0582C0.0747682 10.5299 0.0622712 10.9567 0.0440065 11.363L0.042084 11.4389C-0.0518031 16.363 -0.168441 22.4913 1.88169 28.0537C3.00898 31.1126 4.71625 33.7715 6.95576 35.9572C9.50641 38.4464 12.8473 40.4225 16.8854 41.8305C17.0167 41.8763 17.1532 41.9134 17.2923 41.9413C17.4884 41.9804 17.6858 42 17.8832 42C18.0806 42 18.2783 41.9804 18.4741 41.9413C18.6131 41.9134 18.7506 41.876 18.8826 41.8298C22.9159 40.4193 26.2532 38.4422 28.8016 35.9534C31.0402 33.7671 32.7475 31.1075 33.8757 28.048C35.9335 22.4689 35.8172 16.3291 35.7237 11.3957ZM17.8825 31.4676C12.1109 31.4676 7.41558 26.7723 7.41558 21.0007C7.41558 15.229 12.1109 10.5337 17.8825 10.5337C23.6539 10.5337 28.3495 15.229 28.3495 21.0007C28.3495 26.7723 23.6539 31.4676 17.8825 31.4676Z" fill="#FFC200"/>
</g>
<defs>
<clipPath id="clip0_278_3831">
<rect width="42" height="42" fill="white"/>
</clipPath>
</defs>
</svg>
