<svg width="31" height="31" viewBox="0 0 31 31" fill="none" xmlns="http://www.w3.org/2000/svg">
<path d="M24.0311 15.5562C24.1137 15.5562 24.1959 15.5562 24.2785 15.5638V5.60498H0.00762939V22.8248C0.00880031 24.19 1.11524 25.2961 2.48044 25.2976H16.2006C16.0771 24.7315 16.0144 24.1537 16.0133 23.5741C16.0182 19.148 19.6051 15.5612 24.0311 15.5562ZM5.59018 12.4915H17.2049C17.4944 12.4915 17.7294 12.7263 17.7294 13.0161C17.7294 13.3056 17.4944 13.5406 17.2049 13.5406H5.59018C5.3004 13.5406 5.06564 13.3056 5.06564 13.0161C5.06564 12.7263 5.3004 12.4915 5.59018 12.4915ZM12.5438 18.4113H5.59018C5.3004 18.4113 5.06564 18.1762 5.06564 17.8868C5.06564 17.597 5.3004 17.3622 5.59018 17.3622H12.5438C12.8336 17.3622 13.0683 17.597 13.0683 17.8868C13.0683 18.1762 12.8336 18.4113 12.5438 18.4113Z" fill="#10B982"/>
<path d="M24.0311 16.6053C20.1823 16.6053 17.0623 19.7253 17.0623 23.5742C17.0623 27.423 20.1823 30.543 24.0311 30.543C27.88 30.543 31 27.423 31 23.5742C30.9967 19.7268 27.8785 16.6086 24.0311 16.6053ZM28.3849 21.8056L23.4091 26.5639C23.3119 26.6558 23.1832 26.7067 23.0497 26.7064C22.9104 26.7053 22.7766 26.652 22.675 26.5566L19.8498 23.724C19.6452 23.5191 19.6452 23.1869 19.8498 22.9823C20.0547 22.7774 20.3869 22.7774 20.5918 22.9823L23.057 25.4475L27.6654 21.049C27.7655 20.9521 27.9002 20.8991 28.0395 20.9017C28.1788 20.9047 28.3111 20.9629 28.4074 21.0639C28.6033 21.2758 28.5933 21.606 28.3849 21.8056Z" fill="#10B982"/>
<path d="M24.2785 2.52542C24.277 1.16022 23.1709 0.0537832 21.8057 0.0526123H18.5086V1.70847C18.5086 1.99825 18.2738 2.233 17.984 2.233C17.6943 2.233 17.4595 1.99825 17.4595 1.70847V0.0526123H6.81895V1.70847C6.81895 1.99825 6.5842 2.233 6.29442 2.233C6.00463 2.233 5.76988 1.99825 5.76988 1.70847V0.0526123H2.47281C1.10761 0.0537832 0.00146354 1.16022 0 2.52542V4.56355H24.2709V2.52542H24.2785Z" fill="#10B982"/>
</svg>
