<svg width="27" height="28" viewBox="0 0 27 28" fill="none" xmlns="http://www.w3.org/2000/svg">
<g clip-path="url(#clip0_236_112)">
<path d="M5.49171 26.4139C5.92091 26.4139 6.26885 26.0467 6.26885 25.5936C6.26885 25.1406 5.92091 24.7733 5.49171 24.7733C5.06251 24.7733 4.71457 25.1406 4.71457 25.5936C4.71457 26.0467 5.06251 26.4139 5.49171 26.4139Z" fill="#003F48"/>
<path d="M3.16031 25.5936C3.16031 24.5245 3.80999 23.6124 4.71456 23.2738V18.4182L2.98727 18.6577C1.28381 18.8617 0 20.3787 0 22.1894V27.1796C0 27.6324 0.348152 27.9999 0.777126 27.9999H5.00366C3.95195 27.7631 3.16031 26.7738 3.16031 25.5936Z" fill="#003F48"/>
<path d="M6.26881 23.2737C7.17339 23.6123 7.82306 24.5244 7.82306 25.5935C7.82306 26.7737 7.03143 27.763 5.97972 27.9998H9.32551V23.3284L6.26881 19.595V23.2737Z" fill="#003F48"/>
<path d="M14.0401 16.0111C11.6995 17.679 8.63739 17.7077 6.26881 16.0814V17.0858L10.1025 21.7685L14.0401 16.9558V16.0111Z" fill="#003F48"/>
<path d="M2.81837 9.28327H3.0511V5.59192H2.81837C1.85266 5.59192 1.06984 6.41823 1.06984 7.43759C1.06984 8.45695 1.85266 9.28327 2.81837 9.28327Z" fill="#003F48"/>
<path d="M19.138 7.43759C19.138 6.41823 18.3552 5.59192 17.3895 5.59192H17.1568V9.28327H17.3895C18.3552 9.28327 19.138 8.45695 19.138 7.43759Z" fill="#003F48"/>
<path d="M8.41668 3.97044C8.87016 4.45999 9.4771 4.73376 10.1257 4.74141C11.2559 4.75448 11.9029 3.94501 11.9391 3.91925C12.9391 2.88661 14.4341 2.71281 15.6025 3.40274V2.44408C15.6025 1.09441 14.566 0.000244141 13.2873 0.000244141H6.92056C5.64193 0.000244141 4.60535 1.09436 4.60535 2.44408V3.40274C5.74057 2.73233 7.36596 2.83613 8.41668 3.97044Z" fill="#003F48"/>
<path d="M13.2092 20.4814L10.8798 23.3285V27.9998H17.5506C15.14 26.1584 13.3969 23.5483 13.2092 20.4814Z" fill="#003F48"/>
<path d="M21.231 17.1396L20.6375 17.8265L20.0438 17.1396C18.122 14.7388 14.1288 16.5577 14.8292 21.0616C15.3118 24.1651 17.7568 26.6351 20.4188 27.9484C20.5575 28.0168 20.7174 28.0169 20.8561 27.9485C23.5239 26.632 25.9637 24.1605 26.4457 21.0616C27.1415 16.5868 23.1611 14.7285 21.231 17.1396ZM23.1625 22.9774H22.5204L21.4861 24.2371C21.0689 24.7451 20.2763 24.5362 20.1396 23.8748L19.8757 22.599C19.867 22.6071 19.6683 22.9774 19.2198 22.9774H18.1123C17.6831 22.9774 17.3352 22.6101 17.3352 22.1571C17.3352 21.7041 17.6831 21.3368 18.1123 21.3368H18.8192L19.6277 20.1384C20.0174 19.5608 20.8761 19.7439 21.02 20.4393L21.3273 21.9255C21.4929 21.7664 21.6736 21.3368 22.1655 21.3368H23.1625C23.5917 21.3368 23.9397 21.7041 23.9397 22.1571C23.9397 22.6101 23.5917 22.9774 23.1625 22.9774Z" fill="#003F48"/>
<path d="M10.1039 15.6407C13.1407 15.6407 15.6025 13.0421 15.6025 9.83661V5.92044C15.4578 5.18458 14.8389 4.62989 14.0995 4.62989C13.3658 4.62989 12.983 5.15018 12.9373 5.18349C11.3604 6.81189 8.84147 6.77569 7.30535 5.11742C6.47439 4.22034 4.86833 4.58314 4.6053 5.9205V9.83661C4.60535 13.0421 7.06713 15.6407 10.1039 15.6407ZM8.42166 9.89912C8.79339 9.67255 9.26863 9.80697 9.48327 10.1993C9.78179 10.745 10.5294 10.7455 10.8282 10.1993C11.0429 9.80697 11.5181 9.6726 11.8898 9.89917C12.2615 10.1257 12.3888 10.6274 12.1741 11.0198C11.2787 12.6565 9.03342 12.658 8.13729 11.0198C7.9227 10.6274 8.04999 10.1257 8.42166 9.89912Z" fill="#003F48"/>
</g>
<defs>
<clipPath id="clip0_236_112">
<rect width="26.5263" height="28" fill="white"/>
</clipPath>
</defs>
</svg>
