<svg width="30" height="30" viewBox="0 0 30 30" fill="none" xmlns="http://www.w3.org/2000/svg">
<path d="M7.5 20.2144C7.7775 23.34 10.3369 25.5581 14.2331 25.845V28.125H16.1887V25.845C20.445 25.5094 23.085 23.1488 23.085 19.6575C23.085 16.6763 21.3094 14.9513 17.5425 13.98L16.1887 13.6294V6.50063C18.2925 6.70687 19.7119 7.83938 20.07 9.53063H22.8263C22.515 6.53063 19.9387 4.37812 16.1887 4.14V1.875H14.2331V4.18688C10.5975 4.61813 8.10188 6.94687 8.10188 10.1044C8.10188 12.8306 9.91312 14.76 13.0912 15.5737L14.235 15.8775V23.4356C12.0806 23.1169 10.5975 21.9356 10.2394 20.2144H7.5ZM13.8581 13.0219C11.9025 12.5288 10.8581 11.475 10.8581 9.99187C10.8581 8.22188 12.1781 6.915 14.2331 6.56437V13.1175L13.8581 13.0238V13.0219ZM16.8413 16.5319C19.2544 17.1375 20.3137 18.1425 20.3137 19.8488C20.3137 21.9056 18.765 23.2762 16.1887 23.4844V16.3687L16.8413 16.53V16.5319Z" fill="#016645"/>
</svg>
