<svg width="40" height="36" viewBox="0 0 40 36" fill="none" xmlns="http://www.w3.org/2000/svg">
<path d="M28.75 5.75C28.75 4.71165 29.0579 3.69662 29.6348 2.83326C30.2117 1.9699 31.0316 1.29699 31.9909 0.899635C32.9502 0.502275 34.0058 0.398307 35.0242 0.60088C36.0426 0.803452 36.9781 1.30347 37.7123 2.03769C38.4465 2.77192 38.9466 3.70738 39.1491 4.72578C39.3517 5.74418 39.2477 6.79978 38.8504 7.75909C38.453 8.7184 37.7801 9.53834 36.9167 10.1152C36.0534 10.6921 35.0384 11 34 11C32.6076 11 31.2723 10.4469 30.2877 9.46231C29.3031 8.47775 28.75 7.14239 28.75 5.75V5.75ZM2.5 7.5H23.5C23.9641 7.5 24.4092 7.31563 24.7374 6.98744C25.0656 6.65925 25.25 6.21413 25.25 5.75C25.25 5.28587 25.0656 4.84075 24.7374 4.51257C24.4092 4.18438 23.9641 4 23.5 4H2.5C2.03587 4 1.59075 4.18438 1.26256 4.51257C0.934374 4.84075 0.75 5.28587 0.75 5.75C0.75 6.21413 0.934374 6.65925 1.26256 6.98744C1.59075 7.31563 2.03587 7.5 2.5 7.5V7.5ZM13 12.75C11.9168 12.753 10.8611 13.091 9.97764 13.7176C9.09412 14.3443 8.42605 15.2288 8.065 16.25H2.5C2.03587 16.25 1.59075 16.4344 1.26256 16.7626C0.934374 17.0908 0.75 17.5359 0.75 18C0.75 18.4641 0.934374 18.9093 1.26256 19.2374C1.59075 19.5656 2.03587 19.75 2.5 19.75H8.065C8.38604 20.658 8.95068 21.4603 9.69713 22.0689C10.4436 22.6775 11.3431 23.0691 12.2971 23.2007C13.2512 23.3324 14.2231 23.199 15.1065 22.8153C15.9899 22.4315 16.7507 21.8122 17.3056 21.025C17.8606 20.2379 18.1883 19.3132 18.2529 18.3523C18.3175 17.3913 18.1166 16.4311 17.672 15.5767C17.2275 14.7223 16.5565 14.0067 15.7324 13.5081C14.9084 13.0096 13.9631 12.7473 13 12.75V12.75ZM37.5 16.25H23.5C23.0359 16.25 22.5908 16.4344 22.2626 16.7626C21.9344 17.0908 21.75 17.5359 21.75 18C21.75 18.4641 21.9344 18.9093 22.2626 19.2374C22.5908 19.5656 23.0359 19.75 23.5 19.75H37.5C37.9641 19.75 38.4092 19.5656 38.7374 19.2374C39.0656 18.9093 39.25 18.4641 39.25 18C39.25 17.5359 39.0656 17.0908 38.7374 16.7626C38.4092 16.4344 37.9641 16.25 37.5 16.25ZM16.5 28.5H2.5C2.03587 28.5 1.59075 28.6844 1.26256 29.0126C0.934374 29.3408 0.75 29.7859 0.75 30.25C0.75 30.7141 0.934374 31.1593 1.26256 31.4874C1.59075 31.8156 2.03587 32 2.5 32H16.5C16.9641 32 17.4092 31.8156 17.7374 31.4874C18.0656 31.1593 18.25 30.7141 18.25 30.25C18.25 29.7859 18.0656 29.3408 17.7374 29.0126C17.4092 28.6844 16.9641 28.5 16.5 28.5ZM37.5 28.5H31.935C31.5222 27.3324 30.7099 26.3483 29.6417 25.7216C28.5734 25.095 27.3181 24.8662 26.0975 25.0756C24.8769 25.285 23.7696 25.9192 22.9713 26.8661C22.1731 27.813 21.7353 29.0116 21.7353 30.25C21.7353 31.4885 22.1731 32.687 22.9713 33.6339C23.7696 34.5808 24.8769 35.215 26.0975 35.4244C27.3181 35.6338 28.5734 35.405 29.6417 34.7784C30.7099 34.1517 31.5222 33.1676 31.935 32H37.5C37.9641 32 38.4092 31.8156 38.7374 31.4874C39.0656 31.1593 39.25 30.7141 39.25 30.25C39.25 29.7859 39.0656 29.3408 38.7374 29.0126C38.4092 28.6844 37.9641 28.5 37.5 28.5Z" fill="#434343" fill-opacity="0.8"/>
</svg>
