<svg width="26" height="12" viewBox="0 0 26 12" fill="none" xmlns="http://www.w3.org/2000/svg">
<path d="M25.2128 8.05633C25.3083 8.22807 25.3332 8.43024 25.2823 8.62005C25.2314 8.80985 25.1086 8.97239 24.9399 9.07325C24.8277 9.14073 24.6988 9.17512 24.5679 9.17246C24.4372 9.17255 24.3088 9.13821 24.1956 9.0729C24.0824 9.00758 23.9883 8.91361 23.923 8.80042L21.5047 4.62113C20.0656 5.62336 18.4624 6.36623 16.7674 6.81618L17.5238 11.1319C17.5562 11.3259 17.5104 11.5248 17.3966 11.6851C17.2827 11.8455 17.11 11.9542 16.9162 11.9876H16.7922C16.616 11.9897 16.445 11.9281 16.3105 11.8142C16.1761 11.7002 16.0873 11.5417 16.0605 11.3675L15.304 7.11382C14.431 7.2599 13.5476 7.33455 12.6625 7.33705C11.7736 7.33861 10.886 7.26811 10.0086 7.12622L9.25206 11.3799C9.22281 11.553 9.13334 11.7101 8.99945 11.8236C8.86556 11.937 8.69587 11.9995 8.52037 12H8.39636C8.20255 11.9666 8.02983 11.8579 7.91596 11.6975C7.80209 11.5372 7.75633 11.3383 7.78869 11.1443L8.54518 6.82859C6.85306 6.37069 5.25111 5.62842 3.80782 4.63353L1.38953 8.82522C1.32418 8.93841 1.23017 9.03239 1.11697 9.0977C1.00376 9.16301 0.875348 9.19735 0.744653 9.19727C0.614375 9.19524 0.4866 9.16116 0.372609 9.09805C0.287882 9.04924 0.213608 8.9842 0.154034 8.90666C0.0944604 8.82911 0.0507547 8.74059 0.0254159 8.64615C7.70915e-05 8.5517 -0.00639762 8.45319 0.0063617 8.35624C0.019121 8.25929 0.0508643 8.16581 0.0997765 8.08113L2.61727 3.70342C1.72563 2.95196 0.907573 2.11729 0.174185 1.21072C0.0508448 1.05613 -0.00603436 0.858882 0.01606 0.662358C0.0381544 0.465834 0.137413 0.286137 0.291999 0.162796C0.446586 0.0394561 0.643838 -0.0174236 0.840362 0.00467081C1.03689 0.0267652 1.21658 0.126023 1.33992 0.28061C2.12407 1.2608 3.01877 2.14717 4.00624 2.92212L4.05585 2.94693C6.51566 4.8566 9.54852 5.87921 12.6625 5.84887C15.7764 5.87921 18.8093 4.8566 21.2691 2.94693L21.3063 2.92212C22.3004 2.15047 23.1995 1.26379 23.985 0.28061C24.1083 0.126023 24.288 0.0267652 24.4846 0.00467081C24.6811 -0.0174236 24.8783 0.0394561 25.0329 0.162796C25.1875 0.286137 25.2868 0.465834 25.3089 0.662358C25.331 0.858882 25.2741 1.05613 25.1507 1.21072C24.4133 2.12153 23.5911 2.96032 22.6953 3.71582L25.2128 8.05633Z" fill="#5B5B5B"/>
</svg>
