<svg width="24" height="16" viewBox="0 0 24 16" fill="none" xmlns="http://www.w3.org/2000/svg">
<path d="M23.5423 8C23.5423 8 19.1786 0 11.9059 0C4.63317 0 0.269531 8 0.269531 8C0.269531 8 4.63317 16 11.9059 16C19.1786 16 23.5423 8 23.5423 8ZM1.97571 8C2.67901 6.93109 3.48792 5.93554 4.39026 5.02836C6.26226 3.15345 8.82226 1.45455 11.9059 1.45455C14.9895 1.45455 17.5481 3.15345 19.423 5.02836C20.3253 5.93554 21.1342 6.93109 21.8375 8C21.7532 8.12655 21.6601 8.26618 21.5539 8.41891C21.0666 9.11709 20.3466 10.048 19.423 10.9716C17.5481 12.8465 14.9881 14.5455 11.9059 14.5455C8.82226 14.5455 6.26371 12.8465 4.3888 10.9716C3.48647 10.0645 2.67902 9.06891 1.97571 8Z" fill="#424242"/>
<path d="M11.9063 4.37251C10.9419 4.37251 10.017 4.75563 9.33504 5.43758C8.65309 6.11953 8.26998 7.04445 8.26998 8.00888C8.26998 8.9733 8.65309 9.89823 9.33504 10.5802C10.017 11.2621 10.9419 11.6452 11.9063 11.6452C12.8708 11.6452 13.7957 11.2621 14.4776 10.5802C15.1596 9.89823 15.5427 8.9733 15.5427 8.00888C15.5427 7.04445 15.1596 6.11953 14.4776 5.43758C13.7957 4.75563 12.8708 4.37251 11.9063 4.37251ZM6.81543 8.00888C6.81543 6.65869 7.35179 5.36379 8.30652 4.40906C9.26125 3.45433 10.5561 2.91797 11.9063 2.91797C13.2565 2.91797 14.5514 3.45433 15.5062 4.40906C16.4609 5.36379 16.9972 6.65869 16.9972 8.00888C16.9972 9.35907 16.4609 10.654 15.5062 11.6087C14.5514 12.5634 13.2565 13.0998 11.9063 13.0998C10.5561 13.0998 9.26125 12.5634 8.30652 11.6087C7.35179 10.654 6.81543 9.35907 6.81543 8.00888Z" fill="#424242"/>
</svg>
