<svg width="36" height="26" viewBox="0 0 36 26" fill="none" xmlns="http://www.w3.org/2000/svg">
<path d="M36 22.2222V3.1746C36 1.41799 34.582 0 32.8254 0H3.1746C1.41799 0 0 1.41799 0 3.1746V22.2222C0 23.9788 1.41799 25.3968 3.1746 25.3968H32.8254C34.582 25.3968 36 23.9788 36 22.2222ZM33.2275 2.9418C33.9259 3.64021 33.545 4.35979 33.164 4.71958L24.5714 12.5926L32.8254 21.1852C33.0794 21.4815 33.2487 21.9471 32.9524 22.2646C32.6772 22.6032 32.0423 22.582 31.7672 22.3704L22.5185 14.4762L17.9894 18.6032L13.4815 14.4762L4.2328 22.3704C3.95767 22.582 3.32275 22.6032 3.04762 22.2646C2.75132 21.9471 2.92063 21.4815 3.1746 21.1852L11.4286 12.5926L2.83598 4.71958C2.45503 4.35979 2.07407 3.64021 2.77249 2.9418C3.4709 2.24339 4.19048 2.58201 4.78307 3.08995L17.9894 13.7566L31.2169 3.08995C31.8095 2.58201 32.5291 2.24339 33.2275 2.9418Z" fill="#5B5B5B"/>
</svg>
