<svg width="32" height="33" viewBox="0 0 32 33" fill="none" xmlns="http://www.w3.org/2000/svg">
<path d="M30.4 7.28889H20.8C20.3757 7.28889 19.9687 7.48087 19.6686 7.8226C19.3686 8.16434 19.2 8.62782 19.2 9.11111V14.5778H16V1.82222C16 1.33894 15.8314 0.875449 15.5314 0.533716C15.2313 0.191983 14.8243 0 14.4 0H1.6C1.17565 0 0.768687 0.191983 0.468629 0.533716C0.168571 0.875449 0 1.33894 0 1.82222V30.9778C0 31.461 0.168571 31.9245 0.468629 32.2663C0.768687 32.608 1.17565 32.8 1.6 32.8H30.4C30.8243 32.8 31.2313 32.608 31.5314 32.2663C31.8314 31.9245 32 31.461 32 30.9778V9.11111C32 8.62782 31.8314 8.16434 31.5314 7.8226C31.2313 7.48087 30.8243 7.28889 30.4 7.28889ZM9.6 5.46666H12.8V9.11111H9.6V5.46666ZM6.4 23.6889H3.2V20.0444H6.4V23.6889ZM6.4 16.4H3.2V12.7556H6.4V16.4ZM6.4 9.11111H3.2V5.46666H6.4V9.11111ZM12.8 23.6889H9.6V20.0444H12.8V23.6889ZM12.8 16.4H9.6V12.7556H12.8V16.4ZM27.2 23.6889H24V20.0444H27.2V23.6889ZM27.2 16.4H24V12.7556H27.2V16.4Z" fill="#5B5B5B"/>
</svg>
