<svg width="20" height="18" viewBox="0 0 20 18" fill="none" xmlns="http://www.w3.org/2000/svg">
<path d="M18.3913 3.13043H14.0862V1.95652C14.0856 1.4378 13.8793 0.940483 13.5125 0.573689C13.1457 0.206895 12.6484 0.000577154 12.1297 0H7.43402C6.91529 0.000577154 6.41798 0.206895 6.05119 0.573689C5.68439 0.940483 5.47807 1.4378 5.4775 1.95652V3.13043H1.17391C0.862676 3.13077 0.564284 3.25456 0.344206 3.47464C0.124128 3.69472 0.000339729 3.99311 0 4.30435V16.8261C0.000339729 17.1373 0.124128 17.4357 0.344206 17.6558C0.564284 17.8759 0.862676 17.9997 1.17391 18H18.3913C18.7025 17.9997 19.0009 17.8759 19.221 17.6558C19.4411 17.4357 19.5649 17.1373 19.5652 16.8261V4.30435C19.5649 3.99311 19.4411 3.69472 19.221 3.47464C19.0009 3.25456 18.7025 3.13077 18.3913 3.13043ZM6.26011 1.95652C6.26045 1.64529 6.38424 1.3469 6.60432 1.12682C6.8244 0.906748 7.12278 0.782956 7.43402 0.782609H12.1297C12.4409 0.782956 12.7393 0.906748 12.9594 1.12682C13.1794 1.3469 13.3032 1.64529 13.3036 1.95652V3.13043H6.26011V1.95652ZM1.17391 3.91304H18.3913C18.4951 3.91315 18.5945 3.95442 18.6679 4.02778C18.7412 4.10114 18.7825 4.2006 18.7826 4.30435V8.60459C16.0336 10.1472 12.9341 10.9571 9.78185 10.9565C6.63018 10.9571 3.53128 10.1475 0.782609 8.60545V4.30435C0.782719 4.2006 0.823981 4.10114 0.897341 4.02778C0.970701 3.95442 1.07017 3.91315 1.17391 3.91304ZM18.3913 17.2174H1.17391C1.07017 17.2173 0.970701 17.176 0.897341 17.1027C0.823981 17.0293 0.782719 16.9298 0.782609 16.8261V9.4993C3.55398 10.9708 6.64405 11.7399 9.78185 11.7391C12.9202 11.7399 16.0109 10.9705 18.7826 9.49849V16.8261C18.7825 16.9298 18.7412 17.0293 18.6679 17.1027C18.5945 17.176 18.4951 17.2173 18.3913 17.2174ZM8.21663 8.21739C8.21663 8.11361 8.25786 8.01409 8.33124 7.9407C8.40463 7.86732 8.50415 7.82609 8.60793 7.82609H10.9558C11.0595 7.82609 11.1591 7.86731 11.2325 7.9407C11.3058 8.01408 11.3471 8.11361 11.3471 8.21739C11.3471 8.32117 11.3058 8.4207 11.2325 8.49409C11.1591 8.56747 11.0595 8.6087 10.9558 8.6087H8.60793C8.50415 8.60869 8.40463 8.56746 8.33124 8.49408C8.25786 8.4207 8.21663 8.32117 8.21663 8.21739Z" fill="#19525A"/>
</svg>
